<?xml version="1.0" encoding="UTF-8" standalone="no"?>
<!-- Created with Inkscape (http://www.inkscape.org/) -->

<svg
   width="102.32404mm"
   height="207.4904mm"
   viewBox="0 0 102.32404 207.4904"
   version="1.1"
   id="svg1"
   xml:space="preserve"
   inkscape:version="1.3 (0e150ed6c4, 2023-07-21)"
   sodipodi:docname="Cells.svg"
   inkscape:export-filename="Cursor - Exclamation.png"
   inkscape:export-xdpi="96"
   inkscape:export-ydpi="96"
   xmlns:inkscape="http://www.inkscape.org/namespaces/inkscape"
   xmlns:sodipodi="http://sodipodi.sourceforge.net/DTD/sodipodi-0.dtd"
   xmlns:xlink="http://www.w3.org/1999/xlink"
   xmlns="http://www.w3.org/2000/svg"
   xmlns:svg="http://www.w3.org/2000/svg"><sodipodi:namedview
     id="namedview1"
     pagecolor="#15366e"
     bordercolor="#000000"
     borderopacity="0.25"
     inkscape:showpageshadow="2"
     inkscape:pageopacity="0.0"
     inkscape:pagecheckerboard="0"
     inkscape:deskcolor="#d1d1d1"
     inkscape:document-units="mm"
     inkscape:zoom="16"
     inkscape:cx="10.25"
     inkscape:cy="8.78125"
     inkscape:window-width="1920"
     inkscape:window-height="974"
     inkscape:window-x="-11"
     inkscape:window-y="-11"
     inkscape:window-maximized="1"
     inkscape:current-layer="wbc" /><defs
     id="defs1"><linearGradient
       inkscape:collect="always"
       xlink:href="#linearGradient37"
       id="linearGradient38"
       x1="327.26749"
       y1="468.41113"
       x2="390.46985"
       y2="464.05896"
       gradientUnits="userSpaceOnUse" /><linearGradient
       id="linearGradient37"
       inkscape:collect="always"><stop
         style="stop-color:#4897e7;stop-opacity:1;"
         offset="0"
         id="stop37" /><stop
         style="stop-color:#eb5c6e;stop-opacity:1;"
         offset="1"
         id="stop38" /></linearGradient><filter
       inkscape:collect="always"
       style="color-interpolation-filters:sRGB"
       id="filter40"
       x="-0.26005415"
       y="-0.23658745"
       width="1.5201083"
       height="1.4731749"><feGaussianBlur
         inkscape:collect="always"
         stdDeviation="1.8938509"
         id="feGaussianBlur40" /></filter><filter
       inkscape:collect="always"
       style="color-interpolation-filters:sRGB"
       id="filter47"
       x="-0.57183774"
       y="-0.32526307"
       width="2.1436755"
       height="1.6505261"><feGaussianBlur
         inkscape:collect="always"
         stdDeviation="3.0556031"
         id="feGaussianBlur47" /></filter><filter
       inkscape:collect="always"
       style="color-interpolation-filters:sRGB"
       id="filter48"
       x="-0.19067771"
       y="-0.19399989"
       width="1.3813554"
       height="1.3879998"><feGaussianBlur
         inkscape:collect="always"
         stdDeviation="0.58014305"
         id="feGaussianBlur48" /></filter><linearGradient
       inkscape:collect="always"
       xlink:href="#linearGradient49"
       id="linearGradient50"
       x1="67.917175"
       y1="56.685074"
       x2="90.536552"
       y2="56.685074"
       gradientUnits="userSpaceOnUse" /><linearGradient
       id="linearGradient49"
       inkscape:collect="always"><stop
         style="stop-color:#4876c3;stop-opacity:1;"
         offset="0"
         id="stop49" /><stop
         style="stop-color:#4876c3;stop-opacity:0;"
         offset="1"
         id="stop50" /></linearGradient><filter
       inkscape:collect="always"
       style="color-interpolation-filters:sRGB"
       id="filter49"
       x="-0.27523987"
       y="-0.19447994"
       width="1.5504797"
       height="1.3889599"><feGaussianBlur
         inkscape:collect="always"
         stdDeviation="1.6730724"
         id="feGaussianBlur49" /></filter><filter
       inkscape:collect="always"
       style="color-interpolation-filters:sRGB"
       id="filter41"
       x="-0.26419736"
       y="-0.34702732"
       width="1.5283947"
       height="1.6940546"><feGaussianBlur
         inkscape:collect="always"
         stdDeviation="1.1643412"
         id="feGaussianBlur41" /></filter><filter
       inkscape:collect="always"
       style="color-interpolation-filters:sRGB"
       id="filter46"
       x="-0.39132639"
       y="-0.12466588"
       width="1.7826528"
       height="1.2493318"><feGaussianBlur
         inkscape:collect="always"
         stdDeviation="2.123685"
         id="feGaussianBlur46" /></filter><filter
       inkscape:collect="always"
       style="color-interpolation-filters:sRGB"
       id="filter53"
       x="-0.39503634"
       y="-0.22410885"
       width="1.7900727"
       height="1.4482177"><feGaussianBlur
         inkscape:collect="always"
         stdDeviation="1.170745"
         id="feGaussianBlur53" /></filter><filter
       inkscape:collect="always"
       style="color-interpolation-filters:sRGB"
       id="filter54"
       x="-0.39540135"
       y="-0.18435429"
       width="1.7908027"
       height="1.3687086"><feGaussianBlur
         inkscape:collect="always"
         stdDeviation="1.8093267"
         id="feGaussianBlur54" /></filter><filter
       inkscape:collect="always"
       style="color-interpolation-filters:sRGB"
       id="filter59"
       x="-0.29304411"
       y="-0.1294347"
       width="1.5860882"
       height="1.2588694"><feGaussianBlur
         inkscape:collect="always"
         stdDeviation="1.444839"
         id="feGaussianBlur59" /></filter><filter
       inkscape:collect="always"
       style="color-interpolation-filters:sRGB"
       id="filter60"
       x="-0.51644367"
       y="-0.63001873"
       width="2.0328873"
       height="2.2600375"><feGaussianBlur
         inkscape:collect="always"
         stdDeviation="2.3881403"
         id="feGaussianBlur60" /></filter><filter
       inkscape:collect="always"
       style="color-interpolation-filters:sRGB"
       id="filter67"
       x="-0.35672101"
       y="-0.10666129"
       width="1.713442"
       height="1.2133226"><feGaussianBlur
         inkscape:collect="always"
         stdDeviation="1.3376964"
         id="feGaussianBlur67" /></filter><filter
       inkscape:collect="always"
       style="color-interpolation-filters:sRGB"
       id="filter69"
       x="-0.080413852"
       y="-0.0778455"
       width="1.1608277"
       height="1.155691"><feGaussianBlur
         inkscape:collect="always"
         stdDeviation="0.8718656"
         id="feGaussianBlur69" /></filter><filter
       inkscape:collect="always"
       style="color-interpolation-filters:sRGB"
       id="filter70"
       x="-0.14913235"
       y="-0.038723018"
       width="1.2982647"
       height="1.077446"><feGaussianBlur
         inkscape:collect="always"
         stdDeviation="0.57180116"
         id="feGaussianBlur70" /></filter><filter
       inkscape:collect="always"
       style="color-interpolation-filters:sRGB"
       id="filter71"
       x="-0.048930669"
       y="-0.073530566"
       width="1.0978613"
       height="1.1470611"><feGaussianBlur
         inkscape:collect="always"
         stdDeviation="0.51304621"
         id="feGaussianBlur71" /></filter><linearGradient
       inkscape:collect="always"
       xlink:href="#linearGradient37"
       id="linearGradient102"
       gradientUnits="userSpaceOnUse"
       x1="309.47324"
       y1="489.17105"
       x2="363.7785"
       y2="475.92178" /><filter
       inkscape:collect="always"
       style="color-interpolation-filters:sRGB"
       id="filter66"
       x="-0.066789166"
       y="-0.5232432"
       width="1.1335783"
       height="2.0464864"><feGaussianBlur
         inkscape:collect="always"
         stdDeviation="0.7999984"
         id="feGaussianBlur66" /></filter><filter
       inkscape:collect="always"
       style="color-interpolation-filters:sRGB"
       id="filter62"
       x="-0.090137489"
       y="-0.10968352"
       width="1.180275"
       height="1.219367"><feGaussianBlur
         inkscape:collect="always"
         stdDeviation="0.69654237"
         id="feGaussianBlur62" /></filter><filter
       inkscape:collect="always"
       style="color-interpolation-filters:sRGB"
       id="filter63"
       x="-0.76562098"
       y="-0.34307877"
       width="2.531242"
       height="1.6861575"><feGaussianBlur
         inkscape:collect="always"
         stdDeviation="2.8214824"
         id="feGaussianBlur63" /></filter><filter
       inkscape:collect="always"
       style="color-interpolation-filters:sRGB"
       id="filter42"
       x="-0.55304189"
       y="-0.058655954"
       width="2.1060838"
       height="1.1173119"><feGaussianBlur
         inkscape:collect="always"
         stdDeviation="1.2657133"
         id="feGaussianBlur42" /></filter><radialGradient
       inkscape:collect="always"
       xlink:href="#linearGradient43"
       id="radialGradient44"
       cx="73.469452"
       cy="108.78466"
       fx="73.469452"
       fy="108.78466"
       r="6.2131505"
       gradientTransform="matrix(1.9734669,0.57864902,-1.2303918,4.1962181,62.928364,-392.5961)"
       gradientUnits="userSpaceOnUse" /><linearGradient
       id="linearGradient43"
       inkscape:collect="always"><stop
         style="stop-color:#92b4d8;stop-opacity:1;"
         offset="0"
         id="stop43" /><stop
         style="stop-color:#92b4d8;stop-opacity:0;"
         offset="1"
         id="stop44" /></linearGradient><filter
       inkscape:collect="always"
       style="color-interpolation-filters:sRGB"
       id="filter43"
       x="-0.30714999"
       y="-0.14347121"
       width="1.6143"
       height="1.2869424"><feGaussianBlur
         inkscape:collect="always"
         stdDeviation="0.98513756"
         id="feGaussianBlur43" /></filter><linearGradient
       inkscape:collect="always"
       xlink:href="#linearGradient44"
       id="linearGradient46"
       x1="64.629623"
       y1="105.99014"
       x2="78.712822"
       y2="105.99014"
       gradientUnits="userSpaceOnUse" /><linearGradient
       id="linearGradient44"
       inkscape:collect="always"><stop
         style="stop-color:#6380ca;stop-opacity:1;"
         offset="0"
         id="stop45" /><stop
         style="stop-color:#344e93;stop-opacity:0;"
         offset="1"
         id="stop46" /></linearGradient><filter
       inkscape:collect="always"
       style="color-interpolation-filters:sRGB"
       id="filter44"
       x="-0.13528523"
       y="-0.10947456"
       width="1.2705705"
       height="1.2189491"><feGaussianBlur
         inkscape:collect="always"
         stdDeviation="0.624801"
         id="feGaussianBlur44" /></filter><filter
       inkscape:collect="always"
       style="color-interpolation-filters:sRGB"
       id="filter50"
       x="-0.20749639"
       y="-0.080429059"
       width="1.4149928"
       height="1.1608581"><feGaussianBlur
         inkscape:collect="always"
         stdDeviation="0.9219026"
         id="feGaussianBlur50" /></filter><filter
       inkscape:collect="always"
       style="color-interpolation-filters:sRGB"
       id="filter51"
       x="-0.13647778"
       y="-0.077615022"
       width="1.2729556"
       height="1.15523"><feGaussianBlur
         inkscape:collect="always"
         stdDeviation="0.85693513"
         id="feGaussianBlur51" /></filter><filter
       inkscape:collect="always"
       style="color-interpolation-filters:sRGB"
       id="filter52"
       x="-0.15735716"
       y="-0.087150832"
       width="1.3147143"
       height="1.1743017"><feGaussianBlur
         inkscape:collect="always"
         stdDeviation="0.86387647"
         id="feGaussianBlur52" /></filter><filter
       inkscape:collect="always"
       style="color-interpolation-filters:sRGB"
       id="filter126"
       x="-0.70631466"
       y="-0.11023404"
       width="2.4126293"
       height="1.2204681"><feGaussianBlur
         inkscape:collect="always"
         stdDeviation="1.4139031"
         id="feGaussianBlur126" /></filter><radialGradient
       inkscape:collect="always"
       xlink:href="#linearGradient127"
       id="radialGradient128"
       cx="88.011368"
       cy="184.91269"
       fx="88.011368"
       fy="184.91269"
       r="11.158799"
       gradientTransform="matrix(1,0,0,0.83849436,0,29.864443)"
       gradientUnits="userSpaceOnUse" /><linearGradient
       id="linearGradient127"
       inkscape:collect="always"><stop
         style="stop-color:#d1e2f5;stop-opacity:1;"
         offset="0"
         id="stop127" /><stop
         style="stop-color:#85b4e5;stop-opacity:0;"
         offset="1"
         id="stop128" /></linearGradient><filter
       inkscape:collect="always"
       style="color-interpolation-filters:sRGB"
       id="filter127"
       x="-0.095855955"
       y="-0.1187024"
       width="1.1917119"
       height="1.2374048"><feGaussianBlur
         inkscape:collect="always"
         stdDeviation="0.74796977"
         id="feGaussianBlur127" /></filter><filter
       inkscape:collect="always"
       style="color-interpolation-filters:sRGB"
       id="filter128"
       x="-0.080081258"
       y="-0.24758513"
       width="1.1601625"
       height="1.4951703"><feGaussianBlur
         inkscape:collect="always"
         stdDeviation="0.62127183"
         id="feGaussianBlur128" /></filter><filter
       inkscape:collect="always"
       style="color-interpolation-filters:sRGB"
       id="filter129"
       x="-0.078783406"
       y="-0.42412855"
       width="1.1575668"
       height="1.8482571"><feGaussianBlur
         inkscape:collect="always"
         stdDeviation="0.83846957"
         id="feGaussianBlur129" /></filter><radialGradient
       inkscape:collect="always"
       xlink:href="#linearGradient125"
       id="radialGradient126"
       cx="87.197266"
       cy="120.26399"
       fx="87.197266"
       fy="120.26399"
       r="25.011389"
       gradientTransform="matrix(0.8260974,0.56352736,-1.3098128,1.9201072,172.68715,-159.79382)"
       gradientUnits="userSpaceOnUse" /><linearGradient
       id="linearGradient125"
       inkscape:collect="always"><stop
         style="stop-color:#db68bd;stop-opacity:1;"
         offset="0"
         id="stop125" /><stop
         style="stop-color:#eaa6d7;stop-opacity:1;"
         offset="1"
         id="stop126" /></linearGradient></defs><g
     inkscape:groupmode="layer"
     id="layer1"
     inkscape:label="Layer 1"
     style="display:inline" /><g
     inkscape:groupmode="layer"
     id="layer8"
     inkscape:label="System"
     style="display:inline"
     transform="translate(-46.21104,-20.326399)"
     sodipodi:insensitive="true"><g
       inkscape:groupmode="layer"
       id="f_top"
       inkscape:label="F Top"
       style="display:inline"><path
         id="path32"
         style="fill:url(#linearGradient38);fill-opacity:1;stroke-width:15.1181;stroke-linejoin:round;stroke-miterlimit:3.1;paint-order:stroke markers fill"
         d="m 387.41797,80.312501 c -5.30527,1.752323 -7.63843,8.008043 -9.26953,12.896485 -2.47249,11.593034 -2.9614,23.710914 -1.73828,35.478514 1.41307,7.51674 6.82169,14.32122 6.16211,22.13281 -0.83006,2.89937 -2.3412,7.64689 -6.20117,6.1543 -13.62885,-0.48593 -28.45985,-4.60582 -41.11719,2.48633 -2.44479,-0.90903 -2.75718,-5.11393 -3.4375,-7.53125 -2.06116,-13.53152 7.55263,-25.77912 5.95313,-39.37695 -0.894,-8.25351 -0.86141,-17.031702 -4.23438,-24.726567 -2.42025,-4.334605 -8.49711,-7.994136 -12.90234,-4.085938 -12.12299,8.664924 -23.36667,18.818815 -32.73438,30.427735 -9.46846,13.28713 -14.87634,30.92947 -30.22461,38.90234 -14.1988,8.35645 -32.64782,10.38403 -43.99805,23.37891 -12.43604,14.5914 -20.31239,32.94351 -22.02148,52.06836 -2.24066,17.4638 -3.28384,36.56942 6.32617,52.19922 6.81243,11.23942 15.44981,21.51441 25.35742,30.15039 13.35424,10.40634 29.39236,19.37764 46.85547,18.63477 9.61673,0.0283 21.09295,-0.15376 30.61133,-0.77539 1.61815,-4.30907 3.65171,-7.66919 6.33399,-10.91407 l 1.29492,-2.33593 4.31445,-6.28516 c -0.46139,-1.06039 -1.59409,-1.81061 -3.51758,-1.63086 -18.16315,-1.75819 -36.71471,0.0291 -54.63281,-3.87891 -12.19353,-3.33858 -20.63719,-13.62262 -29.08008,-22.3457 -8.0873,-9.48776 -12.65646,-21.82344 -12.01562,-34.28125 0.0891,-9.61416 -1.76047,-20.65769 5.47656,-28.36328 8.62758,-9.00635 19.66762,-15.319 30.10351,-21.99219 3.46024,-2.13443 8.33494,-5.09666 11.79883,-1.34375 4.41769,5.07278 3.13927,12.64206 2.86133,18.88281 -2.95445,16.06157 -5.78633,32.66021 -2.88086,48.96485 0.74454,5.75369 6.35071,11.4185 12.41406,8.78711 11.22108,-4.22014 18.05557,-15.39885 29.04493,-19.81641 9.28611,-1.79296 19.16825,0.18267 28.16601,-2.94336 8.04936,-3.11384 9.62437,-12.53957 9.21485,-20.1543 -0.004,-13.5459 -4.36229,-26.50143 -6.9336,-39.64257 -0.22418,-6.30141 7.81441,-7.71366 12.50196,-9.10352 12.34713,-2.57337 25.07168,-3.2798 37.58984,-2.11133 0.49577,3.73145 -2.02373,7.97525 -2.62891,11.85547 -3.46408,13.62858 -6.00668,27.98357 -4.12109,42.0332 0.73855,5.91186 5.40707,10.41283 11.18359,11.48438 10.81749,2.58445 21.7141,5.57465 31.01758,11.93945 8.20747,4.1767 15.98835,11.41407 25.72071,11.04102 8.80191,-0.7754 12.31039,-10.66639 12.77929,-18.23633 0.98195,-18.03805 -4.91007,-35.97362 -2.50195,-53.91406 2.12457,-8.31211 5.57067,-16.636 11.91406,-22.46289 4.5452,-4.05021 9.74086,1.11075 13.95117,3.02539 6.65958,4.24781 14.07457,8.95579 17.44336,16.38867 3.8085,18.54 3.19666,37.48818 3.79688,56.31836 0.27828,15.58529 -0.21522,31.21381 1.13281,46.75977 0.59873,0.84451 1.35793,1.52343 2.19141,2.125 -0.73435,-0.27979 -1.50363,-0.46367 -2.2461,-0.72461 l 2.98243,1.21289 0.0508,-1.11524 6.90429,3.94532 3.1875,1.29687 -0.0723,0.48242 3.51367,2.00781 c 2.25115,0.45928 4.21355,-0.20293 3.42188,-3.63085 -0.21082,-35.63712 0.76041,-71.64062 -5.62891,-106.85157 -1.47589,-10.8624 -8.04868,-20.1908 -16.49414,-26.88476 -13.24137,-10.86987 -29.63793,-18.84239 -46.89258,-19.97071 -2.15237,-0.42966 -4.40572,1.11627 -6.36719,0.79688 -5.95345,-8.51094 -10.03047,-18.58834 -16.43359,-27.00196 -10.0151,-15.46106 -23.77691,-28.196399 -39.05078,-38.347653 -1.28788,-0.702296 -2.66558,-1.575941 -4.19532,-1.478516 z M 341.42969,319.80274 c 0,0 -7.76391,4.74785 -10.8789,7.99609 -2.11341,2.20381 -4.80086,5.97562 -5.94543,8.80638 -0.60041,1.48492 -0.01,3.52565 -0.01,3.52565 l 0.48437,0.70508 c 0.23354,-0.76567 0.40732,-1.55706 0.67969,-2.30469 -0.34487,2.00648 -0.27662,4.08505 0.33789,6.19922 3.26318,5.53869 4.93629,12.71359 0.69336,18.17578 -0.0524,0.45844 -0.20242,0.90104 -0.30469,1.35157 l -0.21289,4.83398 -4.58789,6.44141 -1.48242,5.0957 0.86914,4.33984 c 0.14273,0.10448 0.28459,0.21478 0.43164,0.28711 l 2.17578,-0.0391 7.08985,-3.61328 2.10742,2.74219 c 0.0505,0.0836 0.11291,0.096 0.16211,0.1875 0.009,0.0179 0.0238,0.0482 0.0332,0.0664 l 1.54297,2.00782 3.33594,5.375 2.59375,1.84961 c 0.63786,0.0842 1.32076,-0.0424 2.04101,-0.34375 l 3.57422,-4.375 c 1.00511,-2.23359 2.17938,-4.8475 2.67383,-5.87305 0.005,-0.0105 0.0144,-0.013 0.0195,-0.0234 l 0.0801,-0.17773 0.13086,-0.084 c 0.63448,-0.96496 1.39278,-1.22346 1.99609,-1.29297 l 1.19922,-0.77539 c 0.19506,-0.29987 0.38385,-0.60432 0.61133,-0.88086 -0.0705,0.19044 -0.0822,0.3887 -0.14649,0.58008 l 0.93555,-0.60547 5.13086,-13.05664 c 2.18775,-8.45527 1.88901,-17.45219 -2.88867,-25.14648 -4.03106,-7.29224 -8.76075,-14.73321 -14.76953,-20.37891 0.76308,-0.39905 1.56439,-0.69768 2.34375,-1.05469 z m 160.29493,0 -0.041,0.002 c 0.0511,0.0331 0.0994,0.0703 0.15039,0.10352 z m -195.94532,0.46484 c -0.013,0.0191 -0.03,0.0336 -0.043,0.0527 -0.0304,0.0534 -0.0479,0.11254 -0.0781,0.16601 z m 197.86524,3.41211 -0.11133,0.01 c -4.81557,2.32324 -4.56469,9.37887 -7.58203,13.44726 -7.2441,14.31555 -15.59929,31.80613 -33.06836,35.14649 -19.72293,4.37013 -40.11282,1.62787 -59.98828,4.20898 -0.77946,0.46956 -1.20123,1.04959 -1.48828,1.67188 l 0.54296,6.44922 c 0.28047,1.16391 0.47495,2.31089 0.30469,3.36132 0.003,0.17562 0.0204,0.36802 0.0234,0.54688 l 0.39062,4.65234 c 0.55786,3.60893 2.08058,6.5601 7.01368,5.55078 22.426,1.20705 45.39721,1.05675 66.83593,-6.52929 9.71524,-2.16705 18.35185,-7.63209 23.97071,-15.91602 8.26225,-10.99916 15.64833,-23.52923 18.27734,-37.03125 l -0.53125,-1.7168 c -1.63656,-2.16391 -3.38101,-4.43137 -5.25781,-6.62695 l -4.96094,-4.54687 -0.16797,-0.49414 c -1.18637,-0.86726 -2.42707,-1.64739 -3.80273,-2.17969 z"
         transform="scale(0.26458333)"
         sodipodi:nodetypes="ccccccccccccccccccccccccccccccccccccccccccccccccccccccccccccccccccsscccccccccccccccccccccsccccccccccccccccccccccccccccccccccccccccc"
         inkscape:export-filename="Map.png"
         inkscape:export-xdpi="747.42004"
         inkscape:export-ydpi="747.42004" /><g
         inkscape:groupmode="layer"
         id="layer4"
         inkscape:label="F Overlay Top"
         style="display:inline"><path
           style="mix-blend-mode:normal;fill:#aac3e1;fill-opacity:1;stroke-width:5.21378;stroke-linejoin:round;stroke-miterlimit:3.1;paint-order:stroke markers fill;filter:url(#filter40)"
           d="m 62.975471,44.179927 c -2.137135,1.422047 -3.953304,3.259745 -6.519487,6.172707 -2.566181,2.912962 -2.774249,9.501805 -2.774249,9.501805 0,0 1.387123,-4.577511 5.548498,-7.421118 4.161375,-2.843607 7.975968,-3.883948 9.987301,-7.143692 2.011331,-3.259743 1.941973,-4.646869 1.941973,-4.646869 0,0 -5.709814,1.890823 -8.184036,3.537167 z"
           id="path40"
           sodipodi:nodetypes="sscsscs"
           transform="matrix(0.76719648,0,0,0.76719648,13.569334,11.663373)" /><path
           style="opacity:0.64527;mix-blend-mode:normal;fill:#bad5f1;fill-opacity:1;stroke-width:4;stroke-linejoin:round;stroke-miterlimit:3.1;paint-order:stroke markers fill;filter:url(#filter47)"
           d="m 81.414375,38.573127 c -2.912962,4.022662 -4.99365,1.387123 -3.606524,6.935624 1.387123,5.5485 2.358112,5.132363 -0.277427,8.738888 -2.635535,3.606525 -5.964637,5.548498 -4.438798,6.103347 1.525836,0.55485 0.970987,-2.219399 4.161375,-1.248412 3.190385,0.970989 6.380773,4.300087 6.79691,-2.080686 0.416139,-6.380774 -1.248413,-3.745238 -0.416137,-9.432449 0.832276,-5.687213 3.190389,-9.432451 0.970987,-9.293738 -2.219399,0.138713 -3.190386,0.277426 -3.190386,0.277426 z"
           id="path47" /><path
           style="opacity:1;fill:#aad0f5;fill-opacity:1;stroke-width:4;stroke-linejoin:round;stroke-miterlimit:3.1;paint-order:stroke markers fill;filter:url(#filter48)"
           d="m 82.95007,28.713485 c -1.525839,2.080689 -6.796913,7.906613 -2.358112,5.825924 4.438798,-2.080686 6.10335,-3.051672 5.409787,-5.548498 -0.693563,-2.496825 -3.051675,-0.277426 -3.051675,-0.277426 z"
           id="path48" /><path
           style="opacity:0.64527;fill:url(#linearGradient50);fill-opacity:1;stroke-width:4;stroke-linejoin:round;stroke-miterlimit:3.1;paint-order:stroke markers fill;filter:url(#filter49)"
           d="m 81.704425,51.298218 c -0.784677,4.708056 1.177015,6.081241 -2.844453,7.258256 -4.021466,1.177012 -5.983155,-0.784678 -6.767833,3.825295 -0.784677,4.609973 1.373185,6.179328 5.39465,2.844454 4.021466,-3.334875 7.16017,3.04062 8.533355,-2.746367 1.373185,-5.786991 -0.490423,-5.492737 -0.686591,-8.631441 -0.19617,-3.138705 2.255943,-9.318033 -0.882761,-6.964003 -3.138707,2.35403 -3.138707,4.413806 -3.138707,4.413806 z"
           id="path49" /><path
           style="opacity:0.787162;fill:#84aad4;fill-opacity:1;stroke-width:4;stroke-linejoin:round;stroke-miterlimit:3.1;paint-order:stroke markers fill;filter:url(#filter41)"
           d="m 82.702218,27.257705 c -2.484548,1.079528 -9.987298,7.213049 -2.982317,7.559831 7.004978,0.346781 8.045323,-2.912962 7.559831,-5.756569 -0.485495,-2.843607 -3.073393,-2.456798 -4.577514,-1.803262 z"
           id="path41"
           sodipodi:nodetypes="ssss" /><path
           style="opacity:1;mix-blend-mode:normal;fill:#f4aaa1;fill-opacity:1;stroke-width:4.2273;stroke-linejoin:round;stroke-miterlimit:3.1;paint-order:stroke markers fill;filter:url(#filter46)"
           d="m 107.22475,32.87486 c 0.13872,1.248413 4.71623,-1.664549 2.63554,7.21305 -2.08069,8.877599 -4.4388,6.935626 -3.05167,11.513137 1.38712,4.577511 3.88395,-5.271074 4.02266,2.080689 0.13871,7.35176 -2.35811,13.177686 0.69356,11.374424 3.05168,-1.803262 6.24206,-1.387126 5.82592,-6.935626 -0.41613,-5.5485 0.69357,-12.484124 -1.38712,-16.922925 -2.08069,-4.438798 -3.05168,-4.993647 -4.16138,-7.213049 -1.10969,-2.219399 -4.99364,-12.761548 -6.93562,-8.461462 -1.94197,4.300087 2.35811,7.351762 2.35811,7.351762 z"
           id="path46"
           transform="matrix(0.94623135,0,0,0.94623135,6.0309691,2.569262)" /><path
           style="opacity:0.684122;mix-blend-mode:normal;fill:#aeceec;fill-opacity:1;stroke-width:4.33983;stroke-linejoin:round;stroke-miterlimit:3.1;paint-order:stroke markers fill;filter:url(#filter53)"
           d="m 89.434877,90.267153 c 0,0 1.699229,1.352447 0.208071,4.09202 -1.491159,2.73957 -3.537169,2.808928 -2.080688,4.508156 1.456481,1.699231 3.363777,3.363781 3.849272,-0.03468 0.485494,-3.398457 4.785579,-5.444466 1.595194,-7.906613 -3.190388,-2.462146 -5.479145,-3.398456 -4.681548,-2.01133 0.797597,1.387125 1.109699,1.352446 1.109699,1.352447 z"
           id="path53"
           transform="matrix(0.92169473,0,0,0.92169473,7.1522983,7.9751205)" /><path
           style="opacity:0.684122;fill:#79a6d1;fill-opacity:1;stroke-width:4;stroke-linejoin:round;stroke-miterlimit:3.1;paint-order:stroke markers fill;filter:url(#filter54)"
           d="m 74.835388,44.457354 c 0,2.080686 -0.346781,2.150044 -0.208068,8.461462 0.138713,6.311419 -9.016312,15.050305 -1.733907,11.374425 7.282407,-3.675883 8.600175,-8.600176 7.767902,-9.987302 -0.832276,-1.387123 1.941973,-12.90026 -0.970989,-12.692192 -2.912962,0.208069 -4.854938,2.843607 -4.854938,2.843607 z"
           id="path54" /><path
           style="opacity:0.349662;fill:#4b79c2;fill-opacity:1;stroke-width:4;stroke-linejoin:round;stroke-miterlimit:3.1;paint-order:stroke markers fill;filter:url(#filter59)"
           d="m 74.349894,45.913836 c 0,4.300085 1.248413,1.387123 0,6.935623 -1.24841,5.548501 -4.993647,18.587474 -1.387123,14.148673 3.606525,-4.438798 9.016312,-0.13871 9.987299,-5.825924 0.970989,-5.68721 -0.416137,-6.519486 -2.358112,-5.409787 -1.941976,1.1097 4.854937,-4.716224 0.554849,-9.848585 -4.300087,-5.132364 -6.24206,-5.825927 -6.380773,-3.606525 -0.138713,2.219399 -0.41614,3.606525 -0.41614,3.606525 z"
           id="path59" /><path
           style="opacity:0.905405;mix-blend-mode:normal;fill:#99b6dc;fill-opacity:1;stroke-width:2.88771;stroke-linejoin:round;stroke-miterlimit:3.1;paint-order:stroke markers fill;filter:url(#filter60)"
           d="m 76.29187,54.236585 c -3.190388,5.825924 -8.045325,10.680861 -3.467811,7.35176 4.577511,-3.329099 10.403435,-4.438798 9.016312,-6.79691 -1.387126,-2.358112 -5.548501,-0.55485 -5.548501,-0.55485 z"
           id="path60"
           transform="matrix(1,0,0,1.9187272,1.6001227,-54.273406)" /><path
           style="opacity:0.717905;fill:#a6bee0;fill-opacity:1;stroke-width:4;stroke-linejoin:round;stroke-miterlimit:3.1;paint-order:stroke markers fill;filter:url(#filter67)"
           d="m 77.390378,29.509829 c 0,1.664552 -1.80327,-1.248412 -2.21941,12.206701 -0.41613,13.455112 -2.77425,20.113312 -0.41613,15.119662 2.35811,-4.993651 1.66455,-13.038974 2.49682,-6.6582 0.83227,6.380773 0.41614,9.016312 0.83227,7.351762 0.41614,-1.664549 5.5485,-1.387125 3.60653,-9.571161 -1.94197,-8.184039 -4.16138,-3.467815 -3.3291,-7.7679 0.83228,-4.300087 6.51949,-12.067987 3.46781,-11.790563 -3.05167,0.277426 -4.4388,1.109699 -4.43879,1.109699 z"
           id="path67" /><path
           style="opacity:1;mix-blend-mode:normal;fill:#8ab5e3;fill-opacity:1;stroke-width:4;stroke-linejoin:round;stroke-miterlimit:3.1;paint-order:stroke markers fill;filter:url(#filter69)"
           d="m 52.86757,58.654558 c 0,0 -0.294254,9.121862 1.078928,12.162483 1.373185,3.04062 3.923382,8.729524 7.35634,10.985468 3.432961,2.255946 10.691217,4.708059 12.750993,3.334874 2.059774,-1.373182 4.904227,-0.490424 4.806141,-1.373182 -0.09808,-0.882761 -3.040621,-1.667439 -5.786988,-0.980847 -2.746367,0.686593 -8.239101,-0.490422 -9.808453,-1.471269 -1.569353,-0.980845 -4.609973,-3.531042 -5.983158,-5.885071 -1.373182,-2.35403 -2.550197,-8.729525 -2.550197,-10.593131 0,-1.863606 1.667436,-5.983158 0.09808,-5.983158 -1.569353,0 -1.96169,-0.196167 -1.96169,-0.196167 z"
           id="path69" /><path
           style="opacity:1;mix-blend-mode:normal;fill:#ee7882;fill-opacity:1;stroke-width:4;stroke-linejoin:round;stroke-miterlimit:3.1;paint-order:stroke markers fill;filter:url(#filter70)"
           d="m 133.8854,52.180976 c 0,0 3.13871,10.004623 2.25595,15.791611 -0.88276,5.786991 -1.9617,10.004624 -1.9617,10.004624 0,0 2.25595,-3.236789 2.5502,-6.375496 0.29426,-3.138704 -0.29425,-8.631438 -0.29425,-8.631438 0,0 -1.17701,-13.045244 -1.96169,-13.928005 -0.78468,-0.882761 -8.14102,-8.337188 -6.66975,-6.081242 1.47127,2.255944 6.08124,9.219946 6.08124,9.219946 z"
           id="path70" /><path
           style="opacity:1;mix-blend-mode:normal;fill:#ef838c;fill-opacity:1;stroke-width:4;stroke-linejoin:round;stroke-miterlimit:3.1;paint-order:stroke markers fill;filter:url(#filter71)"
           d="m 134.27774,86.118228 c 0,0 -2.06296,5.198483 -3.49807,8.239104 -1.4351,3.04062 -0.62786,3.825295 -3.76715,5.19848 -3.13929,1.373178 -13.72318,0.980848 -15.78615,1.373178 -2.06295,0.39234 -2.51143,0.58851 -1.79388,0.78468 0.71756,0.19617 6.18889,1.76552 10.76329,0.88276 4.5744,-0.88276 4.21562,-1.47127 6.81674,-2.15786 2.60113,-0.686591 1.70419,0.98085 3.94654,-2.157859 2.24235,-3.138705 3.04959,-5.885072 3.13929,-6.767833 0.0897,-0.882761 0.17939,-5.39465 0.17939,-5.39465 z"
           id="path71" /></g></g><g
       inkscape:groupmode="layer"
       id="o_top"
       inkscape:label="O Top"
       style="display:inline"><path
         id="path75"
         style="display:inline;fill:#000000;fill-opacity:1;stroke-width:4;stroke-linejoin:round;stroke-miterlimit:3.1;paint-order:stroke markers fill"
         d="m 102.33897,20.326408 c -1.60153,-0.0061 -1.84814,2.959246 -2.758485,4.366142 -1.078926,1.667429 -0.808978,8.928802 0.09767,11.23859 1.140075,2.904482 1.741005,3.899053 0.146245,4.680335 -1.167301,0.571859 -5.125999,-0.345615 -8.093046,-0.247531 -1.709512,0.05651 -2.379798,0.871362 -2.689759,0.788583 -0.682229,-0.182199 -0.204214,-1.393409 -0.404109,-2.172994 -0.693559,-2.704882 2.158209,-7.205252 1.048515,-11.782743 -1.109695,-4.577496 -1.069138,-6.04799 -2.733684,-6.186703 -1.664541,-0.138712 -6.72166,3.565477 -9.501745,6.103503 -3.682753,3.362099 -6.489906,9.858347 -9.194788,11.800314 -2.704882,1.941968 -7.213112,1.941925 -11.721248,6.241996 -4.50814,4.300069 -6.234685,10.33715 -6.910173,14.247709 -2.032903,11.768934 2.566734,19.45061 10.993128,24.725623 3.359727,2.103227 7.143785,3.467488 11.374499,3.467488 2.751553,0 6.38639,0.292821 7.526026,0.330481 0.203943,-0.320031 0.215855,-0.965866 0.487744,-1.388426 -1.835775,-0.03564 -8.180102,-0.0074 -10.164026,-0.12079 C 67.414273,86.279269 63.807883,85.0307 61.588489,83.574227 59.369098,82.11775 57.208896,80.074717 56.237911,78.75695 49.104268,71.090576 50.500744,65.229999 51.462492,58.291016 c 0.676088,-4.877958 4.092087,-10.781992 7.14375,-12.932028 3.051663,-2.150029 8.471152,-2.962529 11.790495,-5.826001 3.298387,-2.845394 4.450235,-7.577061 7.445023,-10.740429 2.489532,-2.62967 7.605238,-7.22266 8.576221,-6.66781 0.970982,0.554846 1.282896,1.525929 1.421609,3.745321 0.138711,2.219389 1.682876,4.277088 0.850604,7.120682 -0.83227,2.843595 -1.774785,5.062797 -1.362191,7.149951 0.252181,1.275692 0.22028,2.310476 1.246952,2.529562 1.059162,0.226016 -0.358521,-0.54684 3.599781,-1.099158 2.108807,-0.294253 7.013361,0.515214 7.847064,0.515214 0.83372,0 0.88267,-0.514989 1.42214,-1.299662 0.87363,-1.402933 -0.21717,-3.664144 -0.85835,-4.977991 -1.313671,-2.69187 -0.29284,-7.101415 0.14728,-9.914124 0.17165,-1.324135 0.88293,-3.752212 1.6676,-4.242635 0.049,-0.03065 0.1169,-0.0394 0.20154,-0.02842 1.26954,0.164744 6.28104,4.740019 7.1546,5.521627 0.93181,0.833714 3.56284,4.364322 5.10046,6.718453 1.1305,1.730821 2.45185,4.78176 3.01584,5.419308 0.35423,0.400434 0.92648,0.09684 1.32085,-0.186036 h 5.1e-4 c 0.41732,0.0215 1.00855,0.06338 1.84227,0.136943 3.33487,0.294254 10.29873,3.040726 13.92783,8.141105 3.35798,4.719314 2.9989,29.614684 2.90495,33.243326 l 0.99581,0.701085 c -0.0332,-1.551314 -0.10192,-19.769924 -0.30091,-22.721689 -0.20807,-3.086345 -0.41627,-4.568213 -0.90176,-8.521507 -0.4855,-3.953294 -5.48993,-7.718417 -9.52661,-10.057355 -2.57239,-1.490496 -8.06869,-1.791833 -9.40666,-1.846399 -0.37807,-0.32826 -1.23316,-1.24415 -1.97198,-3.294373 -0.98081,-2.721834 -4.45523,-6.052956 -5.41155,-7.401615 -0.95633,-1.348658 -5.38969,-5.316205 -7.96437,-6.811987 -0.4023,-0.233717 -0.74574,-0.336833 -1.04232,-0.337964 z m 21.97334,24.226945 c -2.25754,0.160622 -4.08944,4.737789 -4.56148,6.711735 -1.21536,5.082431 3.87467,17.5097 -2.10788,18.338415 -2.38253,0.330032 -6.79626,-2.909539 -10.36526,-4.307747 -1.45267,-0.569105 -3.42901,-0.894631 -5.50096,-1.451591 -3.523688,-0.947205 -1.915809,-10.409078 0.21859,-16.714225 -0.48266,-1.111356 -1.82679,-0.877037 -2.74298,-0.607715 -3.231365,-0.202767 -8.119423,0.09541 -10.436056,1.071769 -1.249913,0.612689 -1.534382,1.212265 -1.465027,2.564701 0.06936,1.352442 0.886715,4.261635 0.921391,5.648751 0.03468,1.38712 0.732311,3.414659 0.697632,4.801774 -0.10432,4.172589 -1.909338,4.517658 -4.019393,5.04517 -0.832271,0.208069 -3.612382,-0.05655 -5.450313,0.741041 -1.837931,0.797594 -4.769399,3.744114 -5.636349,4.298962 -7.059111,5.043425 -4.44118,-10.287023 -3.744991,-13.17749 0.624204,-2.288749 0.138766,-4.508356 -0.03462,-5.09788 -0.173389,-0.589528 -1.005961,-1.872569 -2.427759,-1.664498 -1.421797,0.208069 -3.536692,1.841244 -5.180045,2.961576 -1.858491,1.266998 -4.593009,3.099532 -5.258077,4.229199 -1.189932,2.021183 -1.283069,2.325247 -1.317749,7.353557 -0.03468,5.028306 2.739688,8.73916 3.190503,9.294006 0.450812,0.554846 4.508386,4.854501 7.03988,5.825484 2.531492,0.970985 5.062805,1.04065 6.657991,1.11001 1.59519,0.06936 5.122388,-0.01616 6.440151,0.157226 0.709108,0.0933 2.930659,0.888418 3.601654,1.057445 0.253359,-0.369965 1.16946,-0.754721 0.84866,-1.012108 -0.735496,-0.590108 -4.138251,-1.36803 -6.634394,-1.203539 -5.138272,0.338603 -7.307154,-0.07342 -9.415962,-0.612882 -2.108809,-0.539463 -4.518985,-1.853092 -8.194849,-6.777364 -3.675866,-4.924275 -2.355201,-11.558063 -1.83503,-13.777454 0.520167,-2.219391 3.698147,-2.871276 6.853845,-5.402771 3.155697,-2.531491 3.629254,-2.099628 4.600236,-0.781864 0.970985,1.317764 -0.424584,4.977627 -0.875399,8.480102 -0.471487,3.663107 0.404209,8.431087 0.935344,9.698116 0.378989,0.904093 0.520136,2.115615 3.294372,1.144633 2.774239,-0.970984 4.95901,-4.161329 7.490499,-4.924247 2.531492,-0.762913 6.831448,-3.16e-4 8.253243,-1.11001 1.421797,-1.109692 1.90718,-1.386696 2.357996,-4.195609 0.45081,-2.808913 -0.728041,-4.092009 -1.109493,-6.866248 -1.103978,-5.544483 -2.112102,-6.64924 4.503601,-7.607287 3.306898,-0.478888 6.287808,0.733658 6.296258,0.916742 0.0368,0.796932 -0.715653,3.792012 -1.157037,5.042586 -0.441377,1.250576 -0.723625,7.564897 0.379822,9.305892 1.103445,1.740995 3.236865,1.985798 6.620785,2.868559 3.38388,0.882759 10.74001,6.424715 13.06948,4.708239 2.32951,-1.716473 2.77947,-6.15967 2.37878,-9.686015 -0.33778,-2.972839 -1.37297,-9.734691 -0.41664,-10.421285 0.77701,-0.557852 1.17216,-4.735791 3.41064,-4.586283 0.51657,0.0345 1.13149,0.29935 1.87172,0.892452 3.94791,3.163217 4.97746,2.255834 5.46789,6.424414 0.49039,4.168581 0.53965,13.241714 0.68678,15.889986 0.12567,2.262334 10e-4,7.461067 -0.0269,8.783601 l 1.25998,0.66398 c 0,0 -0.41971,-11.200588 -0.30132,-13.567441 0.15186,-3.036029 -0.63753,-12.996211 -1.37316,-14.810767 -0.73564,-1.81456 -4.07076,-4.021373 -6.76806,-5.443595 -0.33717,-0.177778 -0.66814,-0.245155 -0.99064,-0.222209 z m -34.534061,40.414666 0.03608,0.173105 c 2.514899,2.851392 5.022724,9.22117 5.311523,9.028097 l 0.375843,-0.251266 c 0.280486,-0.187516 0.168682,-1.359238 -0.208211,-2.167849 -0.806903,-2.149197 -1.14219,-2.731612 -2.182532,-4.361477 -0.379946,-0.595248 -1.754585,-2.477381 -2.269109,-2.70045 -0.800638,-0.347113 -1.078256,0.209529 -1.063599,0.27984 z m 43.182171,-0.183284 c -0.70699,-0.396614 -1.9687,3.130057 -2.42834,4.405172 -1.075,2.982311 -2.84644,6.411882 -5.69939,8.041369 -4.62968,2.644299 -19.30653,1.607971 -19.212,1.807752 l 0.40995,0.866397 c 2.79932,0.164435 15.07142,0.759945 19.98957,-2.459691 3.13563,-2.052712 6.69015,-9.789587 7.64222,-12.267175 z m 4.38375,4.114495 c -0.85855,1.895498 -2.61005,7.434856 -5.07731,10.313321 -3.53102,4.119549 -3.71911,4.105389 -9.56324,5.100459 -5.96523,1.01569 -15.75803,0.0818 -15.89715,0.85235 l -0.0947,0.52232 c 3.20531,0.0905 18.71713,0.45075 23.00483,-2.69913 3.65562,-2.68556 7.41071,-10.535337 8.53581,-13.079461 z M 85.70445,88.732708 c -0.201579,0.594149 -0.668041,1.042613 6.7e-5,2.11509 0.586357,1.122769 1.317399,3.978829 0.692277,4.915351 0.0907,0.200712 0.554653,0.0041 0.77618,-0.262 1.299366,-1.415739 0.568984,-4.171907 -1.468524,-6.768441 z"
         sodipodi:nodetypes="sssssssssssssssccsscssssssssssscscsssssccssccsssccsssscssscscsssssccsssssssssscsssssssssssscscsssssssscscccsssccscsscssssccscccscccscccccccscc" /></g><g
       inkscape:groupmode="layer"
       id="f_bottom"
       inkscape:label="F Bottom"
       style="display:inline"><path
         id="path100"
         style="fill:url(#linearGradient102);fill-opacity:1;stroke-width:15.1181;stroke-linejoin:round;stroke-miterlimit:3.1;paint-order:stroke markers fill"
         d="m 437.42774,287.49414 c -28.01309,-0.10655 -55.54784,5.45453 -83.19336,9.1836 -14.74345,2.26389 -30.87334,6.25997 -42.10742,16.49023 l -7.04883,8.54688 c -6.90814,12.78782 -9.84111,27.3956 -11.37695,41.73242 1.71274,4.14483 7.79303,4.88037 9.65429,9.32813 2.7681,4.56207 0.82286,10.21445 2.4043,14.94335 4.02911,1.60915 5.21481,-4.61988 7.66211,-6.78125 4.31111,-5.64539 8.95285,-11.83053 8.3418,-19.37109 0.62632,-7.52132 1.34162,-15.74886 3.99609,-23.03516 -0.0885,0.51506 -0.0658,1.04637 -0.0977,1.57032 l 1.875,-5.35743 5.76563,-9.17382 11.00976,-6.6836 -0.49804,0.83985 1.32031,-1.6543 0.85742,1.27344 c 13.05962,-5.19234 27.98809,-5.39107 41.9336,-6.19141 27.33756,-0.0815 54.77709,-5.62849 81.99609,-4.07812 12.34799,0.75979 24.21415,5.31249 34.22656,12.43945 -0.16526,0.2476 -0.65808,0.14889 -1.82031,-0.69922 l 16.61524,17.65039 c -5.54659,-7.21433 -7.92158,-10.31579 -10.45899,-13.61914 5.53914,4.6492 10.39921,10.09804 14.14649,16.27734 6.28804,13.2621 6.83945,28.64908 8.91211,42.99415 7.63455,75.00765 2.16193,150.63388 -1.92969,225.74805 -0.51418,13.66541 -5.95869,27.7771 -17.56641,35.73046 -17.76604,12.88246 -40.68042,15.04498 -61.91601,17.92383 -28.99994,3.73268 -58.29457,2.38825 -87.53321,2.93555 -26.6714,-0.20229 -53.45111,0.66255 -80.03125,-0.97852 -19.7239,-2.07055 -40.32688,-6.72696 -55.56445,-20.46289 -7.93246,-6.946 -11.57609,-17.36773 -12.01563,-27.69336 -4.57865,-44.75432 -7.21064,-89.94467 -2.82226,-134.75586 1.06576,-9.70534 1.24783,-19.64612 3.45312,-29.11719 6.30328,-6.71024 16.2489,-6.38833 24.61523,-7.96289 3.12892,-2.74053 -1.52545,-6.26614 -1.84179,-9.43945 -2.01867,-4.9179 -2.31218,-10.3312 -3.48242,-15.36719 -4.03756,-3.77065 -10.41888,-1.40867 -15.21485,-0.58984 -2.80936,0.6572 -5.402,1.92678 -8.00586,3.125 -4.0569,-13.04875 -5.97661,-28.33068 1.70703,-40.49219 4.19388,-7.29206 12.20348,-11.79787 20.60157,-11.66797 8.31133,-0.62782 16.88145,-0.26108 24.75781,2.40039 4.45965,-2.49808 8.88142,-5.85513 13.96289,-7.50976 3.00213,-2.01003 8.29936,-0.82454 10.04102,-4.05274 -1.62971,-5.16452 -6.49034,-9.21929 -10.38282,-13.07031 -8.48485,-7.62158 -20.98482,-7.57397 -31.71289,-6.90234 -16.62532,1.27182 -32.63115,10.22267 -41.16601,24.76172 -15.83096,25.13566 -19.71195,55.65207 -20.26758,84.78515 -0.35629,41.08311 -0.79817,82.1967 0.53906,123.26368 1.72524,20.79285 3.10394,42.7596 13.58203,61.31836 6.77337,11.06954 18.70147,17.33235 27.77149,26.22851 8.96037,6.63272 17.85723,13.67899 23.99804,23.16016 8.38291,11.65025 10.81551,26.07127 14.83594,39.57422 4.76176,20.78816 0.69738,43.36739 10.47266,63.03906 8.82009,18.57197 19.54228,36.60556 33.74414,51.58399 13.83772,12.32956 32.84529,16.50049 50.73633,18.78515 17.9148,1.53485 36.12036,-0.83524 52.82422,-7.5957 13.30679,-5.0882 25.51962,-13.11014 35.9082,-22.81055 10.96845,-12.15125 20.21779,-27.86717 18.64453,-44.82617 0.16623,-7.30472 -2.53972,-14.14227 -3.65039,-21.23047 -1.08101,-10.29776 1.17237,-20.63153 6.06055,-29.7207 8.61343,-16.79328 16.24924,-34.76066 28.14062,-49.56446 8.07465,-9.98689 19.48219,-16.12899 30.44727,-22.33984 13.85076,-8.3028 21.90179,-23.26782 25.99023,-38.44727 7.40546,-22.41881 5.32848,-46.34668 5.75977,-69.5664 -0.0471,-30.03147 -2.26128,-60.01129 -0.16406,-89.99415 1.38256,-22.23123 2.21664,-44.54032 0.78711,-66.80859 -1.01266,-17.51269 -0.0611,-35.56392 -6.39453,-52.26367 -4.00715,-12.56453 -13.68546,-22.24742 -22.24415,-31.89258 -2.15499,-2.53603 -4.60495,-4.68977 -7.19531,-6.64258 l -11.57422,-7.4043 -4.59179,-1.78515 c 0.36488,0.34529 0.67057,0.75185 1.08203,1.04883 -6.33142,-2.41231 -12.9924,-4.10454 -19.50196,-5.41407 -15.75708,-2.80473 -31.819,-3.77094 -47.80859,-3.66797 z m -77.50391,68.66211 -0.62109,0.99024 c 0.1938,1.78404 0.2793,3.6867 0.22461,5.75976 0.35485,-2.24716 0.44671,-4.50283 0.39648,-6.75 z m -0.56836,7.67969 -4.88476,15.86524 -1.78906,1.05468 c -3.518,10.79289 2.64097,22.98915 10.81445,30.20313 4.22109,3.76397 8.65219,3.92119 7.89453,16.00781 0.55457,5.36403 -3.97887,-3.24482 -5.35742,-4.88672 -4.22764,-4.5879 -6.05303,-12.95661 -12.66406,-14.61914 -4.40836,2.18961 -7.08411,8.24966 -12.75977,10.6211 -4.60557,8.257 0.45457,18.14757 3.07031,26.27148 6.12982,13.66626 14.14367,26.39468 19.11719,40.56836 5.55432,12.28892 9.64963,25.46172 16.68555,36.97852 4.3428,4.81952 14.70566,8.38801 18.16406,0.8164 6.7004,-18.49897 9.10449,-38.25634 9.92187,-57.96875 0.53364,-12.86907 -7.49188,-22.17065 -12.78711,-33.08789 -1.08627,-2.2397 1.18602,-11.59399 -2.84375,-14.38281 -3.34326,1.78496 -5.6242,6.81882 -10.39843,6.98242 -2.76093,0.90282 -4.27395,-0.5956 -1.48242,-2.93359 4.66423,-6.7512 12.58508,-10.99864 14.76367,-19.46875 4.76987,-11.87313 -4.70349,-23.94361 -13.90821,-30.56641 -5.48319,-3.67458 -12.29376,-5.42727 -18.78906,-6.03125 -1.52528,0.18306 -2.57818,0.90085 -3.37695,1.90625 0.29025,-1.09673 0.40726,-2.21845 0.60937,-3.33008 z m -32.875,0.44336 c -1.42886,6.24799 -7.08303,11.82043 -6.36328,18.28711 l 0.60352,-3.25781 1.17968,-3.86719 3.53907,-5.96289 1.31054,-4.19531 z m -44.83984,9.1211 c -14.35596,1.28232 -22.53992,15.34359 -29.01758,26.59375 -5.76851,11.49935 -9.38349,26.5172 -2.55664,38.29492 4.43186,6.87576 13.31361,9.80588 19.51367,10.29492 1.36156,0.1074 6.32059,3.86213 8.87695,7.62891 0.89378,1.31696 1.44123,2.57752 1.4629,3.9375 0.38055,1.11114 -1.16147,3.85717 -0.32618,1.54492 -0.2524,0.0564 -1.6875,0.89062 -1.6875,0.89062 l -1.31836,-0.31445 c -4.2972,-4.09979 -8.26296,-8.81562 -11.49804,-9.7207 -4.21153,2.44173 0.46006,7.94035 0.99218,11.41601 3.17559,9.04903 6.78527,18.40463 15.00196,24.11914 8.94276,7.91 16.64714,19.25957 29.53515,20.58204 15.76174,3.17348 28.99911,12.15265 42.43751,20.48242 3.06064,2.98414 7.91254,-9.3e-4 6.24609,-4.09375 -6.0683,-19.05587 -21.54815,-34.12807 -24.96094,-54.2793 -4.57592,-22.45725 -5.10743,-47.51195 2.98633,-69.17774 -3.77009,-2.42801 -8.56634,-10.66373 -15.92969,-7.7539 -7.54867,-2.19361 -11.2381,3.13804 -13.33008,9.56445 -8.01537,16.50962 -17.99631,37.0299 -18.90234,45.65039 -1.38392,4.98185 -5.42829,4.24313 -6.0293,0.77344 -1.47447,-19.12782 5.40063,-27.31754 11.86328,-39.27344 5.15246,-10.13342 5.06878,-26.48148 -2.85547,-32.79883 -3.23785,-2.33759 -6.4913,-4.47229 -10.5039,-4.36132 z m 70.48242,7.68554 -0.95508,0.5625 c 0.236,-0.0186 0.61524,-0.0801 0.61524,-0.0801 l -0.008,0.0176 c 0.12038,-0.16347 0.23631,-0.33006 0.34765,-0.5 z m -21.11328,1.03906 -2.32031,1.00782 c 1.22288,-0.516 2.37472,-0.67271 3.36328,0.14453 z m 1.04297,1.15235 0.1875,0.20703 c -0.0635,-0.0625 -0.12251,-0.1533 -0.1875,-0.20703 z m 0.1875,0.20703 c 0.27886,0.27407 0.5509,0.58799 0.79883,1.04883 1.44841,2.79386 3.6522,8.39289 7.02343,9.29101 l -2.82812,-2.45898 -3.08008,-5.76563 z M 320.21289,383.125 c 0.0808,0.47821 0.0873,0.94632 0.2461,1.43555 0.2484,0.28362 0.52475,0.35893 0.78906,0.52539 z m 8.45508,0.0176 -5.54687,2.41016 c 1.7924,-0.20552 3.73941,-1.64204 5.54687,-2.41016 z m -7.17968,2.10352 c 0.42642,0.21313 0.86644,0.31812 1.32226,0.30664 z m 25.76171,1.4707 -1.75781,3.33789 -1.24414,1.44141 -1.90234,2.10937 c 0.48723,-0.17444 0.97428,-0.34693 1.50195,-0.73437 0.63008,-0.7327 1.11124,-1.58288 1.67773,-2.36524 0.58491,-1.30308 1.09399,-2.40041 1.72461,-3.78906 z m 108.59376,285.45899 c 3.65743,0.0723 7.31522,0.14451 10.97265,0.2168 3.02696,0.0642 6.16853,0.15431 9.13672,0.31836 -21.30721,6.66741 -43.88699,10.81425 -64.81836,19.17578 -9.60896,6.01814 -19.94188,12.11565 -31.93945,11.07226 -15.94736,0.28276 -31.62892,-3.47124 -47.39063,-5.41601 -2.3277,-0.84395 -10.32279,-0.64126 -8.65625,-2.30469 13.08604,-7.1996 27.72893,-11.10824 42.41602,-13.68945 19.99524,-1.49178 40.12125,-0.81514 60.12695,-1.90039 10.0677,-2.35001 20.00483,-5.79658 30.15235,-7.47266 z m -194.69141,3.19336 0.69922,0.25195 0.66992,0.24219 c 9.07927,3.94583 18.99044,5.59238 27.98242,9.68359 4.55172,1.69245 7.86211,8.84004 3.90039,12.48047 -6.75069,3.4197 -14.55676,0.31539 -18.75977,-5.21875 -4.96381,-5.36856 -9.40794,-12.17952 -14.49218,-17.43945 z m 191.58594,14.83008 -6.52149,11.10742 0.69532,-2.48242 c -6.60632,11.02321 -14.67996,21.64877 -27.04883,26.01367 -8.61279,2.00304 -18.46518,3.12036 -26.64258,-1.61914 -4.01241,-1.89711 -9.34105,-4.84283 -12.10938,-6.81055 10.69912,-1.04023 22.07387,-1.12172 31.89453,-5.95898 7.86234,-5.52279 15.29562,-11.98144 24.68555,-14.84766 3.57958,-1.33252 7.44235,-2.56419 11.20313,-3.86328 l 0.40234,-1.44141 z m -185.25586,12.72461 c 0.93107,0.46098 3.43605,1.67575 4.36718,2.13672 21.92516,10.69159 43.35183,25.33149 68.22461,27.53125 18.3516,2.21006 36.86899,2.92132 55.3418,2.44726 -12.36997,6.70426 -26.69169,8.33032 -40.02539,12.32422 -11.06166,2.50232 -22.62029,7.35864 -34.00391,3.82813 -12.17059,-5.7557 -23.81221,-12.88624 -33.79687,-21.9961 -7.65417,-7.10089 -15.93885,-16.79331 -20.10742,-26.27148 z m 187.1582,10.44726 0.004,0.71289 c -0.12413,12.72483 -3.70995,26.61123 -13.72071,35.15235 -1.55195,-0.29303 0.12836,-5.88997 -0.18945,-8.14649 1.05959,-7.56393 -0.66982,-16.64417 5.16016,-22.61718 2.48581,-2.3216 5.54508,-3.98839 8.74609,-5.10157 z m -169.47507,26.17331 c 1.25398,0.14359 1.9729,0.41116 2.79959,1.275 13.22207,8.55165 21.52617,16.89577 37.34736,20.52046 18.75064,4.97954 38.71314,8.51561 58.01172,4.74414 15.10865,-3.10329 31.22182,-8.68589 45.38335,-14.68791 3.39927,-1.62507 -0.83498,2.44683 -1.1523,3.71268 -4.34089,8.04161 -10.97796,15.28718 -19.18808,18.9557 -22.18754,11.07027 -48.4904,10.51741 -71.9043,4.81446 -13.8436,-3.80225 -28.07327,-8.8367 -38.51757,-19.07227 -6.00466,-6.61905 -8.29113,-10.91428 -12.27002,-18.87207 z m -2.7222,21.14505 0.26172,0.33008 c 6.78915,7.65846 13.52337,16.00601 22.58789,21.03906 5.11823,2.72523 12.17142,1.15761 15.76953,6.5586 1.18137,6.80511 -2.76036,15.31065 1.62891,21.63086 3.9004,4.57477 8.20795,8.86148 13.00391,12.49609 -5.43435,3.34079 -12.54389,7.07672 -18.63086,2.95508 -8.4098,-5.36238 -13.25334,-14.54456 -19.32032,-22.17188 -9.18867,-12.44889 -13.00973,-27.87467 -15.30078,-42.83789 z m 160.63086,0.76367 c 6.29219,8.52658 2.59413,19.93453 0.10938,29.20118 -2.59252,7.61929 -4.6404,15.56109 -7.66992,23.05273 l 0.30664,1.30664 c 0,0 -3.75435,8.15429 -5.14453,10.00781 -1.39019,1.85356 -7.41407,6.76563 -7.41407,6.76563 l -8.43359,3.89258 0.14648,-0.54688 c -9.22171,4.5304 -19.73345,6.83171 -29.74023,8.08399 -8.17166,0.8612 -17.07144,0.53635 -24.46289,-3.21875 -0.77697,-2.0688 -1.90464,-7.04947 1.55664,-6.28125 14.59491,-1.36602 29.7413,-1.98018 43.48633,-7.51367 13.26875,-7.15921 17.97071,-22.58314 24.68164,-35.03711 4.34075,-8.74192 8.20012,-17.71502 10.92578,-27.08399 0.44156,-0.80879 0.84967,-2.30816 1.65234,-2.62891 z m -30.94921,38.39844 c -9.13055,14.19309 -26.48106,22.736 -43.08594,22.92578 -10.70567,0.70172 -23.15387,-2.40413 -30.50977,-10.47461 -2.16129,-2.35062 -1.33725,-4.63312 1.14258,-3.7539 22.63393,4.10544 48.38422,3.87105 68.88477,-7.42188 0.88845,-0.41691 2.70259,-0.94249 3.56836,-1.27539 z"
         transform="scale(0.26458333)"
         sodipodi:nodetypes="scccccccccccccccccccccccccccccccccccccccccccccccccccccccccccccccccccccccccssccccccccccccccccssccccccccccccccccccssccccccccccccccccccccccccccccccccccccccccccccccccccccccccccccccccccccccccccccccccccccccccccccccccsccccccccccsccccccccccccccscccccccccccccccc" /><g
         inkscape:groupmode="layer"
         id="g124"
         inkscape:label="F Overlay Bottom"
         style="display:inline"><path
           style="opacity:0.717905;mix-blend-mode:normal;fill:#f6ceb6;fill-opacity:1;stroke-width:4;stroke-linejoin:round;stroke-miterlimit:3.1;paint-order:stroke markers fill;filter:url(#filter66)"
           d="m 103.68758,79.482259 c 7.21305,-1.456484 6.79692,-1.525839 13.38576,-1.525839 6.58884,0 7.90661,0.346781 9.01631,1.664549 1.1097,1.317771 3.25974,0.901632 -1.73391,0.55485 -4.99365,-0.346781 -2.21939,-1.179055 -10.68086,-0.208068 -8.46146,0.970989 -16.506781,2.288757 -14.634156,1.31777 1.872606,-0.970989 4.646856,-1.803262 4.646856,-1.803262 z"
           id="path103" /><path
           style="opacity:0.905405;fill:#f19c97;fill-opacity:1;stroke-width:4;stroke-linejoin:round;stroke-miterlimit:3.1;paint-order:stroke markers fill;filter:url(#filter62)"
           d="m 94.112118,79.840817 c -0.24521,0.04904 -5.24752,-0.44138 -7.99389,2.5502 -2.746367,2.991577 -4.609973,0.833718 -5.051354,5.786988 -0.44138,4.953269 -0.44138,8.631438 1.471269,5.00231 1.912649,-3.629128 -0.245211,-4.855184 3.825298,-7.748677 4.070509,-2.893494 7.699637,-3.236791 10.102707,-4.266679 2.403073,-1.029888 4.462842,-1.324142 1.275099,-1.667436 -3.187748,-0.343297 -3.629129,0.343294 -3.629129,0.343294 z"
           id="path104" /><path
           style="opacity:0.717905;fill:#eb3339;fill-opacity:1;stroke-width:4;stroke-linejoin:round;stroke-miterlimit:3.1;paint-order:stroke markers fill;filter:url(#filter63)"
           d="m 101.71367,117.21102 c -0.0981,0.78468 -1.961689,5.1004 -2.84445,3.8253 -0.882761,-1.2751 -1.961692,-10.49504 -3.629128,-5.29656 -1.667439,5.19848 2.648283,7.65059 3.432958,9.21994 0.784677,1.56936 0.882761,-1.66743 2.64828,1.37319 1.76553,3.04062 2.5502,12.16248 2.35403,4.70806 -0.19617,-7.45443 -0.88276,-6.66975 -0.68659,-8.63144 0.19617,-1.96169 0.68659,-5.59082 -0.29425,-5.19849 -0.98085,0.39234 -0.98085,0 -0.98085,0 z"
           id="path105" /><path
           style="opacity:1;mix-blend-mode:normal;fill:#6eaef2;fill-opacity:1;stroke-width:4.3537;stroke-linejoin:round;stroke-miterlimit:3.1;paint-order:stroke markers fill;filter:url(#filter42)"
           d="m 52.279063,100.04623 c -0.784678,4.80615 -3.334875,8.53336 -3.334875,15.79161 0,7.25826 2.550197,34.23151 2.550197,34.23151 0,0 2.059776,-15.00693 1.667439,-20.79392 -0.39234,-5.78699 -0.588508,-8.33719 -0.490424,-13.63375 0.09808,-5.29657 1.765522,-17.360969 1.765522,-17.360969 z"
           id="path110"
           transform="matrix(0.84411846,0,0,1,8.2656724,0)" /><path
           style="opacity:1;mix-blend-mode:normal;fill:url(#radialGradient44);stroke-width:4;stroke-linejoin:round;stroke-miterlimit:3.1;paint-order:stroke markers fill;filter:url(#filter43)"
           d="m 77.420918,107.57494 c -0.04904,-1.17701 1.422225,-3.18774 0.588507,-3.8253 -0.833718,-0.63755 -1.422225,-1.12797 -2.206903,0.6866 -0.784675,1.81456 -2.40307,2.2069 -1.569352,0.78467 0.833718,-1.42222 4.070509,-4.70806 1.863606,-3.87434 -2.2069,0.83372 -5.934115,0.73564 -5.492734,4.36476 0.44138,3.62913 1.569352,1.56936 1.078931,5.59082 -0.490424,4.02147 0.392337,8.28815 1.226055,5.49274 0.833721,-2.79541 2.304987,-6.08124 3.383918,-7.35634 1.078931,-1.2751 1.127972,-1.86361 1.127972,-1.86361 z"
           id="path111" /><path
           style="opacity:1;fill:url(#linearGradient46);stroke-width:4;stroke-linejoin:round;stroke-miterlimit:3.1;paint-order:stroke markers fill;filter:url(#filter44)"
           d="m 74.62732,100.08107 c -0.38146,-2.25406 -2.462145,-0.208075 -4.958971,3.53716 -2.496825,3.74524 -4.196053,2.2194 -3.294422,6.24206 0.901631,4.02266 1.976652,3.22507 3.016996,1.9073 1.040345,-1.31777 -1.283089,3.017 1.49116,-2.18472 2.774249,-5.20172 6.068671,-7.62919 3.67588,-3.67588 -2.392788,3.9533 -5.548497,6.31142 -2.531501,4.33476 3.016996,-1.97665 6.900947,-5.72189 4.369442,-6.62352 -2.531504,-0.90163 -6.276739,2.77425 -4.716224,0.55485 1.560515,-2.2194 3.217796,-2.49566 2.94764,-4.09201 z"
           id="path112"
           sodipodi:nodetypes="ssssssssss" /><path
           style="opacity:1;mix-blend-mode:normal;fill:#f6b6ad;fill-opacity:1;stroke-width:4;stroke-linejoin:round;stroke-miterlimit:3.1;paint-order:stroke markers fill;filter:url(#filter50)"
           d="m 135.66082,83.921057 c 1.59519,2.080688 7.14369,2.080688 7.14369,8.11468 0,6.033995 -0.90163,4.854938 0.34678,10.334083 1.24841,5.47914 3.74524,11.7212 3.05168,4.4388 -0.69357,-7.282407 -2.91297,-15.258375 -3.12104,-16.784213 -0.20806,-1.525837 -2.70489,-5.271074 -5.13236,-6.866269 -2.42747,-1.595194 -2.28875,0.762919 -2.28875,0.762919 z"
           id="path114" /><path
           style="opacity:0.684122;fill:#f6b6ad;fill-opacity:1;stroke-width:4;stroke-linejoin:round;stroke-miterlimit:3.1;paint-order:stroke markers fill;filter:url(#filter51)"
           d="m 102.0809,118.55006 c -2.22407,4.48659 0.44352,11.9309 -2.721394,7.02979 -3.164914,-4.90111 -2.727507,-3.7526 -3.879866,-6.93236 -1.152359,-3.17977 -3.80281,-9.51235 -3.104634,-3.23621 0.698179,6.27613 2.534689,7.52423 3.808202,9.58148 1.273518,2.05726 1.406778,7.33394 3.04376,6.02364 1.636982,-1.31031 0.07765,-7.0323 1.935132,-1.05529 1.85749,5.97702 -1.13509,13.09752 2.13504,6.85974 3.27012,-6.23779 5.35242,-8.97416 3.06963,-9.70049 -2.28279,-0.72633 1.00831,-2.23522 -0.8669,-4.87164 -1.87522,-2.63643 -3.41897,-3.69866 -3.41897,-3.69866 z"
           id="path115" /><path
           style="opacity:0.684122;fill:#9dc4e8;fill-opacity:1;stroke-width:4;stroke-linejoin:round;stroke-miterlimit:3.1;paint-order:stroke markers fill;filter:url(#filter52)"
           d="m 85.137383,108.28534 c -3.138704,4.11955 -4.904226,8.04293 -5.100397,10.20079 -0.196167,2.15786 -0.588507,3.1387 -2.354029,5.49273 -1.76552,2.35403 -3.629126,0.58851 -3.629126,0.58851 0,0 1.863606,5.19848 4.11955,5.78699 2.255946,0.5885 2.157859,-7.6506 3.825298,-4.90423 1.667436,2.74637 3.629128,7.16017 3.727212,6.57167 0.09808,-0.58851 2.648283,-3.53105 0.882761,-6.96401 -1.765523,-3.43296 -3.138705,-6.17932 -2.746367,-10.00462 0.392337,-3.8253 1.275098,-6.76783 1.275098,-6.76783 z"
           id="path116" /><path
           style="opacity:1;mix-blend-mode:normal;fill:#85b4e5;fill-opacity:1;stroke-width:4;stroke-linejoin:round;stroke-miterlimit:3.1;paint-order:stroke markers fill;filter:url(#filter126)"
           d="m 52.262234,136.80907 c 0,0 -3.727215,6.27741 -2.35403,14.12417 1.373182,7.84677 3.138705,19.81308 4.119549,15.8897 0.980848,-3.92338 -0.196167,-9.02378 -0.588504,-13.92801 -0.39234,-4.90422 -1.177015,-16.08586 -1.177015,-16.08586 z"
           id="path126" /><path
           style="opacity:1;fill:url(#radialGradient128);fill-opacity:1;stroke-width:4;stroke-linejoin:round;stroke-miterlimit:3.1;paint-order:stroke markers fill;filter:url(#filter127)"
           d="m 78.663804,185.87021 c 0.259287,1.73109 2.15786,3.04062 4.31572,2.99158 2.157859,-0.0491 -0.245211,0.34329 2.84445,1.2751 3.089664,0.9318 8.288145,3.23679 9.318032,1.96169 1.029888,-1.2751 -2.010732,-1.56935 -0.980844,-2.10882 1.029888,-0.53947 5.296564,-0.88276 1.961689,-1.52031 -3.334874,-0.63755 -6.375495,-0.98084 -8.876649,-1.02989 -2.501156,-0.049 -5.39465,-1.71648 -4.757102,-2.50115 0.63755,-0.78468 2.010735,-2.79541 4.462849,-3.8253 2.452113,-1.02989 8.337184,-1.81457 3.531041,-2.40307 -4.806143,-0.58851 -8.680481,-2.50116 -8.190058,-0.39234 0.490422,2.10882 -1.765522,-0.78468 -2.746367,0.73563 -0.980847,1.52031 2.648281,2.10882 1.667436,3.58009 -0.980844,1.47127 -2.753665,1.87837 -2.550197,3.23679 z"
           id="path127"
           sodipodi:nodetypes="scsssscsssssss" /><path
           style="opacity:0.326014;fill:#ecbaa8;fill-opacity:1;stroke-width:4;stroke-linejoin:round;stroke-miterlimit:3.1;paint-order:stroke markers fill;filter:url(#filter128)"
           d="m 109.86029,194.47491 c -2.15004,0.62421 -4.4388,2.35811 -6.6582,2.7049 -2.2194,0.34678 -11.02764,2.8436 -8.946951,3.19038 2.080686,0.34679 7.906611,0 10.888931,-1.24841 2.98232,-1.24841 8.32275,1.24841 7.2824,-1.73391 -1.04034,-2.98231 -2.56618,-2.91296 -2.56618,-2.91296 z"
           id="path128" /><path
           style="opacity:0.326014;mix-blend-mode:normal;fill:#d1b8ef;fill-opacity:1;stroke-width:4;stroke-linejoin:round;stroke-miterlimit:3.1;paint-order:stroke markers fill;filter:url(#filter129)"
           d="m 108.18725,207.93924 c -4.11955,0.98084 -10.59313,1.96169 -11.475891,1.96169 -0.882762,0 -10.789299,-3.04062 -10.593131,-2.64829 0.19617,0.39234 1.471268,4.80615 4.609975,4.70806 3.138705,-0.0981 2.550197,-0.49042 6.571663,-0.0981 4.021464,0.39234 7.062084,-1.07893 9.514204,-1.76552 2.45211,-0.6866 5.19848,-2.15786 4.80614,-2.5502 -0.39234,-0.39234 -3.43296,0.39234 -3.43296,0.39234 z"
           id="path129" /></g></g><g
       inkscape:groupmode="layer"
       id="jantung_f"
       inkscape:label="Jantung F"
       style="display:inline"><path
         id="path68"
         style="opacity:1;fill:url(#radialGradient126);fill-opacity:1;stroke-width:4;stroke-linejoin:round;stroke-miterlimit:3.1;paint-order:stroke markers fill"
         d="m 96.564132,93.818046 -1.548743,0.288355 0.01602,0.202054 c 0,0 -0.07338,1.532407 -0.07338,1.728577 0,0.19617 -0.576192,1.765267 -0.576192,1.765267 l -0.956531,2.636011 -1.201477,0.84646 -0.772046,1.67949 -0.551904,0.99322 -0.993221,0.0982 -0.661975,-0.78496 -0.637687,-1.33635 -0.514698,-0.90744 -0.882633,-0.15917 -1.545125,0.91933 -0.478007,0.0615 -0.269751,-0.38033 -0.06149,-1.0418 0.404626,-1.066603 0.980819,-1.44694 0.441317,-1.373043 -0.114722,-0.287321 -1.319816,0.691947 -0.945162,1.385445 -3.394625,5.443595 c 0,0 0.03669,-1.28725 0.03669,-1.91254 0,-0.62529 -1.054716,-3.997176 -1.054716,-3.997176 l -5.41879,-1.93735 -4.720643,1.790072 -4.450374,4.328414 -2.942456,6.46111 -0.171566,3.18792 1.152385,4.95318 2.746085,2.20659 0.735873,4.63486 3.33468,4.56096 3.2613,6.25285 6.669877,5.86062 7.47913,2.62361 5.737634,-0.66197 13.314952,4.58525 c 0,0 2.13341,-0.66198 2.32958,-0.66198 0.19612,0 1.71669,-3.01635 1.71669,-3.01635 l -0.0982,-6.93911 1.22577,-3.94808 0.41702,-3.70262 -1.12809,-4.24212 -0.90692,-5.90971 -1.27538,-3.65353 -1.27486,-1.05471 -1.64279,-2.01073 -0.22117,-2.15749 0.98133,-3.8499 0.094,-0.38189 -0.41289,-3.90932 -1.1281,-3.089732 -2.7218,-3.432866 z m -1.373043,2.905766 1.716691,0.379822 2.402954,0.625284 1.079006,0.564307 1.69188,1.262455 1.36064,1.50844 -0.0403,0.1173 c 0.005,-0.001 0.0403,-0.007 0.0403,-0.007 l 0.87075,1.69188 0.28164,2.08463 -0.53899,1.71617 -0.67437,1.25057 -0.6625,0.85835 -1.56889,1.53272 -0.73587,1.00511 c 0,0 -0.10718,0.20325 -0.19999,0.41393 l -0.0724,0.57516 c 0.0767,0.1442 0.23111,0.28421 0.4563,0.34106 0.31571,0.0797 0.56409,0.003 0.94723,-0.0889 0.38314,-0.092 0.80301,-0.4197 0.97772,-0.56069 0.17471,-0.141 1.13106,-1.26887 1.20768,-1.28726 0.0766,-0.0184 0.27595,-0.046 0.27595,-0.046 l 0.0579,0.56068 -0.0336,1.39165 0.16846,1.39475 0.25167,0.60358 0.88263,1.33067 0.71417,1.22266 0.90744,1.6707 0.33073,0.83354 0.18087,0.89814 0.14107,1.28726 0.0646,1.02371 0.0734,2.1916 -0.22118,1.80454 0.0987,0.30747 -0.54621,2.99103 -0.20774,1.17047 -0.19948,0.5116 -0.71985,3.21634 -0.43305,1.88981 -0.23409,0.35553 -0.38189,1.11828 -0.26872,0.50281 -1.32601,0.24288 -1.82108,-0.46819 -1.01389,-0.77153 -1.135851,-2.50527 -1.239718,-3.0086 -1.118278,-2.37557 -1.430404,-3.53725 -1.092439,-2.96468 -1.997811,-3.27318 -1.397848,-2.96726 -0.857828,-2.59933 -0.441834,-2.48873 0.134876,-0.89504 0.613399,-0.98082 c 0,0 0.318569,-0.42905 0.428914,-0.44131 0.110344,-0.0122 1.054623,-0.40497 1.091406,-0.47853 0.03678,-0.0736 0.576193,-0.98082 0.576193,-0.98082 l 0.79685,-0.45372 0.68678,0.23307 0.698665,0.79685 1.005107,1.66759 0.932243,1.32447 0.895036,1.45883 0.551387,0.26975 0.343648,-0.62529 c 0,0 0.146853,-1.61832 0.110071,-1.69188 -0.03678,-0.0736 -0.367936,-1.36116 -0.367936,-1.36116 l -2.206584,-1.92495 -0.76016,-0.76016 -0.784965,-0.90692 -0.821138,-1.64331 c 0,0 -0.392367,-1.91266 -0.404627,-2.14561 -0.01225,-0.23295 -0.0739,-1.63039 -0.0739,-1.63039 l 0.257865,-0.35553 0.05013,0.0506 0.603581,-0.752407 0.901754,-2.132686 z m -20.841105,2.568319 1.794722,0.450618 1.300179,0.945161 1.031979,1.69034 -0.164848,-0.15607 0.207739,0.67645 0.199471,1.53479 -0.294556,2.34042 -0.390157,1.50844 -1.18339,1.81643 -0.797884,1.46502 -1.080038,2.48409 -0.416512,1.5937 -0.0739,1.63091 0.318844,1.97404 c 0,0 0.508688,0.90096 0.882633,0.87643 0.373949,-0.0245 0.570303,-0.25764 0.68678,-0.5948 0.116475,-0.33717 0.263904,-1.56935 0.294556,-1.69808 0.03065,-0.12874 0.723005,-1.90039 0.772046,-2.01073 0.04904,-0.11035 1.269173,-2.79518 1.269173,-2.79518 l 1.71049,-3.54966 c 0,0 1.422063,-2.83223 1.728576,-3.31039 0.306515,-0.47816 0.980819,-1.81436 0.980819,-1.81436 l 0.306441,-0.19637 0.106454,0.0372 c 0,0 0.561608,0.28805 1.266589,0.30644 0.704984,0.0184 2.023132,-0.11679 2.023132,-0.11679 0,0 0.502779,0.30042 0.72347,0.5395 0.220689,0.23908 0.508556,0.80922 0.692465,0.89504 0.183906,0.0858 0.827856,0.44752 0.827856,0.44752 0,0 -0.582717,1.07889 -0.834058,1.91874 -0.25134,0.83985 -0.33693,1.15239 -0.33693,1.15239 0,0 -0.45379,2.0048 -0.45992,2.2071 -0.0061,0.2023 -0.293898,2.63603 -0.281637,2.90576 0.01225,0.26973 -0.0124,2.04742 -0.0124,2.04742 0,0 -0.0365,2.1054 0.171566,2.69493 0.208067,0.58953 0,0.48576 0,0.48576 l 0.450618,2.84324 0.555005,2.80913 0.242363,1.00562 1.057816,2.86081 2.115633,3.6065 1.265556,2.08101 0.971,1.54305 0.589628,1.76837 0.329179,0.95395 -0.05168,0.93638 -0.416512,0.12144 -0.849561,-0.45114 -1.473812,-0.78031 -3.902604,-2.5368 -2.108398,-1.04231 -2.391069,-0.78445 -3.29799,-0.82166 -0.993221,-0.34313 -1.409733,-1.079 -3.237012,-3.43287 -1.458825,-1.20148 -0.65009,-0.4904 -0.330729,-0.33125 -0.417029,-0.96842 -0.809253,-2.46445 -1.348755,-3.35948 c 0,0 0.585568,-0.19128 0.784965,-0.10025 0.199401,0.091 0.567924,0.26871 0.567924,0.26871 l 0.598414,0.61599 0.606681,0.81493 c 0,0 0.437767,0.57643 0.559139,0.6718 0.121375,0.0954 0.481336,0.20805 0.498677,0.21239 0.01733,0.004 0.814858,-0.31671 0.905888,-0.56379 0.09103,-0.24708 0.07803,-0.71934 0.07803,-0.71934 l -0.307992,-0.70228 -1.000972,-1.22266 -1.413351,-1.11363 -0.52865,-0.13023 -0.745691,-0.11265 -1.335319,-0.55035 -0.972033,-0.55604 -1.397331,-1.1529 -0.932243,-1.36064 -0.490409,-2.40296 0.257865,-1.94975 0.441317,-1.77767 1.005107,-2.2071 2.217952,-3.36155 2.037085,-2.48822 1.482597,-0.806155 z" /></g><g
       inkscape:groupmode="layer"
       id="o_bottom"
       inkscape:label="O Bottom"
       style="display:inline"><path
         style="fill:#000000;fill-opacity:1;stroke-width:4;stroke-linejoin:round;stroke-miterlimit:3.1;paint-order:stroke markers fill"
         d="m 65.74972,119.22339 c 0,0 0.242747,0.48549 0.381459,1.7339 0.278795,2.50917 0.624207,3.37148 2.046009,5.00134 2.851826,3.26916 2.25408,5.06301 4.577513,7.73323 2.323436,2.67021 2.531504,4.68154 6.623523,6.58884 4.092017,1.9073 4.681546,2.63554 8.496139,2.84361 3.814593,0.20807 3.779917,-1.24842 7.975967,0.52017 4.19605,1.76858 9.25906,3.98798 11.96395,3.15571 2.7049,-0.83228 4.02267,-3.43314 3.67589,-5.96464 -0.34679,-2.5315 -0.27743,-5.09768 0.0694,-6.86627 0.34678,-1.76858 1.07502,-2.11536 0.97099,-5.16704 -0.10404,-3.05167 -1.14438,-3.68357 -1.56052,-7.22074 -0.41614,-3.53717 0.27743,-3.53718 -1.62987,-6.62353 -1.90729,-3.08635 -3.47749,-2.05406 -3.02295,-5.35653 0.39408,-2.8632 0.63495,-3.41315 0.6631,-4.62307 0.19867,-8.538414 -3.62524,-12.584641 -11.806164,-11.642203 -0.06936,0 0.06936,1.09236 0.06936,1.09236 3.44809,-0.290121 6.432164,-0.02386 8.795104,2.641278 2.29488,2.969855 2.05378,5.064185 2.37982,7.745335 0.30451,2.50413 -2.05259,4.92938 -0.42419,7.55583 0.53751,0.86696 2.25356,1.82409 2.6697,2.60435 0.41613,0.78025 1.19641,2.87828 1.21373,3.51983 0.0173,0.64154 0.43344,3.38111 0.64155,4.52549 0.20807,1.14438 0.4149,1.89858 0.8137,3.32039 1.11425,2.50994 0.17693,4.81064 -0.70915,7.22945 -0.41614,1.14438 -0.52069,4.47348 -0.38198,5.73923 0.57906,5.2836 -2.43389,6.83958 -3.13837,6.88361 -2.84793,0.17799 -7.08624,-2.36256 -9.883262,-2.96498 -1.127038,-0.24275 -3.259742,-1.54318 -5.652533,-1.30043 -2.392792,0.24275 -3.502491,0.74558 -5.305753,0.29477 -1.803263,-0.45082 -6.380774,-2.73958 -8.51348,-4.45614 -2.132705,-1.71657 -5.061628,-5.76144 -5.860602,-7.12636 -1.664549,-2.84361 -1.779512,-4.77747 -3.173048,-5.73923 -2.012683,-1.38906 -1.233664,-3.46211 -2.566183,-6.4925 z"
         id="path7"
         sodipodi:nodetypes="csssssssscsssssscsassscsssssssssscc" /><path
         id="path8"
         style="fill:#000000;fill-opacity:1;stroke-width:4;stroke-linejoin:round;stroke-miterlimit:3.1;paint-order:stroke markers fill"
         d="m 71.758049,99.270029 c -1.496587,0.805861 -1.298201,0.887731 -2.020187,1.677811 -3.816178,4.17608 -5.724563,9.37909 -4.647261,13.28188 0.539371,1.954 2.445032,3.48377 4.300512,4.3 0.730769,0.32147 1.440218,0.15088 2.147408,0.52124 1.015756,0.53195 2.007259,1.2209 2.325704,2.32251 0.07411,0.25637 -0.02418,0.77306 -0.28994,0.79737 -1.214139,0.11105 -2.056453,-2.76452 -3.171351,-2.67994 -0.799641,0.0607 -1.636076,0.16588 -1.636076,0.16588 -0.574937,1.22488 -0.13767,1.03143 0.208773,0.94464 0.184887,0.34246 2.276952,4.22187 2.699577,5.41931 0.44138,1.25058 0.196232,1.37278 1.569413,2.37815 1.373183,1.00537 4.242287,5.37017 6.669877,6.08128 2.42759,0.71112 3.775888,0.53942 6.939111,1.96164 3.163226,1.42223 8.76285,5.57504 8.778793,4.3403 0.01796,-1.39114 -0.979802,-5.0274 -2.035018,-6.81663 -1.142346,-1.93697 -4.144236,-6.6452 -4.438489,-8.53333 -0.294254,-1.88813 -1.274959,-4.73892 -1.373043,-6.18567 -0.09808,-1.44674 -0.392713,-7.23401 0.637171,-10.07846 1.029887,-2.84445 1.311954,-3.2367 1.311954,-3.2367 0,0 -0.993099,-0.11051 -1.434478,-0.7971 -0.441381,-0.68659 -0.245134,-1.53216 -0.980768,-1.43408 -0.735634,0.0981 -2.354051,0.56377 -3.040642,0.0734 -0.68659,-0.49043 -0.808986,-0.63743 -1.054199,-0.39222 -0.24521,0.24521 -3.089821,5.68876 -3.678328,6.91482 -0.588507,1.22605 -1.86362,4.19308 -2.280481,5.00228 -0.416859,0.8092 -0.827508,1.17196 -0.901073,2.76581 -0.01683,0.3646 -0.07126,1.39967 -0.448249,1.55491 -0.294765,0.12137 -0.925123,0.17659 -0.890444,-1.5053 0.03468,-1.68189 -0.121723,-2.9479 0.779907,-4.78584 1.646164,-3.35565 2.357396,-3.93437 2.627128,-4.91552 1.247962,-3.55652 1.338149,-7.9666 -2.718345,-9.573609 -1.248167,-0.449951 -3.121333,-0.01879 -3.956956,0.431168 z m 1.882133,0.148631 c 1.247976,-0.161142 6.549486,0.65918 4.177664,8.67278 -0.290032,0.97993 -3.011917,4.57865 -3.363993,7.52528 -0.127061,1.0634 -0.05072,1.90534 0.107487,2.88664 0.141511,0.87772 0.655244,1.93256 1.458926,1.62618 0.584557,-0.22285 0.661987,-1.79434 0.810429,-2.40217 0.196593,-0.80499 1.023125,-1.91776 1.500682,-2.89377 1.095805,-2.23957 1.928024,-4.80746 3.129559,-6.79368 1.201533,-1.98621 1.543338,-3.92336 2.082802,-3.75171 0.539464,0.17165 0.969826,0.31471 1.863552,0.29424 0.883889,-0.0202 1.287288,-0.33081 1.789972,0.12277 0.837647,0.75583 0.08059,0.48145 0.434534,0.90379 0.188477,0.22489 0.589518,1.09577 0.589518,1.09577 0,0 -1.401879,3.36169 -1.38726,8.91191 0.0084,3.19445 0.232287,4.8783 1.297576,9.66543 1.134944,5.10015 5.152722,9.73561 5.915343,11.84282 0.73551,2.03231 1.590625,3.88172 -1.040247,2.21951 -3.418904,-2.16011 -5.4706,-3.86013 -9.63197,-4.90048 -4.161371,-1.04034 -3.823031,-0.44015 -7.082772,-4.11603 -3.25974,-3.67587 -3.675757,-2.14986 -4.646745,-5.34024 -0.812349,-2.66916 -1.566134,-4.26365 -1.801957,-4.73718 0.173859,-0.10542 0.359772,-0.18616 0.51108,-0.17673 1.550778,0.0966 2.053865,3.13501 3.441952,2.44361 0.517758,-0.2579 0.724273,-0.71932 0.549064,-1.31933 -0.342171,-1.17177 -2.345345,-3.02258 -3.199738,-3.088 -1.746841,-0.13374 -4.648687,-1.84742 -5.361024,-3.94962 -1.224514,-3.61371 0.537075,-7.3076 3.189986,-10.99312 2.006381,-2.78736 2.511671,-3.470551 4.66558,-3.74867 z"
         sodipodi:nodetypes="ssssssscccssssssssscsscssssssssasssssssacsscsssssssccsssssass" /><path
         id="path9"
         style="fill:#000000;fill-opacity:1;stroke-width:4;stroke-linejoin:round;stroke-miterlimit:3.1;paint-order:stroke markers fill"
         d="m 86.55544,95.741443 c -0.221133,-0.01196 -0.310972,0.503381 -1.039213,0.837158 -0.832275,0.381461 -1.560367,2.35814 -2.704744,3.571879 -1.144377,1.21372 -2.150257,3.71036 -2.150257,3.71036 0,0 0.03457,0.76305 0.06925,0.90176 0.03468,0.13871 4.369477,-7.594283 5.201749,-7.975743 0.832276,-0.381461 -0.381175,1.039986 -0.83199,2.184363 -0.450816,1.14438 -1.005687,2.46243 -0.312126,3.08663 0.693561,0.62421 1.976371,-0.31221 2.461866,-0.58962 0.485491,-0.27743 1.560531,1.97641 2.600874,3.08611 1.040341,1.1097 2.11568,-2.73922 2.739885,-3.15536 0.624207,-0.41614 0.0347,0.72807 0.312125,2.39262 0.277424,1.66455 0.537139,1.71677 1.213363,2.80913 0.676221,1.09236 2.791852,2.75683 3.589445,3.64112 0.797596,0.88429 0.415875,1.8723 0.277162,2.39247 -0.138713,0.52017 -0.846088,-0.8661 -1.296902,-1.55966 -1.063306,-1.33515 -1.677905,-2.96339 -3.363619,-3.55482 -1.09236,-0.36412 -0.847385,1.15491 -1.659117,1.76841 -0.636595,0.48113 -0.826484,-0.1147 -1.378655,0.22509 -0.450816,0.27742 -0.758868,1.11708 -0.907823,1.40751 -1.004962,1.9594 1.564999,9.64407 3.165445,11.02003 0.853138,0.73347 0.571943,1.36458 0.977201,2.47633 0.830087,2.27718 1.04037,1.76882 1.942001,4.09226 0.90163,2.32343 0.797393,2.53158 2.739367,5.826 1.941963,3.29442 0.880019,5.30557 4.384743,5.77846 2.2889,0.30884 2.72696,-0.0407 3.03651,-1.16634 0.4712,-1.71345 1.59527,-3.74552 2.56625,-8.63513 0.97099,-4.88961 -0.0351,-9.32794 -0.69402,-11.72073 -0.65889,-2.39279 -2.38466,-2.524 -2.83548,-5.05551 -0.45081,-2.5315 0.58926,-4.88961 -0.48576,-3.91862 -1.07502,0.97098 -1.3523,1.52569 -2.04587,2.04587 -0.69356,0.52017 -2.426616,1.27919 -0.97014,-0.59343 1.45648,-1.87261 2.10267,-1.66512 3.21318,-4.05911 1.41505,-3.05052 0.42732,-3.89435 -0.33566,-5.5427 -0.84062,-1.816094 -2.66442,-3.097167 -4.412651,-4.071074 -1.454416,-0.810228 -4.812109,-1.338937 -4.812109,-1.338937 l -0.0098,0.847494 c 0.785296,-0.112276 1.668537,0.193521 3.981153,0.75861 1.607127,0.3927 4.034417,2.500247 4.658627,3.713987 0.6242,1.21373 0.76444,1.35069 0.94155,2.41329 0.39882,2.39279 -1.45668,4.69896 -1.83814,5.01106 -0.38145,0.31211 -1.52591,1.42187 -1.87269,1.94205 -0.34678,0.52016 -0.944859,1.49974 -0.35533,1.81185 0.58953,0.3121 0.87583,0.25116 1.74278,-0.16497 0.86696,-0.41614 1.78623,-2.11025 1.92495,-1.59008 0.13871,0.52017 -0.29519,2.6652 0.43305,3.80958 0.72824,1.14437 2.66245,4.11895 2.93987,5.54075 0.27743,1.4218 0.34675,4.12698 0.34675,4.71651 0,0.58953 -0.72814,6.13765 -1.04025,6.76186 -0.3121,0.62421 -0.72822,4.12714 -1.31775,5.27151 -0.58953,1.14438 -0.33704,1.82192 -1.04024,2.01125 -0.90163,0.24274 -2.91323,0.0691 -3.74551,-1.14464 -0.832271,-1.21373 -1.248513,-2.73957 -2.219501,-4.88962 -0.970986,-2.15004 -2.565943,-6.13776 -3.086116,-7.35149 -0.52017,-1.21373 -0.346732,-1.6299 -1.664498,-3.57187 -2.771213,-4.08388 -4.147209,-9.5365 -3.499661,-10.63732 0.245218,-0.41687 0.356323,-0.75253 0.652289,-1.03174 0.314193,-0.2964 0.595036,-0.35402 1.133741,-0.62751 0.576785,-0.29284 0.46761,-0.76429 1.105988,-1.2608 1.324141,-1.02988 2.197652,1.84911 3.129453,2.92804 0.931803,1.07893 1.002371,1.84615 1.688962,2.38562 0.68659,0.53945 0.996259,-0.87771 0.849132,-2.54515 -0.147127,-1.66743 -1.274932,-1.76527 -2.599073,-3.13846 -1.324137,-1.37318 -1.839251,-1.70428 -2.427758,-4.20543 -0.588507,-2.50115 -0.147278,-3.48195 -0.147278,-3.48195 0,0 -0.729414,0.34032 -1.022677,0.60719 -0.899472,0.81853 -1.730842,3.13291 -2.149739,2.94763 -1.059225,-0.4685 -1.284639,-2.80224 -2.600875,-3.12074 -0.805487,-0.19491 -2.134497,0.9548 -2.288749,0.971 -0.517315,0.0545 -0.453336,-0.63828 -0.451136,-1.00563 0.0084,-1.37568 1.457566,-2.397907 1.734261,-3.745504 0.08141,-0.396472 0.1714,-1.080383 -0.03462,-1.213362 -0.03919,-0.02529 -0.07383,-0.03808 -0.10542,-0.03979 z"
         sodipodi:nodetypes="ssscsssssssssssssssssssssssssssssssccsssssssssssssssssssassssssscsssccssss" /><path
         id="path13"
         style="fill:#000000;fill-opacity:1;stroke-width:4;stroke-linejoin:round;stroke-miterlimit:3.1;paint-order:stroke markers fill"
         d="m 90.282861,84.80671 -0.709517,0.05064 c 0.08417,0.08781 0.16114,0.172223 0.242879,0.258899 z m 5.115967,8.450647 c -0.142018,0.362092 -0.280848,0.7023 -0.363285,0.841809 -0.01961,0.03319 -0.05195,0.06169 -0.09354,0.0863 0.0979,1.773062 -0.489379,3.147943 -0.932242,4.449341 -0.637396,1.873043 -1.00304,2.243793 -1.00304,2.243793 l 0.10387,0.38137 c 2.081834,-1.665043 2.532312,-5.635841 2.288232,-8.002612 z" /><path
         style="fill:#000000;fill-opacity:1;stroke-width:4;stroke-linejoin:round;stroke-miterlimit:3.1;paint-order:stroke markers fill"
         d="m 81.017834,103.57728 c 0,0 1.013056,-4.92803 -1.29193,-6.350255 -2.304987,-1.422225 -4.752996,-2.104561 -6.933829,-1.647122 -5.216371,1.094156 -9.188104,6.804537 -10.840808,11.871717 -1.089668,3.34091 -0.03664,7.4523 1.803687,10.446 0.603175,0.9812 2.844451,1.96169 2.844451,1.96169 0.14432,-0.27765 0.679391,0.0588 0.245211,-1.12797 0,0 -2.043805,-0.95363 -2.599241,-1.86361 -1.567055,-2.56732 -2.229624,-6.05743 -1.324141,-8.92569 1.573469,-4.98421 5.645897,-10.448519 10.7893,-11.377808 2.345445,-0.423765 5.71035,0.864807 6.424539,3.138707 0.690582,2.198731 0.123042,6.305221 0.539464,5.541781 0.208602,-0.45308 0.786159,-0.50367 0.343297,-1.66744 z"
         id="path14"
         sodipodi:nodetypes="cssssccsaascc" /><path
         style="fill:#000000;fill-opacity:1;stroke-width:4;stroke-linejoin:round;stroke-miterlimit:3.1;paint-order:stroke markers fill"
         d="m 69.148178,98.312479 c 0,0 -1.81534,-1.344318 -4.404124,-1.283092 -3.092952,0.07315 -5.125521,0.27101 -7.550394,2.529039 -2.320588,2.160924 -2.783685,5.550954 -2.506262,8.151814 0.277426,2.60086 0.686157,5.20236 1.387126,4.82027 0.673643,-0.3672 0.595133,-0.6618 2.878285,-1.14438 2.344999,-0.49565 3.259744,0.24275 3.259744,0.24275 l -0.03468,-1.07502 c 0,0 -0.595861,-0.30948 -2.184723,-0.4855 -2.195148,-0.24318 -2.463691,0.7773 -3.675878,1.28309 -0.675791,-0.20274 -1.021234,-6.16004 -0.06936,-8.01064 0.939603,-1.82674 0.901632,-4.196057 5.409788,-4.854941 4.508156,-0.658884 6.831589,0.589529 6.831589,0.589529 z"
         id="path17"
         sodipodi:nodetypes="csssssccscsscc" /><path
         id="path18"
         style="fill:#000000;fill-opacity:1;stroke-width:4;stroke-linejoin:round;stroke-miterlimit:3.1;paint-order:stroke markers fill"
         d="m 122.04371,81.177991 c -4.3715,-0.05315 -8.94851,0.706961 -13.21883,1.016992 -7.26489,0.52744 -16.088446,-1.198555 -21.327731,3.746234 -2.99011,2.822038 -2.899212,12.241421 -2.899212,12.241421 l 0.675411,-1.170472 c 0,0 0.290986,-7.898254 2.92902,-10.305314 5.043622,-4.602025 13.318252,-3.342663 20.132102,-3.776513 7.56639,-0.481766 16.12427,-2.437835 22.70663,1.324467 4.07498,2.329155 8.27243,7.247417 8.49672,12.197354 1.08872,24.02851 2.93349,48.61776 -0.9641,68.61558 -0.79156,4.06135 -7.68381,8.33961 -16.57134,9.43139 -12.90022,1.58472 -18.01384,1.15111 -39.724196,0.8933 -18.335233,-0.21774 -22.86957,-4.57043 -23.602903,-8.79852 -2.089594,-12.04772 -3.350172,-28.15734 -1.109802,-45.63644 0.381247,-2.97445 6.103375,-0.97109 7.490498,-2.2195 l -0.554488,-1.11001 c 0,-0.15004 -7.845822,-0.36816 -8.193841,3.18533 -1.480471,15.11649 -1.361846,22.9009 0.842145,44.60128 0.953576,9.38885 14.457163,11.79452 23.654696,11.32868 3.741442,-0.18949 20.767041,0.69181 34.569211,-0.3734 13.80218,-1.06521 24.57947,-3.43935 25.19123,-14.47852 1.30465,-23.54215 2.96024,-48.59412 -0.60675,-68.236028 -0.78817,-4.340075 -3.98032,-7.864013 -8.32849,-10.283647 -2.9099,-1.619277 -6.18592,-2.152325 -9.58598,-2.193664 z"
         sodipodi:nodetypes="sssccsssssssssccssssssss" /><path
         id="path19"
         style="fill:#000000;fill-opacity:1;stroke-width:4;stroke-linejoin:round;stroke-miterlimit:3.1;paint-order:stroke markers fill"
         d="m 117.90133,75.733879 c -6.39411,-0.06346 -12.83502,0.631929 -19.179191,1.36064 -4.526008,0.519873 -9.519397,1.561705 -13.756147,3.236509 -2.922409,1.155239 -4.772975,4.142269 -6.30206,7.160272 -1.392386,2.748196 -2.025199,9.018055 -2.025199,9.018055 l 1.387512,0.643371 c 0,0 0.825414,-10.051043 4.278622,-13.549089 5.484067,-5.555275 13.685126,-4.713455 20.732773,-6.018709 6.46463,-1.197276 29.14347,-2.995045 35.9177,4.810043 1.59519,1.837933 5.44451,5.825963 6.17275,9.120373 0.72825,3.294414 1.07483,2.774608 1.1095,5.652885 0.0347,2.878281 0.79769,14.356851 0.58962,16.576251 -0.20807,2.2194 -0.72806,14.07922 -0.76274,16.05587 -0.0347,1.97663 0.31213,10.36841 0.31213,11.96361 0,1.59519 0.2398,6.34583 0.0114,12.21165 -0.14673,3.76711 -0.0969,5.19129 -0.7245,7.68739 -0.86001,3.42045 -1.88784,7.25503 -4.10724,9.75083 -1.9446,2.18676 -3.19523,3.05754 -5.44928,4.13256 -2.25408,1.075 -4.434,2.7336 -6.61872,5.40381 -2.18472,2.67019 -7.10911,12.7965 -7.768,14.18363 -0.65888,1.38709 -1.40098,5.59175 -0.55501,7.94111 0.60492,1.67994 0.71878,2.67724 0.80151,5.31131 -0.0534,3.09032 -1.4965,6.62672 -4.92787,10.46757 -1.20893,1.3532 -4.15274,3.27494 -6.17275,4.43901 -3.64367,2.09974 -10.15226,3.68413 -13.559378,3.60598 -7.207225,-0.16532 -12.896045,-2.16404 -15.743742,-4.29999 -2.519011,-1.88943 -8.124148,-10.10628 -10.257584,-15.70222 -1.955547,-5.12932 -0.704465,-11.06441 -2.358512,-16.29874 -1.29597,-4.10119 -1.34462,-6.24726 -3.83723,-9.7524 -0.540094,-0.75949 -2.078607,-2.5298 -2.929817,-3.36616 -0.851211,-0.83636 -2.900731,-2.00639 -3.4108,-2.53482 -3.417486,-3.54052 -6.081687,-3.85281 -8.208299,-8.76703 -3.493841,-8.07362 -2.704745,-25.03759 -2.704744,-27.74249 0,-10.29623 -1.11296,-24.58488 2.288749,-34.81648 1.379751,-4.14999 3.649291,-8.605878 7.420736,-10.82001 3.684008,-2.162801 8.74703,-2.638039 12.762011,-1.178739 1.935882,0.703622 4.351673,4.386812 4.351673,4.386812 l 1.491381,0.259932 c 0,0 -3.022638,-4.547959 -5.427058,-5.410005 -4.459747,-1.598934 -10.067979,-1.053586 -14.149008,1.352889 -3.753324,2.213236 -5.96133,6.667122 -7.386112,10.784871 -3.856145,11.1446 -2.323373,35.30224 -2.323373,35.30224 0,0 -1.417135,19.79253 2.566252,28.43599 2.921797,6.33994 10.805211,9.14368 14.633732,14.981 2.081382,3.17345 3.367062,6.86344 4.300513,10.54199 1.350083,5.32039 0.07797,10.39871 2.011247,15.536 2.245348,5.96657 5.761392,11.71105 10.888741,15.81299 2.7028,2.16226 8.119852,3.69994 9.452136,3.79357 5.391708,1.02477 10.711026,0.0143 15.932356,-1.36581 2.50643,-0.66249 9.3893,-3.67393 11.88662,-7.70186 3.0406,-4.9042 3.75484,-6.27143 4.3434,-11.27373 0.58856,-5.00233 -3.94847,-5.36968 0.49041,-13.73198 4.60981,-8.68427 7.55269,-14.41839 13.24157,-17.06665 5.68887,-2.64828 9.90646,-9.6126 10.49497,-16.3804 0.5885,-6.76781 0.0162,-18.63513 -0.0491,-26.87485 -0.10999,-13.86226 1.61856,-32.17192 -0.34313,-39.430147 -3.5543,-11.579157 -9.99593,-17.651743 -28.83338,-17.838704 z"
         sodipodi:nodetypes="ssssccssssssssscssssscssssssszssssssccssscssssscsssssscsss" /><path
         style="fill:#000000;fill-opacity:1;stroke-width:4;stroke-linejoin:round;stroke-miterlimit:3.1;paint-order:stroke markers fill"
         d="m 68.144238,178.12153 c 0,0 2.578625,3.04751 3.657556,4.32261 1.078931,1.2751 2.10491,2.71496 4.164686,2.98469 2.059773,0.26973 2.888054,-0.60883 2.888054,-1.63871 0.06816,-2.30789 -2.143264,-3.27439 -3.991507,-3.65786 -3.479513,-0.72193 -8.508834,-3.39618 -7.650594,-2.53794 0.858239,0.85824 5.492734,2.5502 7.79772,3.23679 2.30499,0.68659 2.367399,0.86509 2.766174,1.9128 0.243847,0.64067 0.421575,1.80216 -0.485705,1.99833 -0.907282,0.19617 -1.580327,0.17624 -2.280467,-0.1226 -1.42441,-0.608 -2.899187,-2.44209 -3.389611,-3.17773 -0.490424,-0.73563 -2.00504,-3.12421 -2.201208,-3.05065 -0.19617,0.0736 -1.275098,-0.26973 -1.275098,-0.26973 z"
         id="path21"
         sodipodi:nodetypes="cssssssasassc" /><path
         style="fill:#000000;fill-opacity:1;stroke-width:4;stroke-linejoin:round;stroke-miterlimit:3.1;paint-order:stroke markers fill"
         d="m 88.54582,213.19901 c -0.369326,0.12311 -0.590727,1.48157 2.942536,3.46975 3.243901,1.82536 7.32446,1.47617 10.078184,0.71111 2.74563,-0.76281 4.26668,-1.98622 5.93412,-3.33488 1.66743,-1.34866 2.02263,-2.99506 2.02263,-2.99506 0.4083,-0.8166 -3.19023,1.70114 -6.43644,2.48012 -3.233065,0.77583 -5.663654,1.03482 -8.826883,0.74057 -3.163226,-0.29426 -5.567018,-0.81413 -5.567018,-0.81413 l -0.02453,0.19617 c 0,0 1.29962,0.83372 4.144071,1.25058 2.844453,0.41685 2.623762,0.68659 6.743314,0 4.119556,-0.6866 5.196606,-1.16046 7.663216,-2.13335 0.52704,-0.20788 1.6303,-1.07892 1.50769,-0.78467 -1.48342,1.86191 -4.05152,3.50482 -6.50826,4.42468 -2.348256,0.87924 -5.04916,1.55264 -7.468789,0.89641 -5.395351,-1.46329 -5.769388,-3.55037 -5.075875,-3.3594 z"
         id="path22"
         sodipodi:nodetypes="cssscssccssasascc" /><path
         style="fill:#000000;fill-opacity:1;stroke-width:4;stroke-linejoin:round;stroke-miterlimit:3.1;paint-order:stroke markers fill"
         d="m 69.934279,185.33074 c 0,0 2.255944,4.11955 4.56093,6.57167 2.304989,2.45211 2.996845,3.10763 8.732164,6.54497 4.281467,2.56601 8.040295,0.17382 14.906214,-1.29741 6.865913,-1.47127 7.997373,-3.22243 7.997373,-3.22243 l -2.21039,0.13278 c 0,0 -10.877789,4.66471 -17.608037,4.6348 -5.313682,-0.0236 -13.988264,-10.06688 -14.171351,-10.51987 -0.452327,-1.11913 -1.008334,-2.64861 -2.206903,-2.84451 z"
         id="path23"
         sodipodi:nodetypes="csssccssc" /><path
         style="fill:#000000;fill-opacity:1;stroke-width:4;stroke-linejoin:round;stroke-miterlimit:3.1;paint-order:stroke markers fill"
         d="m 70.169799,185.6879 c 0,0 10.155093,6.46791 15.889698,7.94484 6.158298,1.58605 19.238833,1.04296 19.038093,0.72178 0,0 0.5885,-0.24521 0.29425,-0.19617 -0.29425,0.049 -13.377794,0.11943 -19.773724,-1.55549 -4.966982,-1.30072 -13.977048,-6.47358 -13.977048,-6.47358 z"
         id="path24"
         sodipodi:nodetypes="cscsscc" /><path
         style="fill:#000000;fill-opacity:1;stroke-width:4;stroke-linejoin:round;stroke-miterlimit:3.1;paint-order:stroke markers fill"
         d="m 119.77824,182.51096 c -0.13872,0.10403 1.28309,-0.90163 -4.1267,1.07502 -5.40979,1.97665 -4.33477,3.22507 -7.35176,4.36945 -3.017,1.14437 -8.634854,1.17905 -8.634854,1.17905 0,0 -0.121374,-0.82361 -0.676224,0.0434 -0.55485,0.86695 6.064378,0.52998 8.721548,-0.28609 2.4769,-0.76071 6.69288,-3.95331 6.69288,-3.95331 0,0 5.30575,-2.28876 5.20172,-2.15004 -0.10404,0.13871 -4.57758,7.87839 -8.5655,8.77356 -5.61009,1.2593 -10.16069,-2.08069 -10.16069,-2.08069 l -0.901631,0.0694 c 0,0 3.902161,2.6527 6.157911,3.05558 1.92763,0.34428 4.47575,-0.0982 5.84072,-0.62811 3.67887,-1.4282 6.411,-6.16339 8.24472,-9.65786 0.43918,-0.83692 -0.0549,-0.46646 -0.44214,0.19069 z"
         id="path25"
         sodipodi:nodetypes="csscsscssccsssc" /><path
         style="fill:#000000;fill-opacity:1;stroke-width:4;stroke-linejoin:round;stroke-miterlimit:3.1;paint-order:stroke markers fill"
         d="m 113.22527,198.46566 c 0.10676,-0.32465 -8.94634,3.73296 -13.699057,4.12393 -5.134211,0.42236 -8.888767,0.0289 -15.327733,-1.97665 -3.6157,-1.12621 -9.52123,-6.56725 -9.019072,-4.80199 0,0 2.201209,4.97267 4.30285,6.50122 5.298267,3.85351 12.383983,5.39381 18.934256,5.27107 4.294686,-0.0805 8.865406,-1.30745 12.276056,-3.91863 1.69302,-1.29617 3.46781,-5.3751 3.46781,-5.3751 -2.21946,-0.13872 -3.88777,1.65017 -0.86906,0.89045 0,0 -1.95709,3.29262 -3.70845,4.44998 -3.41044,2.25374 -7.84172,2.89126 -11.929277,2.8436 -5.904346,-0.0688 -12.195376,-1.2669 -17.130993,-4.50815 -2.064361,-1.35568 -4.577511,-5.82593 -4.577511,-5.82593 0,0 4.630503,3.68107 7.351763,4.71623 4.9877,1.8973 10.497659,2.96766 15.813222,2.49682 4.959646,-0.43931 13.344256,-2.54256 14.115196,-4.88685 z"
         id="path26"
         sodipodi:nodetypes="sascaaaccssscaas" /><path
         id="path27"
         style="fill:#000000;fill-opacity:1;stroke-width:4;stroke-linejoin:round;stroke-miterlimit:3.1;paint-order:stroke markers fill"
         d="m 74.260067,200.16866 c -0.07013,0.003 -0.107616,0.0885 -0.118339,0.27078 0,0 0.83252,8.11501 4.092256,12.20701 3.259737,4.09202 3.813873,6.16195 7.004741,6.79649 1.536948,0.30564 4.369759,-1.73375 4.369759,-1.73375 0,0 -3.372188,-2.32764 -4.23075,-4.09174 -0.85445,-1.75565 1.124708,-4.38812 -0.606681,-5.826 -2.01401,-1.67259 -2.195954,0.46482 -5.635832,-2.497 -3.168943,-2.72855 -4.496435,-5.1397 -4.875154,-5.12579 z m 1.042313,2.28358 c 0.959599,1.15148 4.155838,4.88077 5.618262,5.13147 1.716478,0.29425 2.779915,0.30983 3.515548,1.09451 0.735632,0.78467 0.562229,1.37497 0.490409,1.77818 -0.144159,0.80936 -0.457558,2.16792 -0.10387,3.16105 0.491311,1.37957 1.903502,2.88818 2.752297,3.4463 0.417774,0.2747 0.982854,0.59592 0.982854,0.59592 0,0 -1.066454,0.68543 -1.949213,0.84482 -0.882757,0.15938 -1.579239,0.24134 -2.274797,-0.061 -1.246469,-0.54178 -1.73232,-1.71598 -2.86029,-2.90525 -1.12797,-1.18927 -2.8941,-4.08081 -3.360002,-5.01261 -0.4659,-0.9318 -1.78459,-3.27211 -1.980757,-4.11809 -0.19617,-0.84598 -0.439027,-1.60579 -0.598413,-2.42725 -0.09729,-0.50142 -0.175363,-1.07785 -0.232028,-1.52807 z"
         sodipodi:nodetypes="scsscsssscssssscssssssc" /><path
         style="fill:#000000;fill-opacity:1;stroke-width:4;stroke-linejoin:round;stroke-miterlimit:3.1;paint-order:stroke markers fill"
         d="m 83.019425,185.31989 c 0.693563,-0.55485 1.941976,-2.42747 8.322749,-4.23073 6.380777,-1.80326 9.016316,-1.73391 15.882576,-1.45648 6.86627,0.27742 10.19537,-2.18475 14.21804,-2.25408 4.02266,-0.0693 2.9586,0.84191 5.70367,0.0791 0.28012,-0.0778 -0.0862,0.67725 -0.33836,0.8039 -1.94797,0.97839 -4.52456,-0.29554 -6.76978,-0.0681 -3.25269,0.32947 -6.17922,1.97929 -9.5885,2.06335 -5.68639,0.1402 -12.221048,0.17937 -18.136656,1.52584 -3.232035,0.73565 -9.293739,3.53717 -9.293739,3.53717 z"
         id="path28"
         sodipodi:nodetypes="csssssasscc" /><path
         style="fill:#000000;fill-opacity:1;stroke-width:4;stroke-linejoin:round;stroke-miterlimit:3.1;paint-order:stroke markers fill"
         d="m 125.5348,178.10684 c 0,0 -16.35731,4.12268 -17.54712,4.99365 -1.27992,0.93694 -2.22775,2.30096 -7.49048,2.70489 -5.543024,0.42545 -14.654842,-1.87682 -14.654842,-1.87682 l -1.26981,0.57552 c 0,0 9.47452,1.57873 13.635895,1.92551 4.161377,0.34678 5.433597,-0.32925 7.655757,-1.29397 2.22702,-0.96683 1.55439,-1.47023 5.12828,-2.52207 4.11277,-1.21044 15.3746,-4.22929 15.3746,-4.22929 z"
         id="path29"
         sodipodi:nodetypes="cssccssscc" /><path
         style="fill:#000000;fill-opacity:1;stroke-width:4;stroke-linejoin:round;stroke-miterlimit:3.1;paint-order:stroke markers fill"
         d="m 116.10236,202.52024 c 0,0 -0.41614,3.05167 -2.35812,6.10335 -1.94197,3.05167 -2.91296,8.73888 -7.97597,10.12601 -5.063,1.38712 -11.027639,1.38712 -11.027639,1.38712 0.238618,1.16461 1.0599,0.54998 1.629872,0.55485 0.549507,0.005 4.973447,0.50356 10.958287,-1.97665 3.84927,-1.5952 4.26541,-4.33477 5.72189,-7.38644 1.71742,-3.5984 2.42747,-4.85494 2.91296,-6.03399 0.4855,-1.17906 0.90163,-2.49683 0.90163,-2.49683 0,0 1.94198,1.52584 0,6.6582 -1.94197,5.13236 -0.93631,9.53648 -7.80258,11.61717 -6.86626,2.08069 -9.175527,2.1603 -10.78489,1.94198 -3.995621,-0.54202 -2.635538,-2.87829 -2.635538,-2.87829 l -0.624205,0.41614 c 0,0 -0.874847,2.01817 1.144378,2.67021 1.664549,0.53752 3.5669,0.62285 5.340435,0.41614 3.65286,-0.42575 7.42642,-1.35584 10.50746,-3.36377 1.37204,-0.89417 2.68696,-2.28912 3.25975,-3.67588 0.65888,-1.59519 0.90163,-2.77426 1.52584,-4.43881 0.6242,-1.66454 1.17905,-3.46781 1.59519,-5.5485 0.49136,-2.45682 0.13899,-4.85375 -1.1097,-5.6872 -0.43382,-0.28956 -1.17905,1.59519 -1.17905,1.59519 z"
         id="path30"
         sodipodi:nodetypes="csscsssscsssccsaassssc" /><path
         id="path31"
         style="fill:#000000;fill-opacity:1;stroke-width:4;stroke-linejoin:round;stroke-miterlimit:3.1;paint-order:stroke markers fill"
         d="m 120.67997,188.23295 c 0,0 -4.09192,0.62434 -4.29999,4.16151 -0.20807,3.53714 -0.34675,6.58874 -0.34675,6.58874 0,0 1.45649,0.13841 3.25975,-3.39876 1.80326,-3.53715 1.38699,-7.35149 1.38699,-7.35149 z m -0.71313,1.02423 c 0.0123,0.44755 0.0246,1.31929 -0.046,1.9544 -0.0981,0.88276 -0.0436,2.24472 -1.44126,4.64778 -1.39769,2.40307 -1.69189,2.03502 -1.69189,2.03502 0,0 -0.16727,-5.0933 0.74001,-6.66264 0.7152,-1.23711 1.94515,-1.79232 2.43913,-1.97456 z" /></g></g><g
     inkscape:groupmode="layer"
     id="rbc"
     inkscape:label="RBC Bottom"
     style="display:inline"
     transform="translate(-98.094662,-108.93386)"><path
       style="opacity:1;fill:#e90211;fill-opacity:1;stroke-width:0.2;stroke-linejoin:round;stroke-miterlimit:3.1;paint-order:stroke markers fill;stroke-dasharray:none;stroke:#000000;stroke-opacity:1"
       d="m 99.582248,112.562 c -0.10638,0.20785 -0.11752,0.41062 0.0551,0.53422 0.26265,0.18808 0.767262,-0.0694 0.932782,-0.34682 0.0994,-0.16666 0.0668,-0.31733 -0.0975,-0.42061 -0.24322,-0.15287 -0.759472,-0.0225 -0.890353,0.23321 z"
       id="path73"
       sodipodi:nodetypes="sssss"
       inkscape:export-filename="RBC.svg"
       inkscape:export-xdpi="747.41998"
       inkscape:export-ydpi="747.41998" /><path
       style="opacity:1;fill:#902506;fill-opacity:1;stroke:none;stroke-width:0.2;stroke-linejoin:round;stroke-miterlimit:3.1;stroke-dasharray:none;stroke-opacity:1;paint-order:stroke markers fill"
       d="m 100.0257,112.83151 c 0.18053,-0.039 0.29712,-0.17607 0.31283,-0.26763 0.0157,-0.0916 -0.0697,-0.14155 -0.0697,-0.14155 0,0 0.0233,0.15667 -0.13094,0.22723 -0.228379,0.1045 -0.385843,0.023 -0.385843,0.023 0.04464,0.1622 0.162147,0.18314 0.273643,0.15887 z"
       id="path74"
       sodipodi:nodetypes="sccscss" /></g><g
     inkscape:groupmode="layer"
     id="wbc"
     inkscape:label="WBC Top"
     style="display:inline"
     transform="translate(-67.315448,-103.69235)"
     inkscape:export-filename="Map - WBC Top.png"
     inkscape:export-xdpi="747.42004"
     inkscape:export-ydpi="747.42004"><path
       style="opacity:1;fill:#ffffff;fill-opacity:1;stroke-width:0.2;stroke-linejoin:round;stroke-miterlimit:3.1;paint-order:stroke markers fill;stroke:#000000;stroke-opacity:1;stroke-dasharray:none"
       d="m 68.994971,105.03064 c -0.0649,0.0349 -0.0121,0.13349 -0.087,0.18587 -0.0665,0.0465 -0.20079,0.0757 -0.16789,0.1499 0.0231,0.0521 0.13772,0.003 0.1649,0.13791 0.0103,0.0513 -0.10068,0.12015 -0.054,0.17689 0.0518,0.0629 0.15379,0.032 0.22486,0.0719 0.0816,0.0459 0.0605,0.12665 0.1529,0.14091 0.13946,0.0215 0.0543,-0.10187 0.19033,-0.13945 0.0995,-0.0275 0.13149,0.0282 0.19942,-0.0494 0.0754,-0.0862 -0.0417,-0.12626 -0.027,-0.23985 0.0114,-0.0878 0.15007,-0.0788 0.14991,-0.17689 -1.5e-4,-0.0903 -0.19071,-0.0581 -0.20687,-0.14689 0,0 -0.0428,-0.18001 -0.12895,-0.20388 -0.10509,-0.0291 -0.0951,0.1392 -0.20387,0.14691 -0.10595,0.008 -0.13042,-0.095 -0.20681,-0.0539 z"
       id="path72"
       sodipodi:nodetypes="ssssssssssssssss"
       inkscape:export-filename="WBC.svg"
       inkscape:export-xdpi="747"
       inkscape:export-ydpi="747" /></g></svg>
