<?xml version="1.0" encoding="UTF-8" standalone="no"?>
<!-- Created with Inkscape (http://www.inkscape.org/) -->

<svg
   width="102.32404mm"
   height="207.4904mm"
   viewBox="0 0 102.32404 207.4904"
   version="1.1"
   id="svg1"
   xml:space="preserve"
   inkscape:version="1.3 (0e150ed6c4, 2023-07-21)"
   sodipodi:docname="Bus.svg"
   inkscape:export-filename="Bus Bang.png"
   inkscape:export-xdpi="400.07999"
   inkscape:export-ydpi="400.07999"
   xmlns:inkscape="http://www.inkscape.org/namespaces/inkscape"
   xmlns:sodipodi="http://sodipodi.sourceforge.net/DTD/sodipodi-0.dtd"
   xmlns:xlink="http://www.w3.org/1999/xlink"
   xmlns="http://www.w3.org/2000/svg"
   xmlns:svg="http://www.w3.org/2000/svg"><sodipodi:namedview
     id="namedview1"
     pagecolor="#15366e"
     bordercolor="#000000"
     borderopacity="0.25"
     inkscape:showpageshadow="2"
     inkscape:pageopacity="0.0"
     inkscape:pagecheckerboard="0"
     inkscape:deskcolor="#d1d1d1"
     inkscape:document-units="mm"
     inkscape:zoom="2"
     inkscape:cx="11.5"
     inkscape:cy="234.25"
     inkscape:window-width="1920"
     inkscape:window-height="974"
     inkscape:window-x="-11"
     inkscape:window-y="-11"
     inkscape:window-maximized="1"
     inkscape:current-layer="character" /><defs
     id="defs1"><filter
       inkscape:collect="always"
       style="color-interpolation-filters:sRGB"
       id="filter61"
       x="-0.024057728"
       y="-0.079591449"
       width="1.0481155"
       height="1.1591829"><feGaussianBlur
         inkscape:collect="always"
         stdDeviation="0.45144597"
         id="feGaussianBlur61" /></filter><linearGradient
       inkscape:collect="always"
       xlink:href="#linearGradient35"
       id="linearGradient36"
       x1="90.929405"
       y1="45.928112"
       x2="107.54461"
       y2="45.928112"
       gradientUnits="userSpaceOnUse" /><linearGradient
       id="linearGradient35"
       inkscape:collect="always"><stop
         style="stop-color:#364743;stop-opacity:1;"
         offset="0"
         id="stop35" /><stop
         style="stop-color:#465b56;stop-opacity:1;"
         offset="1"
         id="stop36" /></linearGradient><linearGradient
       inkscape:collect="always"
       xlink:href="#linearGradient78"
       id="linearGradient79"
       x1="35.647621"
       y1="27.720446"
       x2="112.78166"
       y2="27.720446"
       gradientUnits="userSpaceOnUse" /><linearGradient
       id="linearGradient78"
       inkscape:collect="always"><stop
         style="stop-color:#ff921b;stop-opacity:1;"
         offset="0"
         id="stop78" /><stop
         style="stop-color:#ffb114;stop-opacity:1;"
         offset="1"
         id="stop79" /></linearGradient><linearGradient
       inkscape:collect="always"
       xlink:href="#linearGradient29"
       id="linearGradient30"
       x1="54.758633"
       y1="28.05847"
       x2="54.832001"
       y2="30.938723"
       gradientUnits="userSpaceOnUse" /><linearGradient
       id="linearGradient29"
       inkscape:collect="always"><stop
         style="stop-color:#6e3900;stop-opacity:1;"
         offset="0"
         id="stop29" /><stop
         style="stop-color:#ba6000;stop-opacity:1;"
         offset="1"
         id="stop30" /></linearGradient><linearGradient
       inkscape:collect="always"
       xlink:href="#linearGradient56"
       id="linearGradient57"
       x1="63.208366"
       y1="44.761147"
       x2="67.295914"
       y2="40.797668"
       gradientUnits="userSpaceOnUse" /><linearGradient
       id="linearGradient56"
       inkscape:collect="always"><stop
         style="stop-color:#b26b08;stop-opacity:1;"
         offset="0"
         id="stop56" /><stop
         style="stop-color:#b26b08;stop-opacity:0;"
         offset="1"
         id="stop57" /></linearGradient><linearGradient
       inkscape:collect="always"
       xlink:href="#linearGradient60"
       id="linearGradient61"
       x1="101.49034"
       y1="35.106995"
       x2="107.8269"
       y2="35.106995"
       gradientUnits="userSpaceOnUse" /><linearGradient
       id="linearGradient60"
       inkscape:collect="always"><stop
         style="stop-color:#fbce64;stop-opacity:1;"
         offset="0"
         id="stop60" /><stop
         style="stop-color:#fbce64;stop-opacity:0;"
         offset="1"
         id="stop61" /></linearGradient><filter
       inkscape:collect="always"
       style="color-interpolation-filters:sRGB"
       id="filter81"
       x="-0.20315032"
       y="-0.13498553"
       width="1.4063006"
       height="1.2699711"><feGaussianBlur
         inkscape:collect="always"
         stdDeviation="0.85539"
         id="feGaussianBlur81" /></filter><linearGradient
       inkscape:collect="always"
       xlink:href="#linearGradient39"
       id="linearGradient40"
       x1="16.780134"
       y1="30.443621"
       x2="45.475262"
       y2="30.443621"
       gradientUnits="userSpaceOnUse" /><linearGradient
       id="linearGradient39"
       inkscape:collect="always"><stop
         style="stop-color:#5c2b0b;stop-opacity:1;"
         offset="0"
         id="stop39" /><stop
         style="stop-color:#ba530a;stop-opacity:1;"
         offset="1"
         id="stop40" /></linearGradient><linearGradient
       inkscape:collect="always"
       xlink:href="#linearGradient65"
       id="linearGradient66"
       x1="16.780134"
       y1="29.920238"
       x2="45.475262"
       y2="29.920238"
       gradientUnits="userSpaceOnUse" /><linearGradient
       id="linearGradient65"
       inkscape:collect="always"><stop
         style="stop-color:#7a4205;stop-opacity:1;"
         offset="0"
         id="stop65" /><stop
         style="stop-color:#612d05;stop-opacity:0;"
         offset="1"
         id="stop66" /></linearGradient><linearGradient
       inkscape:collect="always"
       xlink:href="#linearGradient76"
       id="linearGradient77"
       x1="40.017529"
       y1="30.458363"
       x2="41.281296"
       y2="30.458363"
       gradientUnits="userSpaceOnUse" /><linearGradient
       id="linearGradient76"
       inkscape:collect="always"><stop
         style="stop-color:#33484f;stop-opacity:1;"
         offset="0"
         id="stop76" /><stop
         style="stop-color:#706e96;stop-opacity:0;"
         offset="1"
         id="stop77" /></linearGradient><linearGradient
       inkscape:collect="always"
       xlink:href="#linearGradient97"
       id="linearGradient98"
       x1="33.765137"
       y1="31.055471"
       x2="33.569008"
       y2="23.944794"
       gradientUnits="userSpaceOnUse" /><linearGradient
       id="linearGradient97"
       inkscape:collect="always"><stop
         style="stop-color:#b84c0b;stop-opacity:1;"
         offset="0"
         id="stop97" /><stop
         style="stop-color:#df5c0d;stop-opacity:1;"
         offset="1"
         id="stop98" /></linearGradient><linearGradient
       inkscape:collect="always"
       xlink:href="#linearGradient76"
       id="linearGradient99"
       gradientUnits="userSpaceOnUse"
       x1="40.017529"
       y1="30.458363"
       x2="41.281296"
       y2="30.458363"
       gradientTransform="translate(-5.5097624,-0.26722604)" /><linearGradient
       inkscape:collect="always"
       xlink:href="#linearGradient73"
       id="linearGradient74"
       x1="20.422527"
       y1="25.866846"
       x2="29.174223"
       y2="25.866846"
       gradientUnits="userSpaceOnUse" /><linearGradient
       id="linearGradient73"
       inkscape:collect="always"><stop
         style="stop-color:#70a2b8;stop-opacity:1;"
         offset="0"
         id="stop73" /><stop
         style="stop-color:#70a2b8;stop-opacity:0;"
         offset="1"
         id="stop74" /></linearGradient><filter
       inkscape:collect="always"
       style="color-interpolation-filters:sRGB"
       id="filter70"
       x="-0.90458559"
       y="-0.39775716"
       width="2.8091712"
       height="1.7955143"><feGaussianBlur
         inkscape:collect="always"
         stdDeviation="0.18804199"
         id="feGaussianBlur70" /></filter><linearGradient
       inkscape:collect="always"
       xlink:href="#linearGradient92"
       id="linearGradient93"
       x1="16.826286"
       y1="36.798576"
       x2="29.585009"
       y2="36.798576"
       gradientUnits="userSpaceOnUse" /><linearGradient
       id="linearGradient92"
       inkscape:collect="always"><stop
         style="stop-color:#696607;stop-opacity:1;"
         offset="0"
         id="stop92" /><stop
         style="stop-color:#2c2b04;stop-opacity:1;"
         offset="1"
         id="stop93" /></linearGradient><linearGradient
       inkscape:collect="always"
       xlink:href="#linearGradient90"
       id="linearGradient91"
       x1="21.712435"
       y1="33.276394"
       x2="24.633999"
       y2="33.276394"
       gradientUnits="userSpaceOnUse" /><linearGradient
       id="linearGradient90"
       inkscape:collect="always"><stop
         style="stop-color:#071f69;stop-opacity:1;"
         offset="0"
         id="stop90" /><stop
         style="stop-color:#071f69;stop-opacity:0;"
         offset="1"
         id="stop91" /></linearGradient><linearGradient
       inkscape:collect="always"
       xlink:href="#linearGradient95"
       id="linearGradient96"
       x1="26.329241"
       y1="36.292953"
       x2="28.589487"
       y2="36.292953"
       gradientUnits="userSpaceOnUse" /><linearGradient
       id="linearGradient95"
       inkscape:collect="always"><stop
         style="stop-color:#a6be8a;stop-opacity:1;"
         offset="0"
         id="stop95" /><stop
         style="stop-color:#a6be8a;stop-opacity:0;"
         offset="1"
         id="stop96" /></linearGradient><linearGradient
       inkscape:collect="always"
       xlink:href="#linearGradient51"
       id="linearGradient52"
       x1="31.390896"
       y1="25.057285"
       x2="32.02211"
       y2="28.401497"
       gradientUnits="userSpaceOnUse" /><linearGradient
       id="linearGradient51"
       inkscape:collect="always"><stop
         style="stop-color:#0c3f4e;stop-opacity:1;"
         offset="0"
         id="stop51" /><stop
         style="stop-color:#126076;stop-opacity:1;"
         offset="1"
         id="stop52" /></linearGradient><linearGradient
       inkscape:collect="always"
       xlink:href="#linearGradient51"
       id="linearGradient46"
       x1="35.242729"
       y1="23.725292"
       x2="35.917961"
       y2="27.594824"
       gradientUnits="userSpaceOnUse" /><linearGradient
       inkscape:collect="always"
       xlink:href="#linearGradient51"
       id="linearGradient48"
       x1="38.14703"
       y1="24.661333"
       x2="39.198639"
       y2="28.299355"
       gradientUnits="userSpaceOnUse" /><linearGradient
       inkscape:collect="always"
       xlink:href="#linearGradient53"
       id="linearGradient54"
       x1="18.634666"
       y1="25.806719"
       x2="30.168045"
       y2="25.806719"
       gradientUnits="userSpaceOnUse" /><linearGradient
       id="linearGradient53"
       inkscape:collect="always"><stop
         style="stop-color:#0c3f4e;stop-opacity:1;"
         offset="0"
         id="stop53" /><stop
         style="stop-color:#124476;stop-opacity:1;"
         offset="1"
         id="stop54" /></linearGradient><linearGradient
       inkscape:collect="always"
       xlink:href="#linearGradient49"
       id="linearGradient50"
       x1="40.79702"
       y1="26.266262"
       x2="43.164886"
       y2="28.994778"
       gradientUnits="userSpaceOnUse" /><linearGradient
       id="linearGradient49"
       inkscape:collect="always"><stop
         style="stop-color:#0c3f4e;stop-opacity:1;"
         offset="0"
         id="stop49" /><stop
         style="stop-color:#177893;stop-opacity:1;"
         offset="1"
         id="stop50" /></linearGradient></defs><g
     inkscape:groupmode="layer"
     id="character"
     inkscape:label="Bus"
     transform="matrix(0.43213525,0,0,0.43213525,6.087123,44.009829)"
     style="display:inline"
     inkscape:export-filename="Bus.png"
     inkscape:export-xdpi="511.28635"
     inkscape:export-ydpi="511.28635"><g
       inkscape:groupmode="layer"
       id="layer12"
       inkscape:label="Smoke"
       style="display:none"
       transform="translate(30.305806,40.263428)"><path
         style="opacity:0.787815;fill:#313c3f;fill-opacity:0.818584;stroke-width:2.18953;stroke-linejoin:round;stroke-miterlimit:3.1;paint-order:markers stroke fill"
         d="m 30.7289,44.062287 c 0.905176,-0.543106 2.806047,-2.625011 0.09052,-2.081906 -2.715529,0.543106 -2.172423,1.629318 -2.172423,1.629318 0,0 -2.443976,-2.353459 -2.534494,-0.543106 -0.09052,1.810353 2.081906,2.353459 2.081906,2.353459 0,0 -3.43967,1.176729 -0.452588,1.90087 2.987082,0.724141 3.43967,-0.814659 3.43967,-0.814659 0,0 1.176729,2.443977 1.086212,0 -0.09052,-2.443976 -1.5388,-2.443976 -1.5388,-2.443976 z"
         id="path112"
         inkscape:export-filename="Smoke.png"
         inkscape:export-xdpi="200"
         inkscape:export-ydpi="200" /><path
         style="display:inline;opacity:0.787815;fill:#313c3f;fill-opacity:0.818584;stroke-width:3.27101;stroke-linejoin:round;stroke-miterlimit:3.1;paint-order:markers stroke fill"
         d="m 25.477753,40.268368 c 1.352274,-0.811365 4.192051,-3.921595 0.135231,-3.110232 -4.056823,0.811365 -3.245458,2.434095 -3.245458,2.434095 0,0 -3.651141,-3.515914 -3.786369,-0.811365 -0.135231,2.704549 3.110232,3.515914 3.110232,3.515914 0,0 -5.138642,1.757956 -0.676137,2.839776 4.462505,1.081819 5.138642,-1.217048 5.138642,-1.217048 0,0 1.757956,3.651142 1.62273,0 -0.135231,-3.65114 -2.298867,-3.65114 -2.298867,-3.65114 z"
         id="path112-4" /><path
         style="display:inline;opacity:0.787815;fill:#bfcbce;fill-opacity:0.818584;stroke-width:3.27101;stroke-linejoin:round;stroke-miterlimit:3.1;paint-order:markers stroke fill"
         d="m 6.8967574,30.470047 c 1.352274,-0.811365 4.1920506,-3.921595 0.135231,-3.110232 -4.056823,0.811365 -3.245458,2.434095 -3.245458,2.434095 0,0 -3.65114104,-3.515914 -3.78636903642,-0.811365 C -0.13506964,31.687094 3.1103934,32.498459 3.1103934,32.498459 c 0,0 -5.138642,1.757956 -0.676137,2.839776 4.462505,1.081819 5.138642,-1.217048 5.138642,-1.217048 0,0 1.757956,3.651142 1.62273,0 -0.135231,-3.65114 -2.298867,-3.65114 -2.298867,-3.65114 z"
         id="path112-4-8"
         inkscape:export-filename="Smoke.png"
         inkscape:export-xdpi="96"
         inkscape:export-ydpi="96" /><path
         style="opacity:0.539916;fill:#8da1a7;fill-opacity:0.818584;stroke-width:2.18953;stroke-linejoin:round;stroke-miterlimit:3.1;paint-order:markers stroke fill"
         d="m 17.130907,46.564002 c 0,0 -2.432214,-5.376473 -2.04818,-0.896081 0.384033,4.480398 3.712326,3.712331 3.712326,3.712331 0,0 -10.3689116,2.176189 -2.04818,3.32829 8.320733,1.152101 8.96079,-2.304203 8.96079,-2.304203 0,0 -0.640057,-0.128006 -2.688237,-2.432209 -2.048181,-2.304209 4.608405,1.920169 3.584316,-0.512047 -1.024091,-2.432216 -0.896079,-4.096365 -2.560226,-3.200284 -1.664147,0.896081 -1.02409,5.120453 -1.664147,1.664149 -0.640056,-3.456304 -3.712327,-3.07227 -3.200282,-1.280115 0.512045,1.792155 -0.384034,-1.408121 -0.896079,-0.512047 -0.512044,0.896081 -1.152101,2.432216 -1.152101,2.432216 z"
         id="path113" /><path
         style="opacity:0.539916;fill:#3a484c;fill-opacity:0.818584;stroke-width:2.18953;stroke-linejoin:round;stroke-miterlimit:3.1;paint-order:markers stroke fill"
         d="m 15.978806,40.931506 c 0.896079,-1.024087 4.992439,-2.816249 3.456304,-4.864425 -1.536135,-2.048182 -4.992439,2.176189 -4.992439,2.176189 0,0 2.688237,-3.456304 -0.384034,-2.560222 -3.072271,0.896074 -2.944259,3.200276 -2.944259,3.200276 0,0 -2.5602259,-5.376473 -4.0963609,-3.07227 -1.5361357,2.304203 -1.6641465,5.504486 0.3840338,5.120452 2.0481802,-0.384033 2.0481802,-0.512047 2.0481802,-0.512047 0,0 -7.1686313,3.328297 -3.4563045,3.456304 3.7123268,0.128014 4.7364174,-1.024088 4.7364174,-1.024088 0,0 -0.640057,4.096358 1.792158,2.560223 2.432214,-1.536135 0.768067,-2.944257 2.944259,-2.688236 2.176191,0.256027 0.512045,-1.792156 0.512045,-1.792156 z"
         id="path114"
         inkscape:export-filename="Smoke.png"
         inkscape:export-xdpi="200"
         inkscape:export-ydpi="200" /><path
         style="display:inline;opacity:0.539916;fill:#171e1f;fill-opacity:0.818584;stroke-width:2.18953;stroke-linejoin:round;stroke-miterlimit:3.1;paint-order:markers stroke fill"
         d="m 35.215912,51.56715 c 0.896079,-1.024087 4.992439,-2.816249 3.456304,-4.864425 -1.536135,-2.048182 -4.992439,2.176189 -4.992439,2.176189 0,0 2.688237,-3.456304 -0.384034,-2.560222 -3.072271,0.896074 -2.944259,3.200276 -2.944259,3.200276 0,0 -2.560226,-5.376473 -4.096361,-3.07227 -1.536136,2.304203 -1.664147,5.504486 0.384033,5.120452 2.048181,-0.384033 2.048181,-0.512047 2.048181,-0.512047 0,0 -7.168632,3.328297 -3.456305,3.456304 3.712327,0.128014 4.736418,-1.024088 4.736418,-1.024088 0,0 -0.640057,4.096358 1.792158,2.560223 2.432214,-1.536135 0.768067,-2.944257 2.944259,-2.688236 2.176191,0.256027 0.512045,-1.792156 0.512045,-1.792156 z"
         id="path114-4" /><path
         style="opacity:0.539916;fill:#82979f;fill-opacity:0.818584;stroke-width:2.18953;stroke-linejoin:round;stroke-miterlimit:3.1;paint-order:markers stroke fill"
         d="m 30.960847,37.233991 c -0.678882,-1.221988 -3.665964,-4.20907 -2.534494,-1.855611 1.131471,2.353458 1.584059,2.534494 1.584059,2.534494 0,0 -7.150894,-0.497847 -3.575447,1.946129 3.575447,2.443976 5.159505,0.7694 5.159505,0.7694 0,0 -3.349152,6.200458 0.859918,3.801741 4.20907,-2.398718 2.262941,-4.797435 2.262941,-4.797435 0,0 4.661658,1.357764 3.032341,-0.950435 -1.629318,-2.3082 -3.892259,-0.452589 -3.892259,-0.452589 0,0 3.892259,-1.765094 1.312506,-2.308199 -2.579753,-0.543106 -3.484929,-0.04526 -3.303894,0.678882 0.181036,0.724141 0.950436,-2.851306 -0.181035,-1.448282 -1.13147,1.403023 -0.724141,2.081905 -0.724141,2.081905 z"
         id="path115" /></g><g
       inkscape:groupmode="layer"
       id="layer13"
       inkscape:label="Main Bus"
       style="display:none"><path
         id="path61"
         style="display:inline;opacity:0.394958;mix-blend-mode:normal;fill:#000000;fill-opacity:1;stroke:none;stroke-width:0.799999;stroke-linejoin:round;stroke-miterlimit:3.1;stroke-opacity:1;paint-order:markers stroke fill;filter:url(#filter61)"
         inkscape:label="Shadow"
         d="m 44.725032,41.158656 c -9.151692,1.079304 -10.647838,-0.918284 -19.646379,0.896011 -4.711997,0.839988 -12.888014,2.661226 -12.298212,7.411031 0.610567,4.917044 9.331071,5.124817 14.22089,4.324951 l 23.206631,-4.639162 c 5.075184,-0.830187 8.469255,-0.40672 7.37202,-5.430939 -0.917739,-4.202309 -7.95333,-3.296645 -12.85495,-2.561892 z"
         transform="matrix(1.7276976,0.14142496,0.18028741,1.0603538,-1.1439079,-1.1788161)"
         sodipodi:nodetypes="scsccss"
         inkscape:export-filename="Bus.png"
         inkscape:export-xdpi="400"
         inkscape:export-ydpi="400" /><g
         inkscape:groupmode="layer"
         id="layer7"
         inkscape:label="Wheels"
         style="display:inline"><g
           inkscape:groupmode="layer"
           id="layer6"
           inkscape:label="Wheels F"
           style="display:inline"><path
             style="fill:#684d00;fill-opacity:1;stroke-width:2.18953;stroke-linejoin:round;stroke-miterlimit:3.1;paint-order:markers stroke fill"
             d="m 84.584782,49.764898 c 0,0 1.221989,-4.118552 1.17673,-5.295282 -0.04526,-1.176729 -1.357765,-9.278057 -1.357765,-9.278057 l 3.122859,-0.452589 c 0,0 0.36207,3.575447 0.36207,4.887953 0,1.312506 0.362071,9.775905 0.362071,9.775905 z"
             id="path30" /><path
             style="fill:#684d00;fill-opacity:1;stroke-width:2.18953;stroke-linejoin:round;stroke-miterlimit:3.1;paint-order:markers stroke fill"
             d="m 106.64846,37.273464 c 0,0.678882 0.81466,3.733853 0.81466,5.612094 0,1.878241 -0.72415,5.068988 -0.72415,5.068988 0,0 2.10454,0.656252 2.28557,-0.701512 0.18104,-1.357765 0.611,-5.702611 0.40733,-6.313605 -0.20366,-0.610994 -1.28987,-4.480624 -1.28987,-4.480624 z"
             id="path31" /><path
             style="fill:#a3b9b4;fill-opacity:1;stroke-width:2.18953;stroke-linejoin:round;stroke-miterlimit:3.1;paint-order:markers stroke fill"
             d="m 76.25716,47.117257 c 0,0 1.448282,1.086212 2.67027,0.588365 1.221988,-0.497847 1.425653,-1.267247 1.584059,-1.968759 0.158406,-0.701511 0.656253,-2.376088 0.565735,-3.213376 -0.09052,-0.837288 -1.380394,-2.579752 -1.90087,-2.511864 -0.520477,0.06785 -2.376089,0.882547 -2.398718,0.995694 -0.02259,0.113147 -0.520476,6.10994 -0.520476,6.10994 z"
             id="path32" /><path
             style="fill:#a3b9b4;fill-opacity:1;stroke-width:2.18953;stroke-linejoin:round;stroke-miterlimit:3.1;paint-order:markers stroke fill"
             d="m 98.962112,47.684101 c 0,0 0.736067,0.896081 1.664148,0.800074 0.92808,-0.09601 1.76016,-0.480047 2.04818,-1.184108 0.28802,-0.704061 0.92808,-2.528223 0.92808,-2.944257 0,-0.41604 -1.28011,-3.456303 -1.44012,-3.424304 -0.16002,0.03201 -2.272207,0.576055 -2.272207,0.576055 0,0 -0.832075,5.280458 -0.864074,5.664492 -0.03201,0.384034 -0.06401,0.512048 -0.06401,0.512048 z"
             id="path34" /><path
             style="fill:url(#linearGradient36);fill-opacity:1;stroke-width:2.18953;stroke-linejoin:round;stroke-miterlimit:3.1;paint-order:markers stroke fill"
             d="m 91.69747,50.116317 5.216467,-0.192021 1.824154,-2.304202 c 0,0 0.864082,0.70406 1.952179,0.800074 1.08809,0.09601 1.69615,-0.480047 1.98417,-1.120101 0.28802,-0.640054 0.57605,-2.176189 0.60806,-3.04027 0.032,-0.864075 -1.63215,-3.456304 -1.63215,-3.456304 l -2.336204,0.992088 0.288027,-3.296291 c 0,0 7.072617,-1.440121 7.136627,-1.216108 0.064,0.22402 0.73606,5.85652 0.80007,6.720595 0.064,0.864074 -0.41604,4.768418 -0.99209,5.536486 -0.57605,0.768067 -0.51205,3.968351 -2.46422,4.480398 -1.95216,0.51204 -10.592927,0.576047 -10.592927,0.576047 0,0 -1.152102,-1.760155 -1.344122,-1.920169 -0.192013,-0.160013 -1.216108,-2.464216 -1.216108,-2.464216 z"
             id="path35" /><path
             style="display:inline;fill:#3a4c48;fill-opacity:1;stroke-width:2.18953;stroke-linejoin:round;stroke-miterlimit:3.1;paint-order:markers stroke fill"
             d="m 66.617032,50.941628 c 0,0 3.032341,5.3858 4.163811,5.3858 1.131471,0 10.90738,-0.633624 11.45048,-0.724141 0.54311,-0.09052 1.76509,-3.484929 1.99139,-3.982776 0.22629,-0.497847 1.99139,-6.019423 1.90087,-6.969859 -0.0905,-0.950435 -1.13147,-9.232799 -1.13147,-9.232799 0,0 -7.739259,1.086212 -7.28667,1.765094 0.452588,0.678883 -1.900871,11.90307 -2.670271,13.170317 -0.7694,1.267247 -1.584058,2.036647 -1.584058,2.036647 L 70.14722,50.760593 Z"
             id="path40" /><path
             style="fill:#a3b9b4;fill-opacity:1;stroke-width:2.18953;stroke-linejoin:round;stroke-miterlimit:3.1;paint-order:markers stroke fill"
             d="m 76.053495,46.823075 c 0.158406,0.09052 0.814659,0.701512 2.014017,0.792029 1.199359,0.09052 1.312506,-0.588364 1.900871,-1.040952 0.588364,-0.452589 0.905176,-1.289877 0.950435,-2.353459 0.04526,-1.063582 -0.837288,-3.349153 -0.973065,-3.530188 -0.135776,-0.181035 -1.063582,-0.3847 -1.063582,-0.3847 l -2.195053,1.493541 z"
             id="path41" /><path
             style="fill:#3a4c48;fill-opacity:1;stroke-width:2.18953;stroke-linejoin:round;stroke-miterlimit:3.1;paint-order:markers stroke fill"
             d="m 38.466045,50.375892 c 0,0 1.357765,1.651947 2.398718,2.149794 1.040953,0.497847 3.711223,0.610994 6.607788,0.746771 2.896564,0.135776 6.223087,0.656253 6.788822,0.135776 0.565736,-0.520476 1.56143,-3.258635 1.56143,-3.258635 0,0 -10.952635,-0.588364 -12.197252,-0.3847 -1.244618,0.203665 -5.159506,0.610994 -5.159506,0.610994 z"
             id="path42" /><path
             style="opacity:1;fill:#28332a;fill-opacity:0.818584;stroke-width:2.18953;stroke-linejoin:round;stroke-miterlimit:3.1;paint-order:markers stroke fill"
             d="m 75.804571,50.262745 c 0.226295,0.135777 3.756482,-0.588364 4.6164,1.312506 0.859918,1.900871 0.633624,2.806047 1.176729,1.357765 0.543106,-1.448283 1.94613,-3.439671 2.217682,-7.196153 0.271553,-3.756482 -0.678882,-8.101328 -1.674576,-7.377187 -0.995694,0.724141 -1.403023,3.213376 -1.357764,3.394411 0.04526,0.181036 0.271553,3.213376 0.271553,3.213376 0,0 -0.497848,1.584059 -0.859918,1.855612 -0.362071,0.271553 -3.937517,0.543106 -3.937517,0.543106 z"
             id="path101" /><path
             style="opacity:1;fill:#28332a;fill-opacity:0.818584;stroke-width:2.18953;stroke-linejoin:round;stroke-miterlimit:3.1;paint-order:markers stroke fill"
             d="m 97.755099,48.814463 c 0,0 0.950435,2.987082 1.810353,2.806047 0.859918,-0.181035 1.629318,-0.995694 2.353458,-0.588365 0.72414,0.40733 0.18104,2.579753 0.95044,1.719835 0.7694,-0.859917 3.39441,-4.97847 3.03234,-7.693999 -0.36207,-2.715529 -0.27156,-6.472011 -1.35777,-4.842694 -1.08621,1.629318 -1.22199,2.398718 -1.22199,2.625012 0,0.226294 0.0905,2.67027 0.0905,2.67027 0,0 -0.63362,2.443977 -0.95043,2.625012 -0.31682,0.181035 -3.801745,-0.316812 -3.801745,-0.316812 l -0.950435,1.357765 z"
             id="path102" /><path
             style="opacity:1;fill:#59725e;fill-opacity:0.818584;stroke-width:2.18953;stroke-linejoin:round;stroke-miterlimit:3.1;paint-order:markers stroke fill"
             d="m 69.536225,52.910386 c 0,0 0.407329,1.5388 1.448282,1.584059 1.040953,0.04526 2.964453,0.248923 2.919194,0 -0.04526,-0.248924 -0.271553,-2.104535 -0.882547,-1.991388 -0.610994,0.113147 -3.484929,0.248923 -3.484929,0.248923 z"
             id="path103" /><path
             style="opacity:1;fill:#59725e;fill-opacity:0.818584;stroke-width:2.35193;stroke-linejoin:round;stroke-miterlimit:3.1;paint-order:markers stroke fill"
             d="m 92.505076,51.529992 c 0.208887,0 1.409986,1.221988 1.775538,1.312506 0.365552,0.09052 1.618873,-0.135776 1.618873,-0.135776 l -0.156664,-1.17673 z"
             id="path104" /></g><g
           inkscape:groupmode="layer"
           id="layer4"
           inkscape:label="Wheels O"
           style="display:inline"><path
             style="display:inline;fill:#4b2c12;fill-opacity:1;stroke-width:2.18953;stroke-linejoin:round;stroke-miterlimit:3.1;paint-order:markers stroke fill"
             d="m 85.535218,48.791833 3.48493,-0.248923 0.837288,1.787723 -5.544206,0.950435 1.108841,-2.602382 z"
             id="path12" /><path
             style="display:inline;fill:#4b2c12;fill-opacity:1;stroke-width:1.57641;stroke-linejoin:round;stroke-miterlimit:3.1;paint-order:markers stroke fill"
             d="m 107.07824,47.207775 1.80647,-0.248923 0.43402,1.787723 -2.87393,0.588364 0.57479,-2.240311 z"
             id="path12-2"
             sodipodi:nodetypes="cccccc" /><path
             style="fill:#242d30;fill-opacity:1;stroke-width:2.18953;stroke-linejoin:round;stroke-miterlimit:3.1;paint-order:markers stroke fill"
             d="m 65.263141,50.347216 4.672412,6.208547 c 0,0 8.310179,0.265661 12.417086,-0.256028 1.734723,-0.220357 3.352366,-7.503889 3.904345,-11.521012 0.433365,-3.15389 -0.512041,-9.536837 -0.512041,-9.536837 l -1.920168,0.640053 c 0,0 1.564834,6.240581 1.216105,9.344824 -0.396282,3.527544 -2.502673,9.342387 -3.840339,9.536842 -1.781542,0.25898 -5.376476,0.512043 -5.376476,0.512043 l -0.70406,-3.904345 -1.600142,0.896081 0.910281,3.125958 -3.982551,-0.181701 -3.07227,-4.544398 z"
             id="path11"
             sodipodi:nodetypes="ccssccssccccccc" /><path
             style="display:inline;fill:#242d30;fill-opacity:1;stroke-width:1.96056;stroke-linejoin:round;stroke-miterlimit:3.1;paint-order:markers stroke fill"
             d="m 90.417868,50.103688 c 0.28444,2.051794 1.032098,3.785126 2.678725,4.900416 0,0 7.332947,0.3555 11.178337,-0.09123 1.62425,-0.188695 3.13888,-6.425669 3.65571,-9.865579 0.40577,-2.700714 -0.47943,-8.166507 -0.47943,-8.166507 l -1.7979,0.548085 c 0,0 1.46519,5.343884 1.13867,8.002084 -0.37105,3.020677 -2.3433,7.999996 -3.59579,8.16651 -1.66809,0.221768 -5.034102,0.438469 -5.034102,0.438469 l -0.772373,-4.180625 -1.520875,0.473143 0.988091,3.808265 -3.088888,-0.283604 c -1.091828,-1.144875 -2.003738,-2.30974 -2.332581,-3.539391 z"
             id="path11-7"
             sodipodi:nodetypes="ccssccssccccccc" /><path
             style="fill:#242d30;fill-opacity:1;stroke-width:2.18953;stroke-linejoin:round;stroke-miterlimit:3.1;paint-order:markers stroke fill"
             d="m 37.804723,49.643155 c 0,0 0.768068,3.07227 3.392298,3.776331 2.624231,0.70406 12.865133,1.152101 13.121155,0.896081 0.256022,-0.256027 0.128011,-0.192021 0.384034,-0.320034 0.256022,-0.128007 2.816247,-4.224372 2.816247,-4.224372 l -3.07227,-0.06401 c 0,0 0.704062,1.024095 -0.128011,1.600142 -0.832073,0.576054 0.192017,1.344122 -1.408124,1.408129 -1.600141,0.06401 -6.912608,0 -7.232636,-0.576054 -0.320029,-0.576047 -1.344119,-2.688237 -1.344119,-2.688237 l -2.496219,0.192021 2.368208,2.624229 c 0,0 -2.560225,0.448041 -3.264287,-0.06401 -0.704062,-0.512047 -2.176191,-2.432216 -2.176191,-2.432216 z"
             id="path13" /><path
             style="fill:#68818a;fill-opacity:1;stroke-width:2.18953;stroke-linejoin:round;stroke-miterlimit:3.1;paint-order:markers stroke fill"
             d="m 98.796044,48.407127 c 0,0 1.538796,1.176729 3.077596,0.633623 1.5388,-0.543106 2.17242,-4.797435 1.99138,-5.928905 -0.18103,-1.131471 -1.71982,-3.122859 -2.71552,-2.625012 -0.99569,0.497847 -1.493538,0.814659 -1.493538,0.814659 l -0.09052,1.221988 c 0,0 1.900868,-1.765094 2.534498,-0.452588 2.11334,4.37766 -0.38756,5.60803 -1.13147,5.702611 -1.505908,0.191461 -1.810357,-0.36207 -1.810357,-0.36207 z"
             id="path14"
             sodipodi:nodetypes="csssccsscc" /><path
             style="display:inline;fill:#68818a;fill-opacity:1;stroke-width:2.18953;stroke-linejoin:round;stroke-miterlimit:3.1;paint-order:markers stroke fill"
             d="m 76.388038,47.593468 c 0,0 1.5388,1.176729 3.0776,0.633623 1.5388,-0.543106 2.17242,-4.797435 1.99138,-5.928905 -0.18103,-1.131471 -1.71982,-3.122859 -2.71552,-2.625012 -0.99569,0.497847 -1.49354,0.814659 -1.49354,0.814659 l -0.0905,1.221988 c 0,0 1.90087,-1.765094 2.5345,-0.452588 2.11334,4.37766 -0.38756,5.60803 -1.13147,5.702611 -1.50591,0.191461 -1.81036,-0.36207 -1.81036,-0.36207 z"
             id="path14-6"
             sodipodi:nodetypes="csssccsscc" /></g></g><g
         inkscape:groupmode="layer"
         id="layer8"
         inkscape:label="Body"
         transform="matrix(2.7369113,0,0,2.7369113,-10.77555,-55.326081)"
         style="display:inline"><g
           inkscape:groupmode="layer"
           id="layer2"
           inkscape:label="Body F"
           style="display:inline"
           transform="matrix(0.36537537,0,0,0.36537537,3.9371205,20.214788)"><path
             style="fill:url(#linearGradient79);fill-opacity:1;stroke-width:2.18953;stroke-linejoin:round;stroke-miterlimit:3.1;paint-order:markers stroke fill"
             d="m 110.40494,44.446988 c 0,0 0.83729,-2.059276 0.83729,-2.557123 0,-0.497847 -1.47091,-8.938617 -1.28987,-9.775906 0.18103,-0.837288 2.78341,-6.811452 2.82867,-7.309299 0.0453,-0.497847 -2.37609,-7.422447 -2.37609,-7.422447 0,0 -3.72078,-10.4691888 -4.15377,-10.6698237 l -4.46552,-2.0692017 c 0,0 -22.586664,-2.0379792 -26.388405,-1.4948734 -3.80174,0.5431059 -30.487889,1.5880053 -30.487889,1.5880053 l -1.280112,3.3922985 -7.652431,19.278424 1.267247,1.719835 -1.221988,1.221988 c 0,0 -0.271553,7.286671 -0.362071,9.142282 -0.09052,1.855612 0.316812,9.956941 1.176729,10.36427 0.859918,0.40733 3.394412,-0.271553 5.431059,-0.226294 2.036647,0.04526 13.939717,0.497847 18.691893,0.452588 4.752176,-0.04526 10.273752,0.40733 10.273752,0.40733 0,0 2.715529,2.217682 2.760788,1.855611 0.04526,-0.36207 1.312506,-1.810353 1.584059,-3.530188 0.271553,-1.719835 2.625011,-12.400917 2.625011,-12.400917 l 9.821164,-1.765094 -0.36207,0.497847 c 0,0 0.316812,13.939717 0.905176,14.301788 0.588365,0.36207 8.508659,0.36207 8.508659,0.36207 0,0 1.765094,-2.534494 1.855611,-2.715529 0.09052,-0.181035 0.814659,-3.349153 0.724141,-4.254329 -0.09052,-0.905176 -0.271553,-4.20907 -0.271553,-4.20907 0,0 3.43967,-0.724142 4.34485,-0.7694 0.90517,-0.04526 4.25433,-1.403024 4.25433,-1.403024 l 0.63362,0.452588 c 0,0 1.58406,6.109941 1.31251,7.015118 -0.27156,0.905176 -0.40733,2.262941 -0.40733,2.262941 z"
             id="path27"
             sodipodi:nodetypes="cssccscscccccsssscsscccscsscsccscc" /><path
             style="fill:#ffed5b;fill-opacity:1;stroke-width:2.18953;stroke-linejoin:round;stroke-miterlimit:3.1;paint-order:markers stroke fill"
             d="m 69.46834,29.851018 c 0,0 6.51727,-0.407329 6.9246,-0.135776 0.407329,0.271553 0.407329,0.995694 1.040952,1.086212 0.633624,0.09052 1.674577,-0.497847 1.674577,-0.724141 0,-0.226295 0.181035,-0.859918 0.181035,-0.859918 0,0 4.480623,-0.226294 4.571141,0.135776 0.09052,0.362071 -0.497847,1.403024 0.950435,1.403024 1.448282,0 3.122859,-0.452588 3.032341,-0.7694 -0.09052,-0.316812 -0.04526,-0.814659 -0.04526,-0.814659 0,0 14.876289,-0.689723 14.748269,-0.04968 -0.12801,0.640054 -0.032,1.152101 1.72816,1.056095 1.76015,-0.09601 6.36856,-1.664149 6.36856,-1.664149 l 2.3682,-2.944256 c 0,0 -4.16036,-13.569196 -4.5444,-14.849311 C 108.08292,9.4407201 105.23467,5.9204123 105.23467,5.9204123 95.006611,3.8352367 84.305225,3.9983688 73.839908,3.0401696 L 44.847542,4.7776318 39.325965,19.396231 36.06733,27.09023 l 0.950436,1.810353 -0.905177,1.131471 c 0,0 17.65094,-1.629318 19.370775,-0.905177 1.719836,0.724141 7.603482,0.905177 7.603482,0.905177 z"
             id="path29"
             sodipodi:nodetypes="cssscssscssccscccccccscc" /><path
             style="display:inline;fill:url(#linearGradient30);fill-opacity:1;stroke-width:2.18953;stroke-linejoin:round;stroke-miterlimit:3.1;paint-order:markers stroke fill"
             d="m 37.711167,31.136624 1.946129,-1.900871 -0.226294,-0.09052 -0.633623,-0.724141 21.769493,0.316811 0.271552,0.724142 0.678883,-0.859918 7.331929,-0.362071 c 0,0 -0.135777,0.09052 -0.316812,0.814659 -0.181035,0.724141 -0.588365,1.855612 -0.588365,1.855612 0,0 -13.396611,-0.814659 -15.478516,-0.588365 -2.081906,0.226294 -14.120752,1.267247 -14.482823,1.267247 -0.36207,0 -0.633623,-0.588365 -0.633623,-0.588365 z"
             id="path28" /><path
             style="fill:#fbf5c5;fill-opacity:1;stroke-width:2.18953;stroke-linejoin:round;stroke-miterlimit:3.1;paint-order:markers stroke fill"
             d="m 83.905904,25.687207 v 1.629317 c 0,0 12.762987,1.086212 14.392305,0 1.629317,-1.086211 2.443981,-6.607787 2.081901,-6.698305 -0.36207,-0.09052 -7.331924,-1.357765 -11.314701,-0.814659 -3.982776,0.543106 -0.995694,5.340541 -0.995694,5.340541 z"
             id="path36" /><path
             style="fill:#eec319;fill-opacity:1;stroke-width:2.18953;stroke-linejoin:round;stroke-miterlimit:3.1;paint-order:markers stroke fill"
             d="m 73.839908,6.6884911 c 0,0 -1.472136,0.3200283 0.928081,-0.3520311 2.400209,-0.6720587 2.528222,-2.5922283 2.528222,-2.5922283 0,0 -9.056796,-0.7040621 -9.44083,-0.4160365 -0.384034,0.2880257 -22.850017,1.4721297 -22.850017,1.4721297 l -0.57605,0.6080534 -8.064711,21.8899267 0.928082,1.792162 h 1.600141 c 0,0 -1.152101,-1.248115 -0.864076,-1.312122 0.288026,-0.06401 21.217869,-1.632141 26.466334,-1.632141 5.248459,0 3.712324,-1.664149 3.712324,-1.664149 0,0 0.384033,-4.096358 1.792155,-7.104621 C 71.407691,14.369171 73.13584,6.6244857 73.13584,6.6244857 Z"
             id="path37" /><path
             style="fill:#a8890c;fill-opacity:1;stroke-width:2.18953;stroke-linejoin:round;stroke-miterlimit:3.1;paint-order:markers stroke fill"
             d="m 45.549053,5.9996199 c 0,0 -0.701511,0.3394412 -0.407329,1.1314706 0.294182,0.7920293 0.74677,1.5161704 0.74677,1.5161704 0,0 3.530188,-0.4299587 6.698306,-0.4299587 3.168117,0 5.0011,-0.4299588 7.626111,-0.4073294 2.625012,0.022629 7.716629,0.3168117 9.029135,0.497847 1.312506,0.1810353 1.312506,0.1357765 1.448282,0.2036647 0.135777,0.067888 0.135777,0.067888 0.135777,0.067888 0,0 0.203664,-1.6745763 0.02259,-1.6972058 -0.181035,-0.022629 -1.5388,0.6788824 -1.448282,-0.4073293 0.09052,-1.0862117 0.158405,-1.3125058 0.158405,-1.3125058 z"
             id="path38" /><path
             style="fill:#f3b052;fill-opacity:1;stroke-width:2.18953;stroke-linejoin:round;stroke-miterlimit:3.1;paint-order:markers stroke fill"
             d="m 72.274387,26.411348 1.448282,1.5388 c 0,0 14.935411,-1.357765 18.465599,-1.131471 3.530188,0.226295 12.989282,0.633624 12.989282,0.633624 0,0 1.76509,-0.316812 0.45259,-0.950435 -1.31251,-0.633624 -17.922495,-0.588365 -19.416036,-0.543106 -1.493541,0.04526 -11.541,0.995694 -11.541,0.995694 0,0 0,-0.543106 -0.905176,-0.543106 -0.905176,0 -1.493541,0 -1.493541,0 z"
             id="path39" /><path
             style="fill:#b69c60;fill-opacity:1;stroke-width:2.18953;stroke-linejoin:round;stroke-miterlimit:3.1;paint-order:markers stroke fill"
             d="m 40.044928,20.513711 c 0,0 -2.560225,4.160364 -0.704062,4.864425 1.856163,0.704061 23.810095,0.960088 25.09021,0.128014 1.280115,-0.832075 0.768067,-2.496223 0.768067,-2.496223 0,0 -2.944256,0.768067 -3.52031,0.768067 -0.57605,0 -7.552665,-0.192013 -7.552665,-0.192013 l -1.664146,0.960081 -0.192017,-0.960081 c 0,0 -10.56093,0.128006 -11.136981,0.128006 -0.576051,0 -0.128011,-4.032351 -0.128011,-4.032351 l -1.344119,2.240196 z"
             id="path44" /><path
             style="fill:url(#linearGradient57);fill-opacity:1;stroke-width:2.18953;stroke-linejoin:round;stroke-miterlimit:3.1;paint-order:markers stroke fill"
             d="m 66.435999,32.113959 c 0,0 0.724141,4.661659 0.226294,4.797435 -0.497847,0.135777 -4.254329,-1.855611 -2.715529,1.855612 1.5388,3.711223 3.122858,0.859918 3.122858,0.859918 l 0.226295,11.178928 c 0,0 -7.422447,-0.633623 -11.314706,-0.995694 -3.892258,-0.36207 -5.883646,0.09052 -5.883646,0.09052 0,0 1.221988,-1.403023 -0.04526,-1.403023 -1.267247,0 -4.797435,0 -4.797435,0 v 0.905176 l -6.9246,0.316812 1.357765,-1.991388 -2.443976,1.855611 c 0,0 -1.584059,-8.961246 -1.584059,-9.821164 0,-0.859917 4.571141,-1.086212 4.571141,-1.086212 l 0.814659,2.262941 -0.181036,-2.760788 -3.168117,-0.09052 -1.493541,0.543106 c 0,0 -1.312506,-2.353459 -0.316812,-3.394412 0.995694,-1.040953 -0.316812,-2.851306 1.403024,-2.896564 1.719835,-0.04526 12.26514,-1.5388 15.025928,-1.5388 2.760788,0 7.512964,-0.09052 7.739258,0.226294 0.226294,0.316811 0.226294,0.316811 0.226294,0.316811 0,0 0.04526,0.497848 0.271553,0.40733 0.226294,-0.09052 0.452589,-0.497847 0.950436,-0.497847 0.497847,0 4.933211,0.859917 4.933211,0.859917 z"
             id="path55" /><path
             style="fill:#fbce64;fill-opacity:1;stroke-width:1.81821;stroke-linejoin:round;stroke-miterlimit:3.1;paint-order:markers stroke fill"
             d="m 89.328142,36.41362 c 0,0.128014 -0.15448,11.329 0.617915,11.77704 0.7724,0.448034 1.633071,1.216101 1.765484,-0.736067 0.132408,-1.952176 -0.551715,-13.281169 -0.639986,-13.153162 -0.08828,0.128014 -0.529644,1.632149 -0.728263,1.984176 -0.198617,0.352033 -0.242754,-0.928081 -0.242754,-0.928081 z"
             id="path57" /><path
             style="fill:#fbce64;fill-opacity:1;stroke-width:2.18953;stroke-linejoin:round;stroke-miterlimit:3.1;paint-order:markers stroke fill"
             d="m 73.519873,30.434582 -2.944256,0.128014 c 0,0 0.384034,6.016526 0.384034,7.424655 0,1.408121 1.536135,-4.096365 1.856162,-5.312473 0.320027,-1.216108 0.70406,-1.664142 0.70406,-1.664142 z"
             id="path58" /><path
             style="fill:#fbce64;fill-opacity:1;stroke-width:2.18953;stroke-linejoin:round;stroke-miterlimit:3.1;paint-order:markers stroke fill"
             d="m 72.239763,36.963155 c 0,0 -0.576047,1.152101 -0.768068,2.048182 -0.192013,0.896082 -0.576047,6.464568 -0.192013,5.632501 0.384034,-0.832075 0.960081,-7.680683 0.960081,-7.680683 z"
             id="path59" /><path
             style="fill:url(#linearGradient61);fill-opacity:1;stroke-width:2.18953;stroke-linejoin:round;stroke-miterlimit:3.1;paint-order:markers stroke fill"
             d="m 101.49034,33.730872 c 0,0 0.35203,3.296291 1.08809,3.296291 0.73607,0 4.35239,-1.536135 4.60842,-1.760155 0.25602,-0.224021 0.64005,-2.080183 0.64005,-2.080183 0,0 -1.0881,0.896081 -2.2082,1.216108 -1.1201,0.320027 -0.70406,-0.832074 -0.70406,-0.832074 z"
             id="path60" /><path
             style="fill:#e9cd06;fill-opacity:1;stroke-width:2.18953;stroke-linejoin:round;stroke-miterlimit:3.1;paint-order:markers stroke fill"
             d="m 96.881933,3.9362486 c -4.608405,2.880254 -3.008263,2.8162486 -6.528574,4.7364174 -3.52031,1.920167 -13.889222,6.528572 -3.456303,7.104626 10.432918,0.576047 12.801128,5.504486 15.617374,-0.128014 2.81625,-5.632492 0.70406,-10.3049051 0.70406,-10.3049051 L 97.009947,4.256277 Z"
             id="path62" /><path
             style="fill:#827203;fill-opacity:1;stroke-width:2.18953;stroke-linejoin:round;stroke-miterlimit:3.1;paint-order:markers stroke fill"
             d="m 102.00943,25.777725 c 0,0 0.36207,0.814658 0.2263,1.267247 -0.13578,0.452588 -0.40733,0.724141 -0.40733,0.724141 0,0 2.8513,-0.09052 2.8513,-0.316812 0,-0.226294 -0.18103,-1.357765 -0.18103,-1.357765 z"
             id="path63" /><path
             style="fill:#9b4900;fill-opacity:1;stroke-width:2.18953;stroke-linejoin:round;stroke-miterlimit:3.1;paint-order:markers stroke fill"
             d="m 44.168659,32.657065 0.271553,16.745764 20.456987,1.086212 c 0,0 0.452588,-15.206964 0.271553,-16.293176 -0.181035,-1.086212 -4.163811,0.452588 -4.435364,0.905177 -0.271553,0.452588 0.452588,-2.081906 1.176729,-2.262941 0.724141,-0.181036 1.448282,-0.724142 1.448282,-0.724142 l -15.206964,-0.09052 z"
             id="path67" /><path
             style="fill:#da630e;fill-opacity:1;stroke-width:2.18953;stroke-linejoin:round;stroke-miterlimit:3.1;paint-order:markers stroke fill"
             d="m 85.146639,28.969137 c 0.344266,0.363013 0.473138,0.93357 -0.426076,1.062917 -1.467425,0.211081 -1.855612,1.448282 -1.855612,1.448282 0,0 2.67027,-0.135777 2.851306,-0.7694 0.181035,-0.633623 0.181035,-2.036647 0.181035,-2.036647 z"
             id="path79"
             sodipodi:nodetypes="cscscc" /><path
             style="fill:#9a460a;fill-opacity:1;stroke-width:2.18953;stroke-linejoin:round;stroke-miterlimit:3.1;paint-order:markers stroke fill"
             d="m 86.666692,29.760501 c 0,0 -0.633624,0.995694 -0.995694,1.629317 -0.362071,0.633624 -1.765094,0.814659 -1.765094,0.814659 0,0 1.855611,0.181035 2.127164,-0.316812 0.271553,-0.497847 0.633624,-2.127164 0.633624,-2.127164 z"
             id="path80" /><path
             style="opacity:0.443277;mix-blend-mode:normal;fill:#da630e;fill-opacity:1;stroke-width:2.18953;stroke-linejoin:round;stroke-miterlimit:3.1;paint-order:markers stroke fill;filter:url(#filter81)"
             d="m 98.035753,40.178023 c 0,0 -4.435364,2.172424 -4.344847,-2.081906 0.09052,-4.254329 -3.620705,-2.987082 -0.814658,-7.603481 2.806047,-4.6164 7.331932,-6.517271 7.150892,-3.530188 -0.181027,2.987082 1.99139,1.629317 1.90087,3.43967 -0.0905,1.810353 -0.27155,2.806047 -0.27155,2.806047 l -2.71553,0.814659 z"
             id="path81" /><path
             style="opacity:0.443277;fill:#ad4e0b;fill-opacity:1;stroke-width:2.18953;stroke-linejoin:round;stroke-miterlimit:3.1;paint-order:markers stroke fill"
             d="m 98.834109,45.82794 c 0,0 -0.704068,4.544398 -1.824162,1.696148 -1.120101,-2.84825 -2.432216,-10.112891 -1.632149,-10.432918 0.800075,-0.320027 4.896432,0.06401 4.896432,0.06401 l -0.064,1.664141 c 0,0 -1.024098,-0.384033 -0.800078,0.928089 0.22402,1.312114 -0.576047,6.080533 -0.576047,6.080533 z"
             id="path82" /><path
             style="opacity:0.443277;fill:#fbf9c1;fill-opacity:1;stroke-width:2.18953;stroke-linejoin:round;stroke-miterlimit:3.1;paint-order:markers stroke fill"
             d="M 78.128286,4.8003249 C 77.712245,5.0883506 77.584231,5.6003951 76.880171,5.9524262 76.17611,6.3044573 77.232205,6.5284769 82.160637,6.2724546 87.089069,6.0164323 92.945589,5.8564181 93.041596,5.6644013 93.137602,5.4723844 92.881582,4.8963337 92.881582,4.8963337 Z"
             id="path83" /><path
             style="opacity:1;fill:#283048;fill-opacity:1;stroke-width:2.18953;stroke-linejoin:round;stroke-miterlimit:3.1;paint-order:markers stroke fill"
             d="m 56.207506,37.273465 c 0,0 2.081905,-0.09052 2.081905,-0.497847 0,-0.407329 -0.452588,-1.267247 -0.452588,-1.267247 0,0 0.724141,-0.09052 0.588365,-0.452588 -0.135777,-0.362071 -0.181036,-0.362071 -0.181036,-0.362071 l -0.859917,0.04526"
             id="path93" /><path
             style="opacity:1;fill:#283048;fill-opacity:1;stroke-width:2.18953;stroke-linejoin:round;stroke-miterlimit:3.1;paint-order:markers stroke fill"
             d="m 57.497382,34.693712 -0.06789,-1.403023 c 0,0 0.565735,0.181035 0.429958,-0.362071 -0.135776,-0.543106 -0.429958,-0.316812 -0.429958,-0.316812 0,0 -0.113147,-1.040952 -0.40733,-1.018323 -0.294182,0.02259 -5.951535,-0.339441 -7.331929,0.248924 -1.380394,0.588364 -1.244617,1.154099 -1.244617,1.154099 l 8.486029,3.824371 z"
             id="path94" /></g><g
           inkscape:groupmode="layer"
           id="layer1-5"
           inkscape:label="Body O"
           style="display:inline"><path
             style="display:inline;fill:#ca651f;fill-opacity:1;stroke-width:0.799999;stroke-linejoin:round;stroke-miterlimit:3.1;paint-order:markers stroke fill"
             d="m 29.40182,38.397653 -0.03307,-7.309114 1.058333,-0.760677 -0.694531,-0.727605 1.35599,-7.242968 -0.132292,-0.330729 c 0,0 -1.81901,7.672916 -1.719792,7.838281 0.09922,0.165364 0.56224,0.330729 0.56224,0.330729 l -0.760677,0.661458 -0.165365,7.805208 0.56224,0.09922 z"
             id="path2-9" /><path
             id="path1-1"
             style="display:inline;fill:url(#linearGradient40);stroke-width:0.799999;stroke-linejoin:round;stroke-miterlimit:3.1;paint-order:markers stroke fill"
             d="m 30.39401,21.034375 -10.087239,0.661458 -3.472656,8.532813 0.46302,0.429947 -0.496093,0.496094 c 0,0 -0.170634,7.654749 0.463021,7.573698 4.039216,-0.516656 12.336197,0.429948 12.336197,0.429948 l 0.595313,0.694531 1.058333,-0.165364 0.661459,-1.091407 0.628385,-4.530989 3.307292,-0.926042 c 0,0 -0.02604,4.684263 0.132291,5.291667 0.127263,0.488231 3.439584,0.330729 3.439584,0.330729 l 0.892968,-1.058333 0.264584,-3.042709 c 0.968975,-0.27941 2.035787,-0.405075 2.867312,-0.900477 l 0.373833,1.628081 -0.595312,2.778125 0.694531,-0.132291 0.859896,-2.414323 -0.429948,-3.638021 1.124479,-2.38125 c 0,0 -1.27944,-7.457668 -3.905358,-7.817246 C 38.145248,21.314062 30.39401,21.034375 30.39401,21.034375 Z m 0.56224,0.760677 c 0,0 8.251152,0.01557 10.624028,0.530828 2.15769,0.468529 3.101232,6.513703 3.101232,6.513703 l -0.562239,0.06615 0.264583,0.496094 0.529167,-0.06615 -1.016476,2.70216 0.470773,3.399793 -0.165365,-0.01654 -0.620117,-2.547131 -0.128163,0.236159 c -2.84753,1.636551 -1.200271,0.235644 -3.303157,1.021126 l -0.198438,3.175 -0.529166,0.79375 c 0,0 -2.7358,0.28848 -2.827735,-0.06615 -0.366229,-1.412679 -0.446484,-4.795573 -0.446484,-4.795573 l 0.496094,-0.198438 0.429948,-0.595312 -4.828646,0.760677 -1.091407,5.192448 -0.496093,0.529167 -0.628386,-0.463021 C 26.032462,38.343761 23.416066,38.037061 17.942052,38.116526 17.991662,37.587357 17.561714,37.70312 17.561714,37.70312 l -0.363802,-6.217709 0.661458,-0.529166 -0.463021,-0.892969 2.976563,-7.9375 z"
             sodipodi:nodetypes="cccccsccccccsccccccccccsccsccccccccccccscccccccccccccc" /><path
             style="display:inline;fill:#3d3522;fill-opacity:1;stroke-width:0.823764;stroke-linejoin:round;stroke-miterlimit:3.1;paint-order:markers stroke fill"
             d="m 18.150517,35.746905 c 0,0 -1.276998,-0.362484 0.161174,-0.385871 1.438172,-0.02339 3.744208,-0.491106 4.078955,-0.04677 0.334746,0.444333 0.223164,0.876977 0.384339,0.92375 0.161174,0.04677 2.479608,0.245552 2.516802,0.152008 0.0372,-0.09354 -1.351387,-0.958828 0.644697,-1.169305 1.996084,-0.210473 3.521044,0.140317 3.682217,0.42095 0.161176,0.280633 -0.362506,-0.904902 0.223166,0.479414 0.529904,1.252501 -2.058076,0.900364 -4.413702,0.923751 -2.355628,0.02339 -5.008807,-0.327404 -5.008807,-0.327404 z"
             id="path96"
             sodipodi:nodetypes="csssssssscc" /><path
             id="path64"
             style="display:inline;fill:url(#linearGradient66);fill-opacity:1;stroke-width:0.799999;stroke-linejoin:round;stroke-miterlimit:3.1;paint-order:markers stroke fill"
             d="m 30.907157,21.055046 c -0.644487,0.281288 -1.284177,0.550896 -1.909444,0.800984 l 1.958537,-0.06098 c 0,0 2.091245,0.0043 4.470528,0.0739 -0.289071,-0.208708 -0.576991,-0.424352 -0.86403,-0.642854 -1.818048,-0.09759 -3.094395,-0.149423 -3.655591,-0.17105 z m 8.209835,0.476456 c 0.0046,0.177277 0.0132,0.340001 0.01912,0.512631 0.921151,0.06564 1.728801,0.147555 2.280998,0.252697 0.142724,-0.151368 0.292935,-0.297896 0.453719,-0.436666 -0.09854,-0.03488 -0.198104,-0.06294 -0.300757,-0.077 -0.673304,-0.0922 -1.537084,-0.174785 -2.45308,-0.251665 z m -17.225305,0.06046 -1.584916,0.103869 -3.472656,8.532813 0.46302,0.429948 -0.496093,0.496094 c 0,0 -0.170634,7.654748 0.463021,7.573697 1.110425,-0.142034 2.544846,-0.171181 4.037996,-0.14211 -0.136844,-0.155857 -0.275698,-0.309334 -0.404627,-0.472839 -0.900914,-0.01045 -1.859373,-0.01281 -2.955375,0.0031 0.04961,-0.529168 -0.380338,-0.413411 -0.380338,-0.413411 l -0.363802,-6.217708 0.661458,-0.529167 -0.463021,-0.892969 0.800468,-2.134236 c 0.0088,-0.02204 0.01561,-0.04789 0.02532,-0.06821 l 2.150773,-5.735051 1.8526,-0.05788 c -0.119785,-0.151634 -0.23259,-0.309202 -0.33383,-0.47594 z m 22.460128,5.662703 c 0.21562,0.900216 0.329695,1.584916 0.329695,1.584916 l -0.562239,0.06615 0.264583,0.496094 0.529167,-0.06615 -0.292489,0.77773 c 0.23822,-0.01876 0.441099,-0.04184 0.642855,-0.06459 L 45.47526,29.60026 c 0,0 -0.153616,-0.845236 -0.435632,-1.949235 -0.22656,-0.130452 -0.431799,-0.253897 -0.687813,-0.396358 z m -2.177128,6.527767 c -0.699386,0.306741 -0.624594,0.06793 -1.0542,0.09095 -0.01824,0.01189 -0.03654,0.02093 -0.05478,0.03411 -0.244539,0.176611 -0.578646,0.509478 -0.958081,0.906921 L 39.952083,37.30625 39.422917,38.1 c 0,0 -1.888484,0.198455 -2.578138,0.0615 -0.170762,0.158545 -0.339878,0.317551 -0.517797,0.47439 0.872319,0.230893 3.095935,0.125573 3.095935,0.125573 l 0.892968,-1.058333 0.264584,-3.042708 c 0.715984,-0.206459 1.484568,-0.330046 2.172994,-0.57981 -0.193278,-0.12569 -0.386171,-0.228014 -0.578776,-0.298173 z m 1.498099,0.956531 0.148828,0.649056 -0.595312,2.778125 0.694531,-0.132292 0.859896,-2.414323 -0.03979,-0.338997 c -0.138676,-0.03004 -0.277101,-0.07644 -0.414962,-0.142627 l 0.04134,0.299723 -0.165365,-0.01654 -0.09767,-0.401526 c -0.144235,-0.08436 -0.287998,-0.178064 -0.431499,-0.280603 z" /><path
             style="fill:#b84c0b;fill-opacity:1;stroke-width:0.831241;stroke-linejoin:round;stroke-miterlimit:3.1;paint-order:markers stroke fill"
             d="m 38.762433,29.01537 c 0,0 0.292326,4.052769 0.689889,4.835468 0.397563,0.782699 0.491109,0.30298 0.491109,0.30298 l 0.327403,-0.403972 0.07016,-0.378727 c 0,0 -0.09354,0.782699 -0.420949,-0.126241 -0.327406,-0.908941 -0.678196,-4.494207 -0.678196,-4.494207 l -0.350793,0.126244 z"
             id="path74"
             sodipodi:nodetypes="cscccsccc" /><path
             style="fill:#0b3503;fill-opacity:1;stroke-width:0.799999;stroke-linejoin:round;stroke-miterlimit:3.1;paint-order:markers stroke fill"
             d="m 39.86158,30.633252 c 0,0 0.210473,0.830207 0.432641,0.900364 0.222168,0.07016 0.18709,-0.678196 0.397566,-0.818513 0.210473,-0.140316 0.958828,-0.01169 1.028985,-0.315711 0.07016,-0.30402 0.175398,-0.643118 -0.02339,-0.619731 -0.198781,0.02339 -1.110837,-0.233863 -1.39147,-0.09355 -0.280633,0.140316 -0.285521,0.235582 -0.362485,0.397564 -0.07948,0.16729 -0.08185,0.549577 -0.08185,0.549577 z"
             id="path75"
             sodipodi:nodetypes="cssssssc" /><path
             style="fill:url(#linearGradient77);fill-opacity:1;stroke-width:0.799999;stroke-linejoin:round;stroke-miterlimit:3.1;paint-order:markers stroke fill"
             d="m 41.147814,30.387697 c 0.04677,-0.02339 0.245555,-0.631423 0.04677,-0.584652 -0.198782,0.04677 -0.245552,-0.23386 -0.643115,0.05847 -0.397565,0.292325 -0.619733,0.397563 -0.502801,0.689888 0.11693,0.292328 0.245552,0.806821 0.315712,0.584653 0.07016,-0.222168 0.198781,-0.65481 0.280633,-0.666504 0.08185,-0.01169 0.5028,-0.08185 0.5028,-0.08185 z"
             id="path76" /><path
             style="fill:#9a460a;fill-opacity:1;stroke-width:0.799999;stroke-linejoin:round;stroke-miterlimit:3.1;paint-order:markers stroke fill"
             d="m 39.686185,23.523882 0.01169,-1.297927 c 0,0 -0.210473,-0.257247 -0.35079,-0.04677 -0.140316,0.210475 0.210474,1.368085 0.210474,1.368085 z"
             id="path77" /><path
             style="opacity:1;fill:url(#linearGradient98);fill-opacity:1;stroke-width:0.799999;stroke-linejoin:round;stroke-miterlimit:3.1;paint-order:markers stroke fill"
             d="m 33.502864,32.54375 0.628386,-0.03307 c 0,0 -0.363802,-2.612761 -0.330729,-3.307292 0.03307,-0.694531 0.132291,-5.523177 0.132291,-5.853906 0,-0.330729 -0.06615,-1.322917 -0.198437,-1.322917 -0.132292,0 -0.463021,6.548438 -0.429948,7.309115 0.03307,0.760677 0.198437,3.208073 0.198437,3.208073 z"
             id="path97" /><path
             style="display:inline;fill:#827203;fill-opacity:1;stroke-width:0.8;stroke-linejoin:round;stroke-miterlimit:3.1;paint-order:markers stroke fill"
             d="m 35.515954,29.274517 c 0,0 0.132291,0.297656 0.08268,0.463021 -0.04961,0.165364 -0.148828,0.264583 -0.148828,0.264583 0,0 1.041795,-0.03307 1.041795,-0.115755 0,-0.08268 -0.06614,-0.496094 -0.06614,-0.496094 z"
             id="path63-5" /><path
             style="display:inline;fill:#0b3503;fill-opacity:1;stroke-width:0.799999;stroke-linejoin:round;stroke-miterlimit:3.1;paint-order:markers stroke fill"
             d="m 34.351818,30.366026 c 0,0 0.210473,0.830207 0.432641,0.900364 0.222168,0.07016 0.18709,-0.678196 0.397566,-0.818513 0.210473,-0.140316 0.958828,-0.01169 1.028985,-0.315711 0.07016,-0.30402 0.175398,-0.643118 -0.02339,-0.619731 -0.198781,0.02339 -1.110837,-0.233863 -1.39147,-0.09355 -0.280633,0.140316 -0.285521,0.235582 -0.362485,0.397564 -0.07948,0.16729 -0.08185,0.549577 -0.08185,0.549577 z"
             id="path75-2"
             sodipodi:nodetypes="cssssssc" /><path
             style="display:inline;fill:url(#linearGradient99);fill-opacity:1;stroke-width:0.799999;stroke-linejoin:round;stroke-miterlimit:3.1;paint-order:markers stroke fill"
             d="m 35.638052,30.120471 c 0.04677,-0.02339 0.245555,-0.631423 0.04677,-0.584652 -0.198782,0.04677 -0.245552,-0.23386 -0.643115,0.05847 -0.397565,0.292325 -0.619733,0.397563 -0.502801,0.689888 0.11693,0.292328 0.245552,0.806821 0.315712,0.584653 0.07016,-0.222168 0.198781,-0.65481 0.280633,-0.666504 0.08185,-0.01169 0.5028,-0.08185 0.5028,-0.08185 z"
             id="path76-8" /></g></g><g
         inkscape:groupmode="layer"
         id="layer9"
         inkscape:label="Additionals"
         transform="matrix(2.7369113,0,0,2.7369113,-10.77555,-55.326081)"
         style="display:inline"><g
           inkscape:groupmode="layer"
           id="layer10"
           inkscape:label="Additionals F"><path
             style="fill:#6495a9;fill-opacity:1;stroke-width:0.799999;stroke-linejoin:round;stroke-miterlimit:3.1;paint-order:markers stroke fill"
             d="m 19.645311,28.409633 c 0,0 0.578776,-1.951302 0.74414,-2.66237 0.165365,-0.711068 0.314193,-2.315104 0.314193,-2.315104 0,0 0.959114,-0.04961 1.719791,-0.165365 0.760677,-0.115755 3.45612,-0.214974 3.522266,-0.214974 0.06614,0 0.686262,0.02481 2.067057,0.07442 1.380794,0.04961 1.785937,0.264583 1.785937,0.264583 0,0 -0.928579,3.535738 -1.010428,3.757906 -0.08185,0.222168 -0.07016,0.198781 -0.105238,0.315711 -0.03508,0.11693 0.07016,0.806821 -0.257246,0.865286 -0.327406,0.05846 -4.548594,0.198781 -4.911078,0.163703 -0.362484,-0.03508 -3.869394,-0.08379 -3.869394,-0.08379 z"
             id="path15" /><path
             style="display:inline;fill:url(#linearGradient74);fill-opacity:1;stroke-width:0.78176;stroke-linejoin:round;stroke-miterlimit:3.1;paint-order:markers stroke fill"
             d="m 29.164275,24.293691 c 0.06615,0.315821 -0.214973,0.710597 -0.330729,0.789552 -0.115755,0.07895 -0.529166,1.468565 -0.727604,1.879132 -0.198437,0.410566 0.08268,0.378984 -0.01654,0.631641 -0.09922,0.252656 -0.264584,0.568477 -0.661459,0.221074 -0.396875,-0.347402 -0.281119,-0.142119 -1.53789,-0.07895 -1.256771,0.06317 -3.73724,-0.426358 -4.365625,-0.205283 -0.628386,0.221074 -1.389063,0.142119 -0.992188,-0.07895 0.396875,-0.221075 0.562239,-2.337072 0.562239,-2.431819 0,-0.09475 -0.115754,-0.963252 0.165365,-0.868506 0.28112,0.09475 0.165365,0.252657 1.190625,0.221074 3.810596,-0.117384 5.771224,-0.679013 6.11849,-0.600059 0.347266,0.07895 0.595312,0.521104 0.595312,0.521104 z"
             id="path73"
             sodipodi:nodetypes="sssssssssssscs" /><path
             style="fill:#abb3ca;fill-opacity:1;stroke-width:0.799999;stroke-linejoin:round;stroke-miterlimit:3.1;paint-order:markers stroke fill"
             d="m 21.332029,28.37656 c 0,0 4.150651,-1.35599 4.316015,-1.554427 0.165365,-0.198438 0.79375,-0.396875 0.892969,-0.28112 0.09922,0.115755 0.760677,0.198437 0.942578,-0.132292 0.181901,-0.330729 -0.396875,-0.677995 -0.396875,-0.677995 l 2.513542,-1.554427 0.214974,-0.826823 c 0,0 -0.711068,-0.330728 -1.058334,-0.1819 -0.347265,0.148828 -2.348177,1.554426 -3.505729,2.033984 -1.157552,0.479557 -1.736327,0.380338 -2.315104,0.760677 -0.578776,0.380338 0.214974,0.165364 0.214974,0.165364 l -3.505728,2.000912 -0.04961,0.314193 z"
             id="path16" /><path
             style="display:inline;fill:#97ccd6;fill-opacity:0.818584;stroke-width:0.799999;stroke-linejoin:round;stroke-miterlimit:3.1;paint-order:markers stroke fill"
             d="m 20.137679,28.511036 c 0.42095,-0.245554 3.414368,-2.256758 3.952248,-2.514005 0.53788,-0.257246 2.45554,-1.192688 2.45554,-1.192688 0,0 0.409255,0.280633 0.818512,0.268938 0.409258,-0.01169 -0.584652,0.514496 -0.596344,0.608039 -0.01169,0.09354 0.92375,0.350793 0.05846,0.537879 -0.865286,0.18709 -0.514495,-0.128621 -1.473324,0.30402 -0.95883,0.432644 -4.010714,1.800728 -4.010714,1.800728 z"
             id="path99" /><path
             style="fill:#6495a9;fill-opacity:1;stroke-width:0.799999;stroke-linejoin:round;stroke-miterlimit:3.1;paint-order:markers stroke fill"
             d="m 32.085703,23.290019 0.339098,-0.05847 c 0,0 0.04677,0.385871 0.140317,0.795126 0.09355,0.409258 0.292327,1.812422 0.152011,2.303529 -0.140317,0.491109 -0.07016,2.046282 -0.128625,2.116441 -0.05846,0.07016 -1.496708,0.05846 -1.496708,0.05846 0,0 0.03508,-2.607548 0.09354,-2.899873 0.05847,-0.292327 0.572958,-1.905965 0.631426,-1.987817 0.05846,-0.08185 0.268938,-0.327406 0.268938,-0.327406 z"
             id="path18" /><path
             style="fill:#6495a9;fill-opacity:1;stroke-width:0.799999;stroke-linejoin:round;stroke-miterlimit:3.1;paint-order:markers stroke fill"
             d="m 36.318584,23.868824 c 0,0.02923 0.02029,2.34146 -0.0045,3.027723 -0.02479,0.686263 -0.04961,1.893424 -0.04961,1.893424 l -2.455664,-0.02479 c 0,0 -0.04961,-1.711524 0.03307,-2.794662 0.08268,-1.083138 0.06615,-2.513541 0.06615,-2.513541 z"
             id="path19" /><path
             style="fill:#6495a9;fill-opacity:1;stroke-width:0.799999;stroke-linejoin:round;stroke-miterlimit:3.1;paint-order:markers stroke fill"
             d="m 37.686586,23.556182 c 0,0 1.785937,-0.09922 1.885156,0 0.09922,0.09922 0.157096,0.165365 0.157096,0.165365 l 0.289388,4.919596 -2.265495,0.09095 c 0,0 -0.347265,-3.423047 -0.281119,-3.704167 0.06614,-0.28112 0.214974,-1.471745 0.214974,-1.471744 z"
             id="path20" /><path
             style="fill:#6495a9;fill-opacity:1;stroke-width:0.799999;stroke-linejoin:round;stroke-miterlimit:3.1;paint-order:markers stroke fill"
             d="m 41.200583,23.795961 c 0,0 0.446484,-0.181901 0.744138,-0.06615 0.297656,0.115755 0.363802,0.07441 0.429948,0.223242 0.06615,0.148828 1.231966,4.812109 1.198893,4.828646 -0.03307,0.01654 -0.537435,0.07441 -1.091406,0.05788 -0.553972,-0.01654 -1.149281,-0.05788 -1.182354,-0.124024 -0.03307,-0.06615 -0.157097,-3.464388 -0.173633,-3.604948 -0.01654,-0.14056 0.07441,-1.314648 0.07441,-1.314648 z"
             id="path21" /><path
             style="fill:#685232;fill-opacity:1;stroke-width:0.799999;stroke-linejoin:round;stroke-miterlimit:3.1;paint-order:markers stroke fill"
             d="m 43.358588,29.492771 0.367938,0.487825 c 0,0 0.190169,-0.235646 0.252179,-0.409279 0.06201,-0.173632 0.04134,-0.694531 0.08682,-0.938442 0.04547,-0.243914 0.03721,-0.983919 0.119888,-1.182357 0.08268,-0.198437 -0.11162,-0.438216 0.260451,-0.454753 0.37207,-0.01654 2.517674,0.322461 2.53421,0.343131 0.01654,0.02066 -0.219106,1.839682 -0.272851,1.893424 -0.05374,0.05374 -1.670182,-0.276984 -1.773534,-0.239779 -0.103354,0.03721 -0.297656,0.194305 -0.297656,0.194305 0,0 -0.124024,0.442349 -0.355534,0.731737 -0.23151,0.289388 -0.587044,0.620117 -0.587044,0.620117 0,0 -0.19017,-0.08268 -0.235646,-0.132291 -0.04547,-0.04961 -0.181901,-0.310058 -0.194302,-0.450618 -0.01241,-0.140559 0.07855,-0.491961 0.07855,-0.491961 z"
             id="path22" /><path
             style="fill:#553508;fill-opacity:1;stroke-width:0.799999;stroke-linejoin:round;stroke-miterlimit:3.1;paint-order:markers stroke fill"
             d="m 46.012118,29.148235 v -1.087453 l 0.608039,-0.619731 -0.128624,-0.02339 -0.572958,0.339098 c 0,0 -0.152009,-0.198781 -0.397563,-0.187087 -0.245555,0.01169 -1.274543,-0.03508 -1.274543,-0.03508 0,0 -0.209881,0.850236 -0.218149,1.214038 -0.0083,0.363802 -0.02479,0.595312 -0.03307,0.649055 -0.0083,0.05374 0.219107,0.148828 0.219107,0.148828 0,0 -0.256315,0.496094 -0.318326,0.54157 -0.06201,0.04547 -0.173633,0.115755 -0.173633,0.115755 l 0.239779,0.14056 c 0,0 0.649055,-0.983919 0.694531,-1.083138 0.04547,-0.09922 0.02066,-0.252182 0.297657,-0.256315 0.276984,-0.0041 1.037661,0.14056 1.037661,0.14056 z"
             id="path24" /><path
             style="fill:#a3b9b4;fill-opacity:1;stroke-width:0.799999;stroke-linejoin:round;stroke-miterlimit:3.1;paint-order:markers stroke fill"
             d="m 21.456055,32.378385 0.06615,1.49655 c 0,0 1.339454,-0.05788 1.670183,-0.07441 0.330729,-0.01654 1.240234,0.02479 1.240234,0.02479 l -0.0083,-1.653646 c 0,0 -2.422591,0.05788 -2.703711,0.124024 -0.28112,0.06615 -0.264583,0.08268 -0.264583,0.08268 z"
             id="path25" /><path
             style="fill:#a3b9b4;fill-opacity:1;stroke-width:0.799999;stroke-linejoin:round;stroke-miterlimit:3.1;paint-order:markers stroke fill"
             d="m 29.749088,37.314518 c 0,0 0.256315,-0.03307 0.148828,-0.322461 -0.107487,-0.289388 -0.504362,-0.818555 -0.504362,-0.818555 0,0 -2.736783,-0.330729 -3.282486,-0.289388 -0.545704,0.04134 -1.835547,0.05788 -1.835547,0.05788 l -0.198438,0.09095 0.28112,0.84336 c 0,0 -1.794206,-0.06615 -1.984375,-0.06615 -0.190169,0 -0.901237,-0.132292 -0.901237,-0.132292 0,0 0.115755,-0.248047 0.09095,-0.405143 -0.02481,-0.157096 -0.214974,-0.51263 -0.214974,-0.51263 0,0 -2.339909,-0.0083 -3.017904,0.06615 -0.677995,0.07441 -1.141016,0.124023 -1.141016,0.124023 0,0 -0.578776,1.256771 -0.347265,1.331185 0.23151,0.07441 1.513086,-0.05788 2.364713,0 0.851628,0.05788 4.646745,0.124023 5.291667,0.124023 0.644922,0 2.397786,-0.01654 3.084049,-0.0083 0.686263,0.0083 1.860352,-0.01654 1.860352,-0.01654 l 0.363802,-0.08268 z"
             id="path26" /><path
             style="fill:#a3aeca;fill-opacity:1;stroke-width:0.799999;stroke-linejoin:round;stroke-miterlimit:3.1;paint-order:markers stroke fill"
             d="m 34.098177,27.632422 2.182812,-2.463933 c 0,0 0.231511,2.14974 -0.03307,2.298568 -0.264583,0.148828 -2.282031,0.859896 -2.282031,0.859896 z"
             id="path45" /><path
             style="fill:#d4dbed;fill-opacity:1;stroke-width:0.799999;stroke-linejoin:round;stroke-miterlimit:3.1;paint-order:markers stroke fill"
             d="m 28.608073,23.696745 c 0,0 -1.190625,0.644922 -1.604037,1.02526 -0.413411,0.380339 -1.554427,1.223698 -1.554427,1.223698 0,0 2.480469,-1.372526 2.530078,-1.438672 0.04961,-0.06615 0.198438,0.297656 0.479558,0.08268 0.281119,-0.214974 0.23151,-0.446484 0.23151,-0.446484 l 0.413411,-0.479557 -0.347265,-0.06615 z"
             id="path54" /><path
             style="fill:#a3aeca;fill-opacity:1;stroke-width:0.799999;stroke-linejoin:round;stroke-miterlimit:3.1;paint-order:markers stroke fill"
             d="m 37.487891,25.675402 2.385381,-1.683798 c 0,0 0.210476,1.309622 0.02339,1.520095 -0.18709,0.210476 -1.239462,1.028988 -1.239462,1.028988 l 0.07016,-0.444336 c 0,0 -0.608036,0.280633 -0.724966,0.514493 -0.116933,0.233863 -0.327406,0.420952 -0.327406,0.420952 l -0.18709,-1.169304 z"
             id="path66" /><path
             style="fill:#0073a9;fill-opacity:1;stroke-width:0.799999;stroke-linejoin:round;stroke-miterlimit:3.1;paint-order:markers stroke fill"
             d="m 33.916276,23.961328 c 0,0 0.314192,0.396875 0.479557,0.396875 0.165365,0 0.330729,-0.198437 0.330729,-0.198437 l 1.30638,0.181901 -0.148828,3.571875 c 0,0 -0.08268,0.01654 -0.08268,0.479557 0,0.463021 0.51263,0.446484 0.51263,0.446484 l -0.08268,-2.513541 0.181901,-2.563151 c 0,0 0,0.297656 -0.23151,0.297656 -0.231511,0 -1.223698,-0.132292 -1.223698,-0.132292 l 0.01654,-0.264583 -0.992187,-0.06615 z"
             id="path68" /><path
             style="fill:#0073a9;fill-opacity:1;stroke-width:0.833966;stroke-linejoin:round;stroke-miterlimit:3.1;paint-order:markers stroke fill"
             d="m 37.670052,23.881807 c 0,0 0.07072,0.369814 0.601064,0.369814 0.530351,0 1.202129,-0.08405 1.202129,-0.08405 0,0 0.08839,3.277897 0.123748,3.395565 0.03535,0.117669 0.265176,1.2103 0.265176,1.2103 l -0.106072,-1.613734 0.176783,0.218527 c 0,0 -0.31821,-2.555078 -0.335888,-2.723176 -0.01768,-0.168096 0.07072,-0.386623 0.07072,-0.386623 L 39.650028,23.865 c 0,0 -0.02463,-0.163398 -0.24339,-0.118824 -0.218758,0.04458 -0.196882,0.0832 -0.284386,0.0832 -0.0875,0 -1.4522,0.05243 -1.4522,0.05243 z"
             id="path69" /><path
             style="fill:#64ceff;fill-opacity:1;stroke-width:0.799999;stroke-linejoin:round;stroke-miterlimit:3.1;paint-order:markers stroke fill;filter:url(#filter70)"
             d="m 38.154395,27.05518 c 0,0 -0.175395,0.935445 0,1.040683 0.175395,0.105236 0.42095,0.09354 0.42095,0.09354 0,0 -0.03508,-0.701583 -0.152009,-0.526188 -0.116932,0.175395 -0.152011,-0.02339 -0.163703,-0.198781 -0.01169,-0.175395 -0.105238,-0.409258 -0.105238,-0.409258 z"
             id="path70" /><path
             style="fill:#7ba9be;fill-opacity:1;stroke-width:0.799999;stroke-linejoin:round;stroke-miterlimit:3.1;paint-order:markers stroke fill"
             d="m 41.369982,24.178694 c 0.678196,1.309618 0.748353,2.759556 1.028986,3.227279 0.280633,0.467722 0.467723,1.520095 0.514496,1.099145 0.04677,-0.420949 -0.467723,-2.712786 -0.608039,-3.227279 -0.140317,-0.514493 -0.397563,-1.286235 -0.491107,-1.286235 -0.09355,0 -0.444336,0.18709 -0.444336,0.18709 z"
             id="path71" /><path
             style="fill:#9abdcd;fill-opacity:1;stroke-width:0.799999;stroke-linejoin:round;stroke-miterlimit:3.1;paint-order:markers stroke fill"
             d="m 21.265885,24.83776 c 0,0 -1.289843,2.513542 -0.463021,2.612761 0.826823,0.09922 1.455209,0.529166 1.488282,0 0.03307,-0.529167 0.297656,-1.719792 -0.363802,-1.389063 -0.661459,0.330729 -0.496094,0.496094 -0.33073,-0.264583 0.165365,-0.760677 0.959115,-1.35599 0.297657,-1.058333 -0.661459,0.297656 -0.56224,0.396875 -0.56224,0.396875 z"
             id="path72" /><path
             style="opacity:0.443277;fill:url(#linearGradient93);fill-opacity:1;stroke-width:0.799999;stroke-linejoin:round;stroke-miterlimit:3.1;paint-order:markers stroke fill"
             d="m 29.115673,37.403524 c 0,0 0.315714,-0.268941 0.210476,-0.467723 -0.105238,-0.198781 0.923751,-0.491106 -0.514495,-0.397563 -1.438244,0.09354 -3.823624,-0.631425 -4.010712,-0.245554 -0.187089,0.385871 -0.02339,0.865285 -0.02339,0.865285 0,0 -2.80633,-0.09354 -3.145428,-0.09354 -0.339098,0 -0.993909,0.1637 -0.853592,0 0.140316,-0.163703 0.02339,-0.748356 -0.01169,-0.830207 -0.03508,-0.08185 -3.659922,0.09354 -3.659922,0.09354 l -0.280633,0.947137 c 0,0 2.256757,-0.02339 2.724478,0 0.467722,0.02339 1.976124,0.128625 2.630935,0.128625 0.65481,0 2.338608,0.02339 2.677706,0.01169 0.339099,-0.01169 4.256266,-0.01169 4.256267,-0.01169 z"
             id="path84" /><path
             style="opacity:0.443277;fill:url(#linearGradient91);fill-opacity:1;stroke-width:0.799999;stroke-linejoin:round;stroke-miterlimit:3.1;paint-order:markers stroke fill"
             d="m 24.33322,33.018632 c 0,0 1.017295,0.315714 -0.689889,0.105238 -1.707185,-0.210476 -2.081362,-0.689891 -1.88258,-0.467723 0.198782,0.222168 0.760048,0.689891 1.297927,0.806821 0.53788,0.11693 0.608039,0.491109 0.608039,0.491109"
             id="path85" /><path
             style="opacity:0.212185;fill:#071f69;fill-opacity:1;stroke-width:0.799999;stroke-linejoin:round;stroke-miterlimit:3.1;paint-order:markers stroke fill"
             d="m 24.146131,33.860531 c 0,0 0.42095,-1.531787 -0.105237,-1.333005 -0.526187,0.198781 -0.771741,-0.11693 -1.216077,0.292324 -0.444335,0.409258 -0.77174,1.075762 -0.77174,1.075762 0,0 1.426551,-0.08185 1.648719,-0.03508 0.222168,0.04677 0.444335,0 0.444335,-10e-7 z"
             id="path86" /><path
             style="opacity:1;fill:#222b18;fill-opacity:1;stroke-width:0.939085;stroke-linejoin:round;stroke-miterlimit:3.1;paint-order:markers stroke fill"
             d="m 22.255182,32.59336 -0.417346,0.126174 -0.0097,0.349406 0.223233,-0.27176 0.04853,0.54352 -0.08735,0.07765 c 0,0 0.06794,0.13588 0.106762,0.13588 0.03882,0 0.232938,-0.09705 0.232938,-0.09705 l -0.05823,-0.242643 c 0,0 -0.07765,0.20382 -0.07765,0.06794 0,-0.13588 -0.01942,-0.475581 -0.01942,-0.475581 l 0.07765,-0.145586 z"
             id="path87" /><path
             style="opacity:1;fill:#222b18;fill-opacity:1;stroke-width:0.939085;stroke-linejoin:round;stroke-miterlimit:3.1;paint-order:markers stroke fill"
             d="m 22.643411,32.894237 c 0.03882,0.291172 0.01942,0.582343 0.03882,0.533815 0.01941,-0.04853 0.145586,-0.397935 0.145586,-0.397935 l 0.310583,0.475581 c 0.08451,-0.166577 0.05246,-0.344807 0.0097,-0.524109 0,0 -0.04853,-0.388229 -0.05823,-0.164998 -0.0097,0.223232 0.05823,0.465875 -0.0097,0.397935 -0.06794,-0.06794 -0.271761,-0.40764 -0.271761,-0.40764 l -0.07765,0.155291 -0.07765,-0.13588 z"
             id="path88"
             sodipodi:nodetypes="ccccccccccc" /><path
             id="path89"
             style="opacity:1;fill:#222b18;fill-opacity:1;stroke-width:0.939085;stroke-linejoin:round;stroke-miterlimit:3.1;paint-order:markers stroke fill"
             d="m 23.83661,32.620657 c -0.0063,1.65e-4 -0.01274,6.07e-4 -0.0188,0.0018 -0.09706,0.01942 -0.213526,0.04853 -0.213526,0.04853 l -0.354616,0.809798 c 0,0 0.340165,-0.440587 0.340402,-0.349122 9.72e-4,0.375106 0.392737,0.218725 0.392737,0.218725 0,0 -0.04853,-0.09705 -0.252349,-0.213526 -0.20382,-0.11647 0.281467,-0.0291 0.300877,-0.223233 0.01821,-0.181981 -0.0999,-0.295479 -0.19472,-0.292991 z m -0.164391,0.166817 c 0,0 0.203822,0.06794 0.252349,0.09705 0.04853,0.02911 -0.184406,0.106763 -0.252349,0.106763 -0.06794,0 0,-0.203821 0,-0.203821 z"
             sodipodi:nodetypes="scccscssscssc" /><path
             style="opacity:1;fill:url(#linearGradient96);fill-opacity:1;stroke-width:0.799999;stroke-linejoin:round;stroke-miterlimit:3.1;paint-order:markers stroke fill"
             d="m 26.51982,35.930199 c 0.304017,0.456028 -0.900365,0.795129 0.514493,0.713277 1.414859,-0.08185 1.555175,-0.526187 1.555175,-0.526187 z"
             id="path95" /><path
             style="opacity:1;fill:#839d89;fill-opacity:0.818584;stroke-width:0.799999;stroke-linejoin:round;stroke-miterlimit:3.1;paint-order:markers stroke fill"
             d="m 46.281059,28.060782 c 0,0 0.350793,-0.163703 0.350793,-0.268938 0,-0.105238 0.07016,-0.222168 0.07016,-0.222168 l -0.18709,1.485016 c 0,0 -0.23386,-0.713277 -0.222168,-0.830207 0.01169,-0.11693 -0.0117,-0.163703 -0.0117,-0.163703 z"
             id="path100" /><path
             id="path107"
             style="display:inline;opacity:0.495798;fill:#202922;fill-opacity:0.818584;stroke-width:0.819195;stroke-linejoin:round;stroke-miterlimit:3.1;paint-order:markers stroke fill"
             d="m 24.880372,23.184115 -0.710921,0.08268 -0.476839,3.27887 c -1.772344,-0.06882 -1.962678,0.006 -2.376604,0.626318 -0.429134,0.643114 -0.09782,1.040675 0.04931,1.286226 l 6.522386,-0.09353 c 0,0 -0.122239,-1.005554 -0.306151,-1.660364 -0.161065,-0.573464 -1.375794,-0.196412 -2.992701,-0.148828 z" /><path
             style="display:inline;opacity:0.495798;fill:#adbeb1;fill-opacity:0.818584;stroke-width:0.799999;stroke-linejoin:round;stroke-miterlimit:3.1;paint-order:markers stroke fill"
             d="m 27.5224,28.347561 c -0.01169,-0.08185 0.07016,-1.368087 -0.268941,-1.449938 -0.339098,-0.08185 -1.15761,-0.11693 -1.15761,-0.11693 l 0.853593,1.648719 0.479415,-0.08185 z"
             id="path106" /><path
             style="opacity:0.495798;fill:#202922;fill-opacity:0.818584;stroke-width:0.799999;stroke-linejoin:round;stroke-miterlimit:3.1;paint-order:markers stroke fill"
             d="m 33.750911,24.440885 1.339453,4.398698 1.025261,0.06615 c 0,0 -1.471745,-4.299479 -1.471745,-4.464844 0,-0.165364 0.248047,-0.892968 0.248047,-0.892968 l -0.992188,0.03307 -0.115755,0.760678 z"
             id="path108" /><path
             style="opacity:0.495798;fill:#202922;fill-opacity:0.818584;stroke-width:0.799999;stroke-linejoin:round;stroke-miterlimit:3.1;paint-order:markers stroke fill"
             d="m 42.866691,28.844216 c 0,0 -0.257247,-1.251154 -0.526188,-1.438243 -0.268938,-0.18709 -0.982215,-0.350793 -0.982215,-0.350793 l -0.04677,0.397566 c 0,0 0.748353,0.11693 0.783434,0.327403 0.03508,0.210476 -0.654812,0.912059 -0.654812,0.912059 l 0.268941,0.187086 c 0,0 0.502801,-0.830204 0.572958,-0.760047 0.07016,0.07016 0.339098,0.736664 0.339098,0.736664 z"
             id="path109" /><path
             style="opacity:0.5;fill:#202922;fill-opacity:0.819608;stroke-width:0.169102;stroke-linejoin:round;stroke-miterlimit:3.1;paint-order:stroke markers fill"
             d="m 39.882802,25.620393 c 0,0 -0.710438,-0.122499 -1.048632,0.06991 -0.40968,0.233079 -0.538799,0.820817 -0.363527,1.258359 0.06533,0.163089 0.363526,0.265658 0.363526,0.265658 l -0.391489,1.510031 1.621885,-0.05593 z"
             id="path1"
             sodipodi:nodetypes="csscccc" /></g><g
           inkscape:groupmode="layer"
           id="layer11"
           inkscape:label="Additionals O"
           style="display:inline"><path
             style="display:inline;fill:#33526e;fill-opacity:1;stroke-width:0.880414;stroke-linejoin:round;stroke-miterlimit:3.1;paint-order:markers stroke fill"
             d="m 20.753255,23.762354 c 0,0 -0.396875,0.180252 0.463021,0.320449 0.859896,0.140196 4.233333,-0.360505 5.208984,-0.380532 0.975651,-0.02003 3.141927,0.02003 3.141927,0.02003 l 0.198438,-0.300419 c 0,0 -1.397331,-0.270378 -2.058789,-0.270378 -0.661459,0 -2.124935,-0.05007 -2.199349,-0.05007 -0.07441,0 -4.53099,0.340476 -4.53099,0.340476 0,0 -0.04134,0 -0.124023,0.12017 -0.08268,0.120169 -0.09922,0.200279 -0.09922,0.200279 z"
             id="path43" /><path
             style="fill:#4e270c;fill-opacity:1;stroke-width:0.899415;stroke-linejoin:round;stroke-miterlimit:3.1;paint-order:markers stroke fill"
             d="m 43.310743,29.83375 c -0.319509,-0.228222 -0.135085,0.838836 0.414199,0.824824 0.470545,-0.01201 0.957695,-1.306184 0.957695,-1.306184 0,0 0.222416,-0.316031 0.693526,-0.184046 0.461604,0.129321 0.913302,0.182004 1.441857,0.245724 0.20719,0.02498 0.344773,-2.266844 0.220092,-2.28338 -0.156384,-0.02074 -2.526789,-0.432333 -2.816007,-0.195704 -0.289214,0.236632 -0.354945,2.655518 -0.354945,2.655518 l -0.144605,0.28922 -0.211951,-0.380619 c 0,0 -0.06043,-0.283518 -0.246339,0.0093 -0.185914,0.292817 -0.06507,0.562393 -0.06507,0.562393 l 0.11155,-0.0186 0.03254,-0.506618 0.39042,0.534506 0.381125,-0.562394 c 0,0 0.06904,-1.149215 0.167324,-1.854495 0.0643,-0.461371 0.381923,-0.588023 0.548447,-0.571685 0.308786,0.0303 1.92886,0.283518 1.92886,0.283518 0,0 -0.09295,1.73365 -0.171969,1.766187 -0.07901,0.03254 -1.106191,-0.288169 -1.43619,-0.269578 -0.329997,0.0186 -0.599575,0.06973 -0.664643,0.320703 -0.0046,0.116199 -0.418308,0.836615 -0.580984,1.017884 -0.162674,0.181265 -0.371829,0.19056 -0.371829,0.19056 z"
             id="path3-1"
             sodipodi:nodetypes="cscsssscccccccccsscsscscc" /><path
             style="fill:url(#linearGradient52);fill-opacity:1;stroke-width:0.799999;stroke-linejoin:round;stroke-miterlimit:3.1;paint-order:markers stroke fill"
             d="m 32.461065,23.018748 -0.644922,0.03307 -0.711068,2.579687 -0.181901,3.141926 c 0,0 0.413412,0.06615 0.545703,-0.09922 0.132292,-0.165365 -0.03307,-3.026172 0,-3.323828 0.03307,-0.297656 0.644922,-1.901692 0.644922,-1.901692 l 0.314193,0.01654 c 0,0 0.198437,4.415234 -0.03307,4.729426 -0.231511,0.314193 -1.141016,0.06615 -1.141016,0.06615 0,0 -0.463021,0.363802 -0.06615,0.545703 0.396875,0.181901 1.554427,-0.06614 1.554427,-0.06614 0,0 0.132292,-2.182813 0.165365,-2.910417 0.03307,-0.727604 -0.198437,-2.761588 -0.198437,-2.761588 z"
             id="path4-0" /><path
             style="fill:url(#linearGradient46);fill-opacity:1;stroke-width:0.799999;stroke-linejoin:round;stroke-miterlimit:3.1;paint-order:markers stroke fill"
             d="m 33.559027,23.198992 c 0,0 -0.11693,2.478925 0.07016,3.250666 0.18709,0.771741 -0.02339,2.595855 -0.02339,2.595855 l 2.923262,-0.02339 c 0,0 0,-1.73057 -0.09355,-2.245063 -0.09354,-0.514495 0.159666,-2.931493 0.143129,-3.17954 -0.01654,-0.248047 -2.711979,-0.429948 -2.711979,-0.429948 l -0.115755,0.529166 2.463932,0.297657 -0.152497,2.728515 c 0,0 0.112575,1.693082 0.02989,1.858446 -0.08268,0.165365 -1.911379,0.05978 -1.911379,0.05978 0,0 0.04961,-0.727604 0,-1.951302 -0.04961,-1.223698 -0.165365,-3.257682 -0.165365,-3.257682 z"
             id="path5-8"
             sodipodi:nodetypes="cscccsccccscscc" /><path
             id="path6-5"
             style="fill:url(#linearGradient48);fill-opacity:1;stroke-width:0.799999;stroke-linejoin:round;stroke-miterlimit:3.1;paint-order:markers stroke fill"
             d="m 38.891166,23.117968 c -0.773065,-0.008 -1.613855,0.38499 -1.613855,0.38499 0,0 -0.02325,0.842177 -0.02325,2.245341 0,1.403163 0.02325,3.250447 0.02325,3.250447 0.04677,0.07016 2.94659,0.04651 2.94659,0.04651 0,0 -0.149719,-3.929558 -0.210323,-5.308203 -0.0087,-0.198126 -0.658573,-0.614288 -1.122412,-0.619084 z m -0.291972,0.519349 c 0.460053,0.0076 0.964371,0.109833 1.016992,0.12299 0.09354,0.02339 0.233578,4.349949 0.233578,4.747513 0,0 -1.941102,0.139945 -1.917712,-0.117305 0.02338,-0.257246 -0.257238,-4.069085 -0.09353,-4.51342 0.07162,-0.194397 0.402859,-0.245693 0.760677,-0.239778 z"
             sodipodi:nodetypes="scsccssssccss" /><path
             style="fill:url(#linearGradient54);fill-opacity:1;stroke-width:0.799999;stroke-linejoin:round;stroke-miterlimit:3.1;paint-order:markers stroke fill"
             d="m 18.638707,28.671334 c 0,0 -0.07016,-0.514492 0.374177,-0.537879 0.444335,-0.02339 0.491108,-0.23386 0.491108,-0.23386 0,0 0.77174,-3.414368 0.912057,-3.765159 0.140316,-0.350791 -1.169304,-0.748355 0.444335,-0.95883 1.61364,-0.210474 4.887691,-0.304019 6.407786,-0.23386 1.520097,0.07016 2.899875,0.257246 2.899875,0.257246 0,0 -1.005602,3.624844 -1.028988,4.092564 -0.02339,0.467723 -0.397563,1.333008 -0.397563,1.333008 l -9.518135,0.07016 c 0,0 0.140316,-0.537879 0.795126,-0.537879 0.654811,0 8.278673,0.11693 8.30206,0 0.02339,-0.11693 1.239461,-4.607058 1.239461,-4.607058 0,0 -2.666013,-0.561266 -4.139336,-0.257247 -1.473323,0.304019 -4.466741,0.210475 -4.466741,0.210475 0,0 -0.608038,3.835317 -0.795127,4.256267 -0.187089,0.420949 -0.53788,0.865285 -0.53788,0.865285 z"
             id="path7-6" /><path
             style="fill:url(#linearGradient50);fill-opacity:1;stroke-width:0.799999;stroke-linejoin:round;stroke-miterlimit:3.1;paint-order:markers stroke fill"
             d="m 40.797019,23.467932 c 0,0 0.09354,5.355413 0.491106,5.519116 0.397563,0.163701 2.45554,0.03508 2.45554,-0.08185 0,-0.11693 -1.017294,-4.817534 -1.204383,-5.133245 -0.18709,-0.315713 -1.57856,-0.292326 -1.57856,-0.292326 l 0.0117,0.561265 c 0,0 0.748355,-0.38587 1.122532,-0.04677 0.374176,0.339098 1.414859,4.642137 1.286234,4.700602 -0.128624,0.05846 -1.835808,0.03508 -1.870887,-0.163703 -0.03508,-0.198782 -0.128622,-4.653829 -0.304019,-4.829225 -0.175395,-0.175395 -0.409255,-0.233861 -0.409255,-0.233861 z"
             id="path8-8" /><path
             id="path9-9"
             style="fill:#50656b;fill-opacity:1;stroke-width:0.799999;stroke-linejoin:round;stroke-miterlimit:3.1;paint-order:markers stroke fill"
             d="m 23.625948,31.99908 c -0.181424,5.48e-4 -0.371356,0.0017 -0.555522,0.0047 -0.736661,0.0117 -1.730643,0.245463 -1.730643,0.245463 l 0.01188,1.765784 c 0,0 1.707128,-0.152003 2.350244,-0.09354 0.643117,0.05846 0.958922,0.444556 0.947229,-0.268717 -0.01169,-0.713274 -0.01188,-1.648995 -0.01188,-1.648995 0,0 -0.467034,-0.0063 -1.011308,-0.0047 z m 0.67231,0.343648 -0.02325,1.356507 H 21.64364 l 0.01189,-1.227832 0.76016,-0.104903 -0.1757,0.128674 z" /><path
             id="path10"
             style="fill:#50656b;fill-opacity:1;stroke-width:0.799999;stroke-linejoin:round;stroke-miterlimit:3.1;paint-order:markers stroke fill"
             d="m 20.398755,35.565271 c -1.3361,-0.0097 -3.303674,0.14521 -3.303674,0.14521 0,0 -0.0465,0.257464 -0.140043,0.421163 -0.09354,0.163703 -0.351145,0.935314 -0.304375,1.215947 0.04677,0.280632 0.561654,0.02312 1.216464,0.04651 0.654809,0.02339 10.640322,0.23385 11.71608,0.09353 1.075758,-0.140317 0.07043,-1.285953 -0.140043,-1.42627 -0.210476,-0.140315 -4.303271,-0.327373 -5.098397,-0.280603 -0.795121,0.04677 -0.09353,1.005624 -0.09353,1.005624 l -2.572453,-0.14056 c 0,0 0.23387,-0.607938 -0.09353,-0.935344 -0.102314,-0.102313 -0.579173,-0.140814 -1.186491,-0.14521 z m 0.933276,0.294039 c 0,0 0.12402,0.297656 0.14056,0.413411 0.01654,0.115755 -0.284737,0.700732 -0.284737,0.700732 l 0.541052,-0.10542 c 0,0 0,0.04134 0.04961,0.107487 0.04961,0.06614 0.438216,-0.01654 1.000455,-0.01654 0.56224,0 1.802474,0.09095 1.802474,0.09095 0,0 -0.256318,-0.7028 -0.289388,-0.950847 -0.03307,-0.248046 5.051889,0.223243 5.142839,0.347266 0.09095,0.124023 0.28112,0.620117 0.28112,0.620117 0,0 -0.07441,0.148831 -0.132292,0.181901 -0.05788,0.03308 -4.853451,0.04961 -5.175911,0.06615 -0.322461,0.01654 -4.712891,-0.132292 -4.712891,-0.132292 0,0 -0.09095,-0.148828 -0.173633,-0.148828 -0.08265,0 -0.09095,0.14056 -0.09095,0.14056 l -2.43086,-0.01654 0.429948,-1.107943 z" /></g></g></g><g
       inkscape:groupmode="layer"
       id="layer5"
       inkscape:label="Kaboom"><path
         style="fill:none;stroke:#f4f4f4;stroke-width:3.23973;stroke-linecap:round;stroke-linejoin:round;stroke-miterlimit:3.1;paint-order:stroke markers fill"
         d="M 40.247834,35.171582 50.372565,28.151189 44.793632,14.62661 56.674696,16.897914 61.323808,5.8511271 72.171733,16.071988 86.222386,5.9543642 92.421201,19.995146 103.68238,19.16922 l -2.68615,11.046793 8.05845,9.085213 -13.120821,5.471772 -3.822598,8.259286 -9.91811,-6.194467 L 70.415404,57.058684 59.360848,43.843829 44.587005,51.999872 53.058722,37.546124 Z"
         id="path2"
         sodipodi:nodetypes="ccccccccccccccccccc" /><path
         style="fill:none;stroke:#f4f4f4;stroke-width:2.31409;stroke-linecap:round;stroke-linejoin:round;stroke-miterlimit:3.1;stroke-dasharray:none;paint-order:stroke markers fill"
         d="m 58.593666,26.794601 0.865878,13.421142 c 0,0 6.558108,-2.799211 5.952927,-5.411748 -0.525633,-2.269136 -7.667245,-0.953292 -7.667245,-0.953292 0,0 6.979398,-2.525094 6.465782,-5.25437 -0.36367,-1.932485 -5.617342,-1.801732 -5.617342,-1.801732 z"
         id="path3"
         sodipodi:nodetypes="ccscac" /><path
         style="fill:none;stroke:#f4f4f4;stroke-width:2.31409;stroke-linecap:round;stroke-linejoin:round;stroke-miterlimit:3.1;stroke-dasharray:none;paint-order:stroke markers fill"
         d="m 68.948714,35.801946 c -0.667249,-1.251798 -0.131638,-6.469185 -0.09567,-9.356247 -0.135417,-0.241816 4.260009,-2.881102 5.24256,-0.229601 1.329462,3.587673 -5.132681,5.025787 -5.280827,4.706823 -0.141182,-0.303968 4.274108,2.997124 6.007897,3.23355"
         id="path4"
         sodipodi:nodetypes="ccssc" /><path
         style="fill:none;stroke:#f4f4f4;stroke-width:2.31409;stroke-linecap:round;stroke-linejoin:round;stroke-miterlimit:3.1;stroke-dasharray:none;paint-order:stroke markers fill"
         d="m 77.34829,34.09907 c 0.398257,-3.315173 1.27331,-6.608673 2.79348,-9.872849 1.347685,2.773251 3.009086,5.449975 3.099616,8.610043"
         id="path5"
         sodipodi:nodetypes="ccc" /><path
         style="fill:none;stroke:#f4f4f4;stroke-width:2.31409;stroke-linecap:round;stroke-linejoin:round;stroke-miterlimit:3.1;stroke-dasharray:none;paint-order:stroke markers fill"
         d="m 85.5177,24.29075 1.22454,9.681515"
         id="path6" /><path
         style="fill:none;stroke:#f4f4f4;stroke-width:2.31409;stroke-linecap:round;stroke-linejoin:round;stroke-miterlimit:3.1;stroke-dasharray:none;paint-order:stroke markers fill"
         d="m 90.725839,33.791809 -4.745091,-4.362422 4.238336,-4.181965"
         id="path7"
         sodipodi:nodetypes="ccc" /><path
         style="fill:none;stroke:#f4f4f4;stroke-width:2.31409;stroke-linecap:round;stroke-linejoin:round;stroke-miterlimit:3.1;stroke-dasharray:none;paint-order:stroke markers fill"
         d="m 82.169913,30.540253 -4.094554,0.172201"
         id="path8" /><path
         style="fill:none;stroke:#f4f4f4;stroke-width:2.31409;stroke-linecap:round;stroke-linejoin:round;stroke-miterlimit:3.1;stroke-dasharray:none;paint-order:stroke markers fill"
         d="M 95.983989,24.088728 94.901637,30.52871"
         id="path9" /><path
         style="fill:none;stroke:#f4f4f4;stroke-width:2.31409;stroke-linecap:round;stroke-linejoin:round;stroke-miterlimit:3.1;stroke-dasharray:none;paint-order:stroke markers fill"
         d="m 94.309064,33.386528 -0.05412,0.64941"
         id="path17" /></g></g></svg>
