<?xml version="1.0" encoding="UTF-8" standalone="no"?>
<!-- Created with Inkscape (http://www.inkscape.org/) -->

<svg
   width="108.37811"
   height="82.289185"
   viewBox="0 0 28.67504 21.772347"
   version="1.1"
   id="svg1"
   xml:space="preserve"
   inkscape:version="1.3 (0e150ed6c4, 2023-07-21)"
   sodipodi:docname="BC Ver12 - Influenzae.svg.2024_06_27_11_51_01.0.svg"
   inkscape:export-filename="Asp2.png"
   inkscape:export-xdpi="96"
   inkscape:export-ydpi="96"
   xmlns:inkscape="http://www.inkscape.org/namespaces/inkscape"
   xmlns:sodipodi="http://sodipodi.sourceforge.net/DTD/sodipodi-0.dtd"
   xmlns="http://www.w3.org/2000/svg"
   xmlns:svg="http://www.w3.org/2000/svg"><sodipodi:namedview
     id="namedview1"
     pagecolor="#ffffff"
     bordercolor="#000000"
     borderopacity="0.25"
     inkscape:showpageshadow="2"
     inkscape:pageopacity="0.0"
     inkscape:pagecheckerboard="0"
     inkscape:deskcolor="#d1d1d1"
     inkscape:document-units="mm"
     inkscape:zoom="2.8284271"
     inkscape:cx="770.03929"
     inkscape:cy="499.04062"
     inkscape:window-width="1920"
     inkscape:window-height="974"
     inkscape:window-x="-11"
     inkscape:window-y="-11"
     inkscape:window-maximized="1"
     inkscape:current-layer="layer22"
     showguides="false"
     showgrid="false"><sodipodi:guide
       position="-20.333126,350.65487"
       orientation="0,-1"
       id="guide269"
       inkscape:locked="false" /><sodipodi:guide
       position="-64.594526,277.62002"
       orientation="1,0"
       id="guide911"
       inkscape:locked="false" /></sodipodi:namedview><defs
     id="defs1" /><g
     inkscape:groupmode="layer"
     id="layer2"
     inkscape:label="Frame1"
     transform="translate(-225.15752,-167.21049)"><g
       inkscape:groupmode="layer"
       id="layer22"
       inkscape:label="HandR O"><path
         style="fill:#020202;stroke-width:1;stroke-linecap:round;stroke-linejoin:round;stroke-miterlimit:3.1;stroke-dasharray:1, 6.00001;paint-order:stroke markers fill"
         d="m 244.47812,169.12816 c 0,0 -2.94665,0.79512 -2.15152,2.3386 0.79512,1.54349 2.29183,3.0402 2.29183,3.0402 0,0 0.56127,0.93544 -2.3386,1.44993 -2.89988,0.5145 -3.47112,-2.31785 -6.93226,-1.52272 -3.46114,0.79512 -5.39167,2.17372 -7.23971,4.28228 -1.50721,1.71969 -3.7126,1.32766 -2.68815,6.31149 0.44641,2.1717 1.87553,3.43327 3.57682,3.83807 2.09454,0.49837 5.80709,-0.74426 4.02241,-0.98222 -3.2543,-0.14792 -4.56475,0.67571 -5.66941,-2.63529 -0.52746,-1.58097 -0.56796,-3.09361 2.75291,-4.59032 3.32082,-1.49671 4.69384,-4.5142 8.95011,-2.08205 4.25626,2.43216 6.82873,-2.19829 6.82873,-2.19829 1.6665,1.73972 2.01198,3.66817 2.89988,5.51912 0.7796,-1.7585 -0.0283,2.48344 5.05139,-14.68646 -3.06485,0.89235 -5.84209,3.15086 -9.35443,1.91766 z"
         id="path524"
         sodipodi:nodetypes="cscssasscssscccc"
         inkscape:export-filename="..\..\25-04 IT Fest\artattack-v2\ui\arrow.png"
         inkscape:export-xdpi="320"
         inkscape:export-ydpi="320" /></g></g></svg>
