<?xml version="1.0" encoding="UTF-8" standalone="no"?>
<!-- Created with Inkscape (http://www.inkscape.org/) -->

<svg
   width="1920"
   height="1080"
   viewBox="0 0 507.99999 285.75"
   version="1.1"
   id="svg1"
   xml:space="preserve"
   inkscape:version="1.3 (0e150ed6c4, 2023-07-21)"
   sodipodi:docname="gameplay.svg"
   xmlns:inkscape="http://www.inkscape.org/namespaces/inkscape"
   xmlns:sodipodi="http://sodipodi.sourceforge.net/DTD/sodipodi-0.dtd"
   xmlns="http://www.w3.org/2000/svg"
   xmlns:svg="http://www.w3.org/2000/svg"><sodipodi:namedview
     id="namedview1"
     pagecolor="#f15858"
     bordercolor="#000000"
     borderopacity="0.25"
     inkscape:showpageshadow="2"
     inkscape:pageopacity="0.0"
     inkscape:pagecheckerboard="0"
     inkscape:deskcolor="#d1d1d1"
     inkscape:document-units="px"
     inkscape:zoom="0.35055065"
     inkscape:cx="761.65885"
     inkscape:cy="529.16748"
     inkscape:window-width="1920"
     inkscape:window-height="974"
     inkscape:window-x="-11"
     inkscape:window-y="-11"
     inkscape:window-maximized="1"
     inkscape:current-layer="layer3" /><defs
     id="defs1" /><g
     inkscape:label="Layer 1"
     inkscape:groupmode="layer"
     id="layer1"
     style="display:inline"><path
       style="display:inline;fill:#1e1e1e;fill-opacity:1;stroke:none;stroke-width:1;stroke-linecap:round;stroke-linejoin:round;stroke-miterlimit:3.1;stroke-dasharray:1, 6.00001;stroke-dashoffset:0;stroke-opacity:1;paint-order:stroke markers fill"
       d="m 329.2868,34.163709 c 0,0 15.47728,29.353465 31.48827,32.555661 16.01097,3.202197 90.72891,2.935348 108.87467,0.266851 18.14578,-2.668498 26.41814,-18.412629 26.41814,-18.412629 L 482.45853,13.349432 330.8879,13.883131 Z"
       id="path10"
       sodipodi:nodetypes="csscccc" /><path
       style="display:inline;fill:#ffffff;fill-opacity:1;stroke:none;stroke-width:1;stroke-linecap:round;stroke-linejoin:round;stroke-miterlimit:3.1;stroke-dasharray:1, 6.00001;stroke-dashoffset:0;stroke-opacity:1;paint-order:stroke markers fill"
       d="m 339.69395,25.891368 c 0,0 4.93672,27.885793 23.61619,31.621688 18.67948,3.735895 92.73027,6.004119 105.53906,-0.133426 12.80877,-6.137542 28.28606,-36.024707 28.28606,-36.024707 L 486.99498,8.8129874 c 0,0 -177.98875,-3.202196 -176.6545,-1.601098 1.33425,1.601098 9.87344,28.0192176 11.74139,28.0192176 1.86794,0 17.61208,-9.339739 17.61208,-9.339739 z"
       id="path11"
       sodipodi:nodetypes="cssccssc" /><path
       style="fill:#000000;fill-opacity:1;stroke-width:0.999999;stroke-linecap:round;stroke-linejoin:round;stroke-miterlimit:3.1;stroke-dasharray:12, 12;stroke-opacity:0.829225;paint-order:stroke markers fill"
       d="m 0,242.32376 c 33.209657,3.03278 45.681329,1.63634 58.871664,-0.22076 17.651825,-2.48526 21.240087,-5.65096 34.518718,-5.75914 19.927338,-0.16232 27.883538,0.86694 40.203008,1.73398 45.12575,3.17598 30.1906,4.24589 71.70267,7.27867 41.51207,3.03279 22.64295,6.06557 58.87166,3.03279 36.22871,-3.03279 24.15249,-11.52457 58.1169,-7.88523 33.96442,3.63933 19.53926,1.87479 53.58831,6.06556 16.0697,1.97786 27.11791,3.33607 44.91043,3.33607 33.32891,0 42.61784,-6.27132 64.1531,-3.63935 C 493.67034,247.3338 508,242.32376 508,242.32376 V 285.75 H 0 Z"
       id="path3"
       sodipodi:nodetypes="cssssssssscccc" /><path
       id="path3-7"
       style="fill:#000000;fill-opacity:1;stroke-width:1;stroke-linecap:round;stroke-linejoin:round;stroke-miterlimit:3.1;stroke-dasharray:12, 12;stroke-opacity:0.829225;paint-order:stroke markers fill"
       d="m 0,0 v 38.991935 c 0,0 14.329837,-4.498265 23.063708,-3.539836 21.535239,2.36322 30.824313,-3.268017 64.15319,-3.268017 17.792502,0 28.840232,1.219778 44.909922,2.995682 34.04901,3.762858 19.62407,2.178462 53.58846,5.44618 33.96437,3.267731 21.88819,-4.357068 58.11686,-7.080188 36.22868,-2.723107 17.35983,2.27e-4 58.87186,2.723348 31.44873,2.062969 25.38964,7.924934 42.70246,9.553392 -1.91563,-12.979284 4.08601,-34.369116 14.03981,-32.480158 25.46969,4.833446 116.40179,-4.9275224 119.2822,7.205304 1.97464,8.317565 2.5482,20.030747 7.56499,27.14035 6.24703,6.598862 12.09809,1.144538 21.70654,-8.696057 V 0 Z"
       sodipodi:nodetypes="ccsssssscsscccc" /></g><g
     inkscape:groupmode="layer"
     id="layer2"
     inkscape:label="Circle"><circle
       style="fill:#ffffff;fill-opacity:1;stroke:#000000;stroke-width:1;stroke-linecap:round;stroke-linejoin:round;stroke-miterlimit:3.1;stroke-dasharray:1, 6;stroke-dashoffset:0;stroke-opacity:1;paint-order:stroke markers fill"
       id="path2"
       cx="327.75528"
       cy="242.99405"
       r="25.457012" /><path
       id="path4-7"
       style="fill:#000000;fill-opacity:1;stroke:none;stroke-width:1;stroke-linecap:round;stroke-linejoin:round;stroke-miterlimit:3.1;stroke-dasharray:1, 6.00001;stroke-dashoffset:0;stroke-opacity:1;paint-order:stroke markers fill"
       d="m 328.08175,216.26383 c -38.68985,0.69278 -32.97816,39.61519 -22.08515,48.55321 5.8617,4.80967 16.07877,9.52124 31.54694,5.76825 27.95306,-6.78215 26.96134,-54.97365 -9.46179,-54.32146 z m -0.0329,6.49721 c 31.90736,4.49443 27.07513,40.04417 3.13457,40.73475 -15.32137,0.44196 -31.33998,-9.05333 -26.00128,-25.63761 3.20575,-8.55258 12.65297,-16.53583 22.86671,-15.09714 z"
       sodipodi:nodetypes="ssssssas" /></g><g
     inkscape:groupmode="layer"
     id="g4"
     inkscape:label="Circle"
     transform="translate(79.375055)"><circle
       style="fill:#ffffff;fill-opacity:1;stroke:#000000;stroke-width:1;stroke-linecap:round;stroke-linejoin:round;stroke-miterlimit:3.1;stroke-dasharray:1, 6;stroke-dashoffset:0;stroke-opacity:1;paint-order:stroke markers fill"
       id="circle4"
       cx="318.28107"
       cy="242.99405"
       r="25.457012" /><path
       id="path4"
       style="fill:#000000;fill-opacity:1;stroke:none;stroke-width:1;stroke-linecap:round;stroke-linejoin:round;stroke-miterlimit:3.1;stroke-dasharray:1, 6.00001;stroke-dashoffset:0;stroke-opacity:1;paint-order:stroke markers fill"
       d="m 318.60753,216.26383 c -38.68985,0.69278 -32.97815,39.61519 -22.08515,48.55321 5.8617,4.80967 16.07877,9.52124 31.54694,5.76825 27.95306,-6.78215 26.96135,-54.97365 -9.46179,-54.32146 z m -0.0329,6.49721 c 31.90736,4.49443 27.07513,40.04417 3.13457,40.73475 -15.32137,0.44196 -31.33998,-9.05333 -26.00128,-25.63761 3.20575,-8.55258 12.65298,-16.53583 22.86671,-15.09714 z"
       sodipodi:nodetypes="ssssssas" /></g><g
     inkscape:groupmode="layer"
     id="g5"
     inkscape:label="Circle"
     transform="translate(158.75005)"><circle
       style="fill:#ffffff;fill-opacity:1;stroke:#000000;stroke-width:1;stroke-linecap:round;stroke-linejoin:round;stroke-miterlimit:3.1;stroke-dasharray:1, 6;stroke-dashoffset:0;stroke-opacity:1;paint-order:stroke markers fill"
       id="circle5"
       cx="308.80685"
       cy="242.99405"
       r="25.457012" /><path
       id="path5"
       style="fill:#000000;fill-opacity:1;stroke:none;stroke-width:1;stroke-linecap:round;stroke-linejoin:round;stroke-miterlimit:3.1;stroke-dasharray:1, 6.00001;stroke-dashoffset:0;stroke-opacity:1;paint-order:stroke markers fill"
       d="m 309.13332,216.26383 c -38.68985,0.69278 -32.97815,39.61519 -22.08515,48.55321 5.8617,4.80967 16.07877,9.52124 31.54694,5.76825 27.95306,-6.78215 26.96135,-54.97365 -9.46179,-54.32146 z m -0.0329,6.49721 c 31.90736,4.49443 27.07513,40.04417 3.13457,40.73475 -15.32137,0.44196 -31.33998,-9.05333 -26.00128,-25.63761 3.20575,-8.55258 12.65298,-16.53583 22.86671,-15.09714 z"
       sodipodi:nodetypes="ssssssas" /></g><g
     inkscape:groupmode="layer"
     id="g6"
     inkscape:label="Circle"
     transform="translate(-79.374953)"><circle
       style="fill:#ffffff;fill-opacity:1;stroke:#000000;stroke-width:1;stroke-linecap:round;stroke-linejoin:round;stroke-miterlimit:3.1;stroke-dasharray:1, 6;stroke-dashoffset:0;stroke-opacity:1;paint-order:stroke markers fill"
       id="circle6"
       cx="337.22949"
       cy="242.99405"
       r="25.457012" /><path
       id="path6"
       style="fill:#000000;fill-opacity:1;stroke:none;stroke-width:1;stroke-linecap:round;stroke-linejoin:round;stroke-miterlimit:3.1;stroke-dasharray:1, 6.00001;stroke-dashoffset:0;stroke-opacity:1;paint-order:stroke markers fill"
       d="m 337.55596,216.26383 c -38.68986,0.69278 -32.97816,39.61519 -22.08516,48.55321 5.8617,4.80967 16.07877,9.52124 31.54695,5.76825 27.95305,-6.78215 26.96134,-54.97365 -9.46179,-54.32146 z m -0.0329,6.49721 c 31.90736,4.49443 27.07513,40.04417 3.13458,40.73475 -15.32137,0.44196 -31.33999,-9.05333 -26.00128,-25.63761 3.20575,-8.55258 12.65297,-16.53583 22.8667,-15.09714 z"
       sodipodi:nodetypes="ssssssas" /></g><g
     inkscape:groupmode="layer"
     id="layer3"
     inkscape:label="Canvas"><rect
       style="fill:#ffffff;fill-opacity:1;stroke:none;stroke-width:1;stroke-linecap:round;stroke-linejoin:round;stroke-miterlimit:3.1;stroke-dasharray:1, 6.00001;stroke-dashoffset:0;stroke-opacity:1;paint-order:stroke markers fill"
       id="rect6"
       width="105.83334"
       height="105.83334"
       x="23.482773"
       y="166.51421" /><path
       id="path8"
       style="fill:#0e0e0e;fill-opacity:1;stroke:none;stroke-width:1;stroke-linecap:round;stroke-linejoin:round;stroke-miterlimit:3.1;stroke-dasharray:1, 6.00001;stroke-dashoffset:0;stroke-opacity:1;paint-order:stroke markers fill"
       d="m 129.94762,162.44486 c -1.62611,0.05 -3.86104,0.46698 -6.92981,1.40095 -12.27506,3.7359 -48.366669,-0.13366 -61.44229,1.46744 -13.075623,1.60109 -31.955222,-0.39997 -36.224812,-0.39997 -4.269591,0 -3.802601,3.46869 -3.802601,3.46869 l 0.867062,43.76374 c 0,0 0.266849,-4.80374 0,6.13709 -0.26685,10.94083 -5.870366,10.40729 -3.201872,30.9547 2.668495,20.5474 -2.401885,30.15411 2.401404,29.62041 4.80329,-0.53371 16.277854,-4.26946 37.35896,-2.93522 21.081105,1.33427 71.249149,9.07276 73.650799,-0.53382 2.40165,-9.60659 -4e-4,-9.87367 0.5333,-26.68519 0.5337,-16.81151 1.06764,-77.65282 1.06764,-80.85501 0,-2.40165 0.60056,-5.55391 -4.27778,-5.40381 z M 29.826603,173.21578 c 1.843945,-0.87545 3.540412,-0.6058 6.865247,0.10306 11.44463,2.44002 10.133515,-1.20524 44.697497,2.80219 18.41261,2.1348 40.294173,-1.2e-4 43.763223,-0.53382 3.46903,-0.5337 -2e-4,18.14542 0.26665,20.54707 0.26685,2.40164 0,6.93852 0,11.2081 0,4.2696 -2.40125,46.16497 -0.5333,51.23512 1.86794,5.07013 3.20206,8.00534 -0.53382,9.87329 -3.7359,1.86796 -26.685261,0.26666 -39.760882,0.26666 -13.075624,0 -43.496321,-2.4012 -52.836051,-2.66806 -9.339729,-0.26686 -3.468881,-10.40761 -1.600936,-27.75283 1.86795,-17.34521 -0.800904,-29.3533 -1.601452,-49.36701 -0.550378,-13.75942 0.606787,-15.39708 1.273824,-15.71377 z"
       sodipodi:nodetypes="ssssccsssssssssssssssssssss" /><path
       style="fill:#ffffff;fill-opacity:1;stroke:none;stroke-width:1;stroke-linecap:round;stroke-linejoin:round;stroke-miterlimit:3.1;stroke-dasharray:1, 6;stroke-dashoffset:0;stroke-opacity:1;paint-order:stroke markers fill"
       d="m 95.588803,175.33802 c 0,0 0.657249,1.43862 1.071816,2.10966 0.653355,1.05754 1.205652,2.27622 2.217442,2.99841 0.63024,0.44983 1.639469,-0.43714 2.215139,0.69933 0.57565,1.13647 1.74884,4.11893 3.24028,5.7273 10.30031,11.10776 35.69116,27.74448 37.75595,25.29422 2.0648,-2.45027 2.6946,-8.02365 1.42868,-11.76623 -4.27218,-12.63023 -17.35302,-19.66502 -27.93588,-28.62783 -3.06343,-2.59439 -10.89934,-6.82046 -10.89934,-6.82046 0,0 0.65513,-6.94063 -2.46976,-9.13284 -2.978701,-2.08963 -6.120192,-1.23774 -9.399564,-3.0376 -2.338078,-1.28325 -3.953264,-5.98895 -3.953264,-5.98895 0,0 -8.229774,3.22628 -7.208996,12.46324 0.570109,5.15874 1.478954,11.29836 6.268887,14.55982 1.685743,1.14782 7.66861,1.52193 7.66861,1.52193 z"
       id="path15"
       sodipodi:nodetypes="caasasascsscssc" /><text
       xml:space="preserve"
       style="font-weight:bold;font-size:22.5778px;line-height:1;font-family:Montserrat;-inkscape-font-specification:'Montserrat Bold';text-align:center;letter-spacing:0px;text-anchor:middle;fill:#0e0e0e;fill-opacity:1;stroke:none;stroke-width:1;stroke-linecap:round;stroke-linejoin:round;stroke-miterlimit:3.1;stroke-dasharray:1, 6.00001;stroke-dashoffset:0;stroke-opacity:1;paint-order:stroke markers fill"
       x="169.43474"
       y="268.33099"
       id="text8"><tspan
         sodipodi:role="line"
         id="tspan8"
         style="font-style:normal;font-variant:normal;font-weight:normal;font-stretch:normal;font-size:22.5778px;font-family:Basophil;-inkscape-font-specification:Basophil;fill:#ffffff;fill-opacity:1;stroke-width:1"
         x="169.43474"
         y="268.33099">SUBMIT</tspan></text><path
       style="fill:#242424;fill-opacity:1;stroke:none;stroke-width:1;stroke-linecap:round;stroke-linejoin:round;stroke-miterlimit:3.1;stroke-dasharray:1, 6;stroke-dashoffset:0;stroke-opacity:1;paint-order:stroke markers fill"
       d="m 110.99899,172.77294 c 0,0 -6.97551,5.35687 -7.05043,6.45818 -0.0749,1.10128 -3.04269,2.46835 8.23851,10.60859 11.28122,8.1402 29.48149,21.62096 29.28838,17.52684 -0.19311,-4.09411 1.35544,-6.32856 -5.42065,-14.17145 -6.77608,-7.84286 -25.05581,-20.42216 -25.05581,-20.42216 z"
       id="path12" /><path
       style="fill:#242424;fill-opacity:1;stroke:none;stroke-width:1;stroke-linecap:round;stroke-linejoin:round;stroke-miterlimit:3.1;stroke-dasharray:1, 6;stroke-dashoffset:0;stroke-opacity:1;paint-order:stroke markers fill"
       d="m 107.72082,170.43341 c 0,0 -6.05358,8.28059 -7.05852,7.61105 -1.004959,-0.6695 -1.590662,-3.2959 -1.590662,-3.2959 0,0 -1.357898,0.41214 -0.586318,-0.75341 0.771565,-1.16555 4.91764,-5.26456 5.94077,-5.71707 2.8854,-1.27617 4.0761,1.77649 3.29473,2.15533 z"
       id="path13"
       sodipodi:nodetypes="cscssc" /><path
       style="fill:#242424;fill-opacity:1;stroke:none;stroke-width:1;stroke-linecap:round;stroke-linejoin:round;stroke-miterlimit:3.1;stroke-dasharray:1, 6;stroke-dashoffset:0;stroke-opacity:1;paint-order:stroke markers fill"
       d="m 103.02291,165.9777 c 0,0 -5.112432,3.76502 -5.491601,4.67333 -0.379198,0.90831 -0.740196,2.61589 -1.834663,2.84073 -1.094497,0.22484 -6.203407,-1.51389 -7.886364,-3.91903 -5.01756,-7.17062 -3.570889,-17.12516 0.09378,-17.84566 0,0 0.196258,2.28334 1.407992,4.76621 1.747267,3.58016 8.783689,-0.28006 11.701116,2.43274 1.78993,1.66436 2.00981,7.05168 2.00981,7.05168 z"
       id="path14"
       sodipodi:nodetypes="cssscsac" /></g><g
     inkscape:groupmode="layer"
     id="layer4"
     inkscape:label="Heart"><path
       id="path9"
       style="fill:#1e1e1e;fill-opacity:1;stroke:none;stroke-width:1;stroke-linecap:round;stroke-linejoin:round;stroke-miterlimit:3.1;stroke-dasharray:1, 6.00001;stroke-dashoffset:0;stroke-opacity:1;paint-order:stroke markers fill"
       d="m 374.66367,19.247106 c -4.2196,-0.08725 -12.09575,5.998709 -11.19415,12.563057 0.71502,5.205946 1.8314,9.07875 12.27522,15.477091 5.1291,3.142316 8.00571,9.873816 8.00571,9.873816 0,0 5.17111,-4.420812 11.20758,-8.520721 2.70561,-1.837617 12.28925,-5.684403 14.01914,-8.506757 4.35043,-7.097801 -1.97907,-16.17305 -6.58001,-18.027363 -5.16672,-2.08234 -15.08332,6.264212 -15.08332,6.264212 0,0 -7.21711,-9.011009 -12.65017,-9.123335 z m 0.95025,5.884018 c 5.01528,0.326492 10.94411,9.528994 10.94411,9.528994 0,0 7.27592,-8.684727 12.92527,-6.227177 21.57446,9.385215 -14.70894,15.807452 -14.43475,22.454332 0.49898,-8.482563 -18.30774,-10.218031 -17.2651,-19.434783 0.46946,-4.149902 3.66293,-6.592671 7.83047,-6.321366 z"
       sodipodi:nodetypes="ssscssscsscscss" /><text
       xml:space="preserve"
       style="font-style:normal;font-variant:normal;font-weight:normal;font-stretch:normal;font-size:33.8667px;line-height:1;font-family:Basophil;-inkscape-font-specification:Basophil;text-align:center;letter-spacing:0px;text-anchor:middle;fill:#1e1e1e;fill-opacity:1;stroke:none;stroke-width:1;stroke-linecap:round;stroke-linejoin:round;stroke-miterlimit:3.1;stroke-dasharray:1, 6.00001;stroke-dashoffset:0;stroke-opacity:1;paint-order:stroke markers fill"
       x="439.76898"
       y="50.321365"
       id="text10"><tspan
         sodipodi:role="line"
         id="tspan10"
         style="font-size:33.8667px;stroke-width:1"
         x="439.76898"
         y="50.321365">x25</tspan></text></g></svg>
